<?xml version="1.0" encoding="UTF-8"?>
<svg width="220px" height="51px" viewBox="0 0 220 51" version="1.1" xmlns="http://www.w3.org/2000/svg" xmlns:xlink="http://www.w3.org/1999/xlink">
    <!-- Generator: Sketch 43.1 (39012) - http://www.bohemiancoding.com/sketch -->
    <title>logo/amdec-group</title>
    <desc>Created with Sketch.</desc>
    <defs></defs>
    <g id="Symbols" stroke="none" stroke-width="1" fill="none" fill-rule="evenodd">
        <g id="logo/amdec-group">
            <g id="Page-1">
                <path d="M205.577988,22.9342175 L205.577988,30.1272257 L201.744168,30.1272257 L201.744168,6.53356652 L205.577988,6.53356652 L205.577988,8.02432773 C206.357155,7.36720839 207.174661,6.87977845 208.027122,6.56659332 C208.877328,6.24429735 209.794062,6.08030223 210.779579,6.08030223 C211.832752,6.08030223 212.827289,6.25682476 213.756427,6.61442523 C214.688947,6.96177601 215.525622,7.47995504 216.266451,8.17010117 C217.271137,9.10054571 218.041284,10.1961242 218.578019,11.4613921 C219.124902,12.7232435 219.398907,14.0693701 219.398907,15.4952166 C219.398907,16.8242604 219.149709,18.0940837 218.654695,19.3035477 C218.168702,20.5118729 217.474104,21.5550641 216.570901,22.4308436 C215.800755,23.2086816 214.917849,23.8031639 213.926694,24.2120128 C212.943432,24.6220006 211.904918,24.8292722 210.810024,24.8292722 C209.744448,24.8292722 208.78712,24.6698325 207.934659,24.3577863 C207.092347,24.0559897 206.306414,23.5799483 205.577988,22.9342175 L205.577988,22.9342175 Z M205.727958,15.3653871 C205.727958,16.8880363 206.190271,18.162415 207.110388,19.1885234 C208.036143,20.2055209 209.177268,20.7145891 210.534891,20.7145891 C211.872217,20.7145891 213.012215,20.1941324 213.956011,19.1566354 C214.9077,18.1214162 215.383545,16.8777866 215.384673,15.4303019 C215.384673,13.9304298 214.9077,12.679967 213.956011,11.6857466 C213.003194,10.6938039 211.802307,10.1961242 210.349966,10.1961242 C209.074657,10.1961242 207.985401,10.6983593 207.084453,11.7028294 C206.180123,12.6970498 205.727958,13.9179024 205.727958,15.3653871 L205.727958,15.3653871 Z M196.293379,24.3577863 L196.293379,22.4308436 C195.726199,23.2417084 195.071067,23.8464404 194.32911,24.2450396 C193.59843,24.6333892 192.766265,24.8292722 191.822469,24.8292722 C189.725144,24.8292722 188.11043,24.1436815 186.988474,22.7702224 C185.859752,21.3979021 185.29821,19.4265441 185.29821,16.8561483 L185.29821,6.53356652 L189.236896,6.53356652 L189.236896,14.5397172 C189.236896,16.9472567 189.49286,18.5951799 190.011553,19.4812091 C190.527991,20.3683772 191.421046,20.8102529 192.689589,20.8102529 C193.987449,20.8102529 194.913204,20.3114344 195.471363,19.3194917 C196.03967,18.3252713 196.322697,16.6409047 196.322697,14.2629755 L196.322697,6.53356652 L200.156516,6.53356652 L200.156516,24.3577863 L196.293379,24.3577863 Z M166.996233,15.3653871 C166.996233,14.1115078 167.209348,12.9259597 167.634451,11.8019098 C168.069702,10.6676102 168.6989,9.66200123 169.519788,8.78622173 C170.362101,7.88994284 171.30928,7.20549098 172.364708,6.72831073 C173.41788,6.24429735 174.513902,5.99830467 175.648261,5.99830467 C176.853659,5.99830467 177.964339,6.21468712 178.978046,6.64859088 C180.003029,7.06882838 180.94006,7.70658718 181.791393,8.56186729 C182.663023,9.45700733 183.338452,10.4933654 183.813169,11.6709415 C184.290141,12.8394067 184.528064,14.0363433 184.529191,15.2697233 C184.529191,16.6295162 184.321714,17.8708681 183.904504,18.9960569 C183.491805,20.1178291 182.86599,21.1348266 182.037209,22.042494 C181.203917,22.9604112 180.256738,23.6585293 179.191161,24.1334318 C178.125585,24.5935292 176.973184,24.8292722 175.72381,24.8292722 C174.468798,24.8292722 173.322035,24.5889738 172.285776,24.1152101 C171.2529,23.6391688 170.310231,22.9273844 169.460025,21.9775793 C168.648158,21.0482736 168.035874,20.024443 167.617537,18.9151982 C167.202582,17.7900094 166.996233,16.6078779 166.996233,15.3653871 L166.996233,15.3653871 Z M171.00934,15.334638 C171.00934,16.9859778 171.43557,18.2967999 172.285776,19.2716598 C173.139365,20.2305757 174.296276,20.7145891 175.755383,20.7145891 C177.194192,20.7145891 178.337573,20.220326 179.191161,19.238633 C180.053771,18.2455514 180.482256,16.9108134 180.484512,15.2355576 C180.484512,13.7345467 180.032347,12.5034445 179.130271,11.5399731 C178.238345,10.5685298 177.114133,10.0833776 175.755383,10.0833776 C174.353783,10.0833776 173.214913,10.5753629 172.33539,11.557056 C171.451356,12.5296381 171.00934,13.7880729 171.00934,15.334638 L171.00934,15.334638 Z M168.005429,10.1460146 C166.495581,10.2792606 165.441281,10.6983593 164.843656,11.4146991 C164.244903,12.1230669 163.944963,13.4111119 163.944963,15.2697233 L163.944963,24.3577863 L160.052509,24.3577863 L160.052509,6.53356652 L163.699148,6.53356652 L163.699148,8.59261638 C164.290007,7.79427902 164.934991,7.2100464 165.636354,6.84219623 C166.334335,6.46409637 167.124778,6.27732415 168.005429,6.27732415 L168.005429,10.1460146 Z M144.550347,15.1376161 C144.550347,16.6944309 145.03634,17.9950033 146.009454,19.0427499 C146.991588,20.0927743 148.196986,20.6155087 149.626775,20.6155087 C150.933657,20.6155087 152.083802,20.0859411 153.077213,19.0279448 C154.083027,17.9699485 154.583678,16.7388463 154.583678,15.334638 C154.583678,13.8085723 154.09543,12.514833 153.109913,11.4443093 C152.126651,10.3669525 150.953953,9.8248575 149.59633,9.8248575 C148.196986,9.8248575 147.006247,10.3373423 146.022985,11.3634506 C145.039723,12.3906978 144.550347,13.6491326 144.550347,15.1376161 L144.550347,15.1376161 Z M154.950146,6.53356652 L158.429901,6.53356652 L158.429901,21.4081518 C158.429901,24.4990043 157.655244,26.9247655 156.104803,28.6842964 C154.564509,30.4461051 152.446888,31.3253012 149.748555,31.3253012 C147.73129,31.3253012 146.043282,30.8173719 144.685658,29.8015132 C143.326908,28.7993208 142.326732,27.3017265 141.689641,25.3155633 L145.444529,25.3155633 C145.852718,26.1150395 146.427791,26.7402709 147.179896,27.1935352 C147.929746,27.6479384 148.767549,27.8757094 149.68992,27.8757094 C151.239235,27.8757094 152.496502,27.3358921 153.460595,26.2539799 C154.433708,25.1857339 154.919701,23.7689982 154.919701,22.0094672 C154.170979,22.66317 153.310625,23.2940957 152.351042,23.7291383 C151.384694,24.1470981 150.330394,24.3577863 149.185886,24.3577863 C148.074078,24.3577863 147.011885,24.1539312 146.009454,23.7450823 C145.016043,23.3316779 144.13201,22.7428899 143.361863,21.9775793 C142.529699,21.1348266 141.879077,20.1303565 141.400977,18.9641689 C140.924005,17.7957037 140.686083,16.6078779 140.686083,15.3972751 C140.686083,12.6970498 141.491185,10.472866 143.088985,8.72244585 C144.690169,6.96177601 146.720966,6.08030223 149.185886,6.08030223 C150.312352,6.08030223 151.344101,6.29326812 152.287897,6.71236676 C153.240714,7.13374311 154.12813,7.78289047 154.950146,8.65639226 L154.950146,6.53356652 Z M36.6666667,15.3608317 C36.6666667,10.2394007 40.5207828,6.08941307 45.2792294,6.08941307 C47.1893736,6.08941307 48.9574409,6.75792096 50.3861025,7.89791482 L50.3861025,6.49484545 L54.0755899,6.49484545 L54.0755899,24.218846 L50.3861025,24.218846 L50.3861025,22.8214709 C48.9574409,23.9603259 47.1893736,24.6276949 45.2792294,24.6276949 C40.5219104,24.6276949 36.6666667,20.4788461 36.6666667,15.3608317 L36.6666667,15.3608317 Z M40.3978751,15.4029693 C40.3978751,18.4232128 42.6654666,20.8683345 45.4641548,20.8683345 C48.262843,20.8683345 50.5315621,18.4232128 50.5315621,15.4029693 C50.5315621,12.3838647 48.262843,9.938743 45.4641548,9.938743 C42.6654666,9.938743 40.3978751,12.3838647 40.3978751,15.4029693 L40.3978751,15.4029693 Z M95.2057075,0.602409639 L98.8940674,0.602409639 L98.8940674,24.218846 L95.2057075,24.218846 L95.2057075,22.8533588 C93.7815563,23.9705756 92.0292753,24.6276949 90.136045,24.6276949 C85.3798537,24.6276949 81.5246099,20.4788461 81.5246099,15.3608317 C81.5246099,10.2394007 85.3798537,6.08941307 90.136045,6.08941307 C92.0292753,6.08941307 93.7815563,6.74767126 95.2057075,7.86830459 L95.2057075,0.602409639 Z M85.2219905,15.3608317 C85.2219905,18.3787975 87.4907096,20.8261969 90.2893978,20.8261969 C93.088086,20.8261969 95.3556775,18.3787975 95.3556775,15.3608317 C95.3556775,12.3405882 93.088086,9.89204994 90.2893978,9.89204994 C87.4907096,9.89204994 85.2219905,12.3405882 85.2219905,15.3608317 L85.2219905,15.3608317 Z M80.230132,14.0044554 L80.230132,24.218846 L76.5440273,24.218846 L76.5440273,13.6810206 C76.4966684,12.7118549 76.3342949,11.3281461 75.789667,10.7336638 C74.8571468,9.71780513 73.9731131,9.8373849 73.0665275,10.0412399 C72.1948974,10.2382619 70.1516971,11.0331827 69.9949616,15.4223299 L69.9949616,24.218846 L66.3032189,24.218846 L66.3032189,13.8564042 C66.2660083,12.8883775 66.1104004,11.3634506 65.5308171,10.7336638 C64.5994244,9.71780513 63.7142632,9.8373849 62.80655,10.0412399 C61.8999645,10.2439561 59.7270909,11.0980974 59.7270909,15.9735357 L59.7180701,16.3801069 L59.7180701,24.218846 L56.0274551,24.218846 L56.0274551,6.49484545 L59.7180701,6.49484545 L59.7180701,7.73619741 C60.609997,6.96747028 62.0691036,6.10421818 64.1224522,6.10421818 C66.2716463,6.10421818 67.9055299,7.15652021 68.8933023,8.94793914 C68.9045782,8.92060662 70.6895595,6.10421818 74.3801745,6.10421818 C78.0674068,6.10421818 80.2335148,9.20532037 80.2335148,13.8119889 L80.230132,14.0044554 Z M100.109614,15.3608317 C100.109614,10.2394007 103.964857,6.08941307 108.719921,6.08941307 C113.47273,6.08941307 117.330229,10.2394007 117.330229,15.3608317 C117.330229,15.7184322 117.308804,16.0748938 117.272721,16.4222446 L103.786698,16.4222446 C104.246756,18.9334199 106.296722,20.8261969 108.758259,20.8261969 C110.787929,20.8261969 112.534572,19.5415684 113.347567,17.6818182 L116.557827,19.2067451 C115.201331,22.4057888 112.198549,24.6276949 108.719921,24.6276949 C103.964857,24.6276949 100.109614,20.4788461 100.109614,15.3608317 L100.109614,15.3608317 Z M113.207745,12.7403263 C112.346263,11.0445712 110.676297,9.89204994 108.758259,9.89204994 C106.837967,9.89204994 105.170255,11.0445712 104.309901,12.7403263 L113.207745,12.7403263 Z M118.423995,15.3608317 C118.423995,10.2394007 122.276983,6.08941307 127.032047,6.08941307 C130.291921,6.08941307 133.12782,8.0402717 134.59031,10.9147417 L131.592037,12.9715139 C130.768894,11.1470682 129.038037,9.89204994 127.032047,9.89204994 C124.233359,9.89204994 121.963512,12.3405882 121.963512,15.3608317 C121.963512,18.3787975 124.233359,20.8261969 127.032047,20.8261969 C129.018868,20.8261969 130.738449,19.5905392 131.569485,17.7957037 L134.567758,19.851337 C133.097375,22.7007522 130.275007,24.6276949 127.032047,24.6276949 C122.276983,24.6276949 118.423995,20.4788461 118.423995,15.3608317 L118.423995,15.3608317 Z" id="Fill-1" fill="#221F1F"></path>
                <path d="M17.3043613,16.8988675 C17.3043613,15.760232 18.1867367,14.8390636 19.2718801,14.8390636 L31.0925905,14.8390636 C32.1810763,14.8390636 33.0601093,15.760232 33.0601093,16.8988675 L33.0601093,29.2666125 C33.0601093,30.4030176 32.1810763,31.3253012 31.0925905,31.3253012 L19.2718801,31.3253012 C18.1867367,31.3253012 17.3043613,30.4030176 17.3043613,29.2666125 L17.3043613,16.8988675 Z M0,3.73262783 C0,1.67282395 1.59763418,0 3.56738121,0 L24.795639,0 C26.7642719,0 28.3619061,1.67282395 28.3619061,3.73262783 L28.3619061,13.1907744 L25.2100881,13.1907744 L25.2100881,11.7577219 C25.2100881,10.7294928 24.411271,9.8919656 23.4286257,9.8919656 L11.2380307,9.8919656 C10.2520431,9.8919656 9.45545419,10.7294928 9.45545419,11.7577219 L9.45545419,24.5124469 C9.45545419,25.5451369 10.2520431,26.3793184 11.2380307,26.3793184 L15.755748,26.3793184 L15.755748,29.1595518 L15.7902854,29.6758968 L3.56738121,29.6758968 C1.59763418,29.6758968 0,28.0064185 0,25.9443842 L0,3.73262783 L0,3.73262783 Z" id="Fill-3" fill="#31AE55"></path>
                <g id="Group-7" transform="translate(0.000000, 38.554217)" fill="#31AE55">
                    <path d="M215.521138,6.83185542 C215.554985,7.18382329 215.641856,7.45257831 215.788523,7.64036948 C216.052523,7.97996787 216.511703,8.14639357 217.170574,8.14639357 C217.560933,8.14639357 217.907292,8.06542972 218.20401,7.89787952 C218.500728,7.72470683 218.648523,7.4615743 218.648523,7.10510843 C218.648523,6.83747791 218.530062,6.63281928 218.29201,6.49338153 C218.138574,6.40679518 217.836215,6.30783936 217.38719,6.19538956 L216.547805,5.98510843 C216.014164,5.85354217 215.619292,5.70510843 215.364318,5.54205622 C214.909651,5.25418474 214.681754,4.86398394 214.681754,4.35908434 C214.681754,3.76759839 214.897241,3.28856225 215.321446,2.92085141 C215.752421,2.55201606 216.328933,2.37097189 217.053241,2.37097189 C217.999805,2.37097189 218.682369,2.64872289 219.102062,3.20085141 C219.362677,3.55281928 219.489036,3.9306506 219.482267,4.33322088 L218.484933,4.33322088 C218.464626,4.09707631 218.382267,3.88117269 218.233344,3.68663454 C217.989651,3.41000803 217.567703,3.27057028 216.969754,3.27057028 C216.574882,3.27057028 216.269138,3.34478715 216.061549,3.49996787 C215.858472,3.6517751 215.756933,3.85193574 215.756933,4.1015743 C215.756933,4.37257831 215.89119,4.59297992 216.160831,4.75828112 C216.316523,4.85498795 216.547805,4.9404498 216.855805,5.01691566 L217.551908,5.18334137 C218.31119,5.36663454 218.82001,5.54430522 219.076113,5.71522892 C219.489036,5.98510843 219.694369,6.40679518 219.694369,6.98366265 C219.694369,7.54141365 219.482267,8.02607229 219.053549,8.42751807 C218.6316,8.83346185 217.985138,9.03587149 217.119805,9.03587149 C216.183395,9.03587149 215.52001,8.82671486 215.126267,8.40277912 C214.740421,7.98109237 214.533959,7.45707631 214.50801,6.83185542 L215.521138,6.83185542 Z M210.350574,5.1653494 C210.305446,4.70767871 210.207292,4.34334137 210.050472,4.07346185 C209.761651,3.56631325 209.276523,3.31217671 208.604113,3.31217671 C208.117856,3.31217671 207.709446,3.4853494 207.382267,3.83956627 C207.055087,4.18591165 206.877959,4.62896386 206.861036,5.1653494 L210.350574,5.1653494 Z M209.962472,2.70944578 C210.379908,2.91860241 210.69919,3.18848193 210.920318,3.51795984 C211.130164,3.83394378 211.27119,4.20165462 211.34001,4.62221687 C211.405446,4.91233735 211.434779,5.37000803 211.434779,6.00085141 L206.831703,6.00085141 C206.848626,6.63731727 207.002062,7.14671486 207.284113,7.53354217 C207.562779,7.91699598 207.999395,8.10703614 208.588318,8.10703614 C209.142267,8.10703614 209.582267,7.92711647 209.909446,7.56390361 C210.097856,7.35362249 210.230985,7.10960643 210.308831,6.83185542 L211.347908,6.83185542 C211.318574,7.06350201 211.228318,7.31876305 211.072626,7.60438554 C210.920318,7.88438554 210.747703,8.11490763 210.552523,8.29370281 C210.235497,8.60743775 209.839497,8.81771888 209.364523,8.92567068 C209.109549,8.98864257 208.820728,9.01900402 208.503703,9.01900402 C207.7196,9.01900402 207.057344,8.73563052 206.515805,8.17225703 C205.967497,7.60213655 205.700113,6.80824096 205.700113,5.78382329 C205.700113,4.77852209 205.970882,3.96326104 206.51919,3.33691566 C207.066369,2.70944578 207.783908,2.39458635 208.667292,2.39458635 C209.111805,2.39458635 209.546164,2.49916466 209.962472,2.70944578 L209.962472,2.70944578 Z M201.248215,8.79747791 L202.303087,8.79747791 L202.303087,0.207437751 L201.248215,0.207437751 L201.248215,8.79747791 Z M196.972318,2.53514859 L198.141138,2.53514859 C197.992215,2.93659438 197.659395,3.85193574 197.150574,5.28342169 C196.765856,6.35844177 196.445446,7.2366747 196.189344,7.91474699 C195.576728,9.51153414 195.144626,10.4875984 194.895292,10.8384418 C194.644831,11.1881606 194.216113,11.3647068 193.605754,11.3647068 C193.456831,11.3647068 193.340626,11.3579598 193.259395,11.3467149 C193.179292,11.3354699 193.082267,11.3129799 192.966062,11.2826185 L192.966062,10.3222972 C193.149959,10.3728996 193.280831,10.403261 193.36319,10.4156305 C193.446677,10.428 193.518882,10.4336225 193.582062,10.4336225 C193.777241,10.4336225 193.920523,10.4021365 194.008523,10.3357912 C194.105549,10.2705703 194.184523,10.1941044 194.244318,10.0996466 C194.264626,10.0704096 194.335703,9.90960643 194.456421,9.62173494 C194.578267,9.33386345 194.662882,9.11908434 194.719292,8.97852209 L192.397446,2.53514859 L193.593344,2.53514859 L195.275497,7.63362249 L196.972318,2.53514859 Z M187.757138,0.785429719 L188.827805,0.785429719 L188.827805,2.53514859 L189.829651,2.53514859 L189.829651,3.39314056 L188.827805,3.39314056 L188.827805,7.47956627 C188.827805,7.70109237 188.90001,7.84615261 189.048933,7.91924498 C189.131292,7.9631004 189.268933,7.98334137 189.4596,7.98334137 L189.625446,7.98334137 L189.829651,7.9664739 L189.829651,8.79747791 C189.710062,8.83233735 189.57919,8.85707631 189.44719,8.87169478 C189.318574,8.88856225 189.177549,8.89643373 189.026369,8.89643373 C188.532215,8.89643373 188.197138,8.77161446 188.022267,8.5219759 C187.846267,8.27121285 187.757138,7.94061044 187.757138,7.53916466 L187.757138,3.39314056 L186.908728,3.39314056 L186.908728,2.53514859 L187.757138,2.53514859 L187.757138,0.785429719 Z M180.005241,6.83185542 C180.033446,7.18382329 180.123703,7.45257831 180.269241,7.64036948 C180.534369,7.97996787 180.995805,8.14639357 181.653549,8.14639357 C182.047292,8.14639357 182.386882,8.06542972 182.686985,7.89787952 C182.981446,7.72470683 183.132626,7.4615743 183.132626,7.10510843 C183.132626,6.83747791 183.011908,6.63281928 182.773856,6.49338153 C182.622677,6.40679518 182.320318,6.30783936 181.870164,6.19538956 L181.030779,5.98510843 C180.49601,5.85354217 180.101138,5.70510843 179.848421,5.54205622 C179.393754,5.25418474 179.164728,4.86398394 179.164728,4.35908434 C179.164728,3.76759839 179.379087,3.28856225 179.804421,2.92085141 C180.235395,2.55201606 180.811908,2.37097189 181.538472,2.37097189 C182.481651,2.37097189 183.1676,2.64872289 183.583908,3.20085141 C183.845651,3.55281928 183.973138,3.9306506 183.965241,4.33322088 L182.967908,4.33322088 C182.9476,4.09707631 182.865241,3.88117269 182.714062,3.68663454 C182.474882,3.41000803 182.049549,3.27057028 181.454985,3.27057028 C181.056728,3.27057028 180.752113,3.34478715 180.544523,3.49996787 C180.340318,3.6517751 180.239908,3.85193574 180.239908,4.1015743 C180.239908,4.37257831 180.376421,4.59297992 180.643805,4.75828112 C180.800626,4.85498795 181.030779,4.9404498 181.337651,5.01691566 L182.032626,5.18334137 C182.791908,5.36663454 183.2996,5.54430522 183.561344,5.71522892 C183.973138,5.98510843 184.177344,6.40679518 184.177344,6.98366265 C184.177344,7.54141365 183.961856,8.02607229 183.536523,8.42751807 C183.114574,8.83346185 182.470369,9.03587149 181.600523,9.03587149 C180.666369,9.03587149 180.001856,8.82671486 179.611497,8.40277912 C179.224523,7.98109237 179.016933,7.45707631 178.988728,6.83185542 L180.005241,6.83185542 Z M174.833549,5.1653494 C174.789549,4.70767871 174.689138,4.34334137 174.533446,4.07346185 C174.242369,3.56631325 173.759497,3.31217671 173.083703,3.31217671 C172.599703,3.31217671 172.194677,3.4853494 171.862985,3.83956627 C171.535805,4.18591165 171.359805,4.62896386 171.340626,5.1653494 L174.833549,5.1653494 Z M174.447703,2.70944578 C174.865138,2.91860241 175.182164,3.18848193 175.402164,3.51795984 C175.61201,3.83394378 175.751908,4.20165462 175.821856,4.62221687 C175.887292,4.91233735 175.918882,5.37000803 175.918882,6.00085141 L171.312421,6.00085141 C171.3316,6.63731727 171.481651,7.14671486 171.764831,7.53354217 C172.046882,7.91699598 172.482369,8.10703614 173.072421,8.10703614 C173.622985,8.10703614 174.065241,7.92711647 174.392421,7.56390361 C174.578574,7.35362249 174.713959,7.10960643 174.791805,6.83185542 L175.830882,6.83185542 C175.801549,7.06350201 175.709036,7.31876305 175.554472,7.60438554 C175.402164,7.88438554 175.229549,8.11490763 175.038882,8.29370281 C174.717344,8.60743775 174.320215,8.81771888 173.847497,8.92567068 C173.594779,8.98864257 173.303703,9.01900402 172.984421,9.01900402 C172.201446,9.01900402 171.53919,8.73563052 170.998779,8.17225703 C170.450472,7.60213655 170.180831,6.80824096 170.180831,5.78382329 C170.180831,4.77852209 170.452728,3.96326104 171.002164,3.33691566 C171.550472,2.70944578 172.265754,2.39458635 173.14801,2.39458635 C173.594779,2.39458635 174.025754,2.49916466 174.447703,2.70944578 L174.447703,2.70944578 Z M165.5236,0.623502008 C165.770677,0.263662651 166.245651,0.0859919679 166.950779,0.0859919679 L167.153856,0.0904899598 L167.397549,0.108481928 L167.397549,1.06767871 C167.285856,1.05980723 167.204626,1.05418474 167.153856,1.05418474 L167.020728,1.04968675 C166.69919,1.04968675 166.507395,1.1340241 166.444215,1.3015743 C166.385549,1.46462651 166.351703,1.88743775 166.351703,2.56438554 L167.397549,2.56438554 L167.397549,3.39314056 L166.340421,3.39314056 L166.340421,8.79747791 L165.294574,8.79747791 L165.294574,3.39314056 L164.420215,3.39314056 L164.420215,2.56438554 L165.294574,2.56438554 L165.294574,1.5804498 C165.310369,1.14302008 165.387087,0.825911647 165.5236,0.623502008 L165.5236,0.623502008 Z M160.1996,1.40165462 L161.274779,1.40165462 L161.274779,0.207437751 L160.1996,0.207437751 L160.1996,1.40165462 Z M160.1996,8.79635341 L161.274779,8.79635341 L161.274779,2.56438554 L160.1996,2.56438554 L160.1996,8.79635341 Z M155.399087,8.79747791 L156.451703,8.79747791 L156.451703,0.207437751 L155.399087,0.207437751 L155.399087,8.79747791 Z M142.326574,6.83185542 C142.354779,7.18382329 142.443908,7.45257831 142.58719,7.64036948 C142.855703,7.97996787 143.317138,8.14639357 143.974882,8.14639357 C144.364113,8.14639357 144.708215,8.06542972 145.006062,7.89787952 C145.302779,7.72470683 145.451703,7.4615743 145.451703,7.10510843 C145.451703,6.83747791 145.334369,6.63281928 145.094062,6.49338153 C144.940626,6.40679518 144.641651,6.30783936 144.192626,6.19538956 L143.353241,5.98510843 C142.817344,5.85354217 142.422472,5.70510843 142.165241,5.54205622 C141.713959,5.25418474 141.486062,4.86398394 141.486062,4.35908434 C141.486062,3.76759839 141.698164,3.28856225 142.124626,2.92085141 C142.552215,2.55201606 143.130985,2.37097189 143.856421,2.37097189 C144.802985,2.37097189 145.484421,2.64872289 145.904113,3.20085141 C146.164728,3.55281928 146.292215,3.9306506 146.28319,4.33322088 L145.288113,4.33322088 C145.267805,4.09707631 145.18319,3.88117269 145.035395,3.68663454 C144.793959,3.41000803 144.370882,3.27057028 143.772933,3.27057028 C143.374677,3.27057028 143.072318,3.34478715 142.865856,3.49996787 C142.661651,3.6517751 142.561241,3.85193574 142.561241,4.1015743 C142.561241,4.37257831 142.693241,4.59297992 142.96401,4.75828112 C143.121959,4.85498795 143.353241,4.9404498 143.6556,5.01691566 L144.352831,5.18334137 C145.114369,5.36663454 145.622062,5.54430522 145.880421,5.71522892 C146.292215,5.98510843 146.496421,6.40679518 146.496421,6.98366265 C146.496421,7.54141365 146.28319,8.02607229 145.858985,8.42751807 C145.434779,8.83346185 144.789446,9.03587149 143.921856,9.03587149 C142.985446,9.03587149 142.324318,8.82671486 141.931703,8.40277912 C141.546985,7.98109237 141.337138,7.45707631 141.310062,6.83185542 L142.326574,6.83185542 Z M137.303805,2.70382329 C137.518164,2.66896386 137.679497,2.54751807 137.79119,2.34173494 C137.906267,2.13482731 137.961549,1.89755823 137.961549,1.62880321 C137.957036,1.53546988 137.951395,1.51185542 137.944626,1.48374297 L137.303805,1.48374297 L137.303805,0.207437751 L138.561754,0.207437751 L138.561754,1.38253815 C138.561754,1.88181526 138.454574,2.308 138.250369,2.65546988 C138.043908,3.00631325 137.725754,3.2031004 137.303805,3.25370281 L137.303805,2.70382329 Z M126.729138,2.53514859 L127.936318,7.47057028 L129.163805,2.53514859 L130.347292,2.53514859 L131.580421,7.43908434 L132.86319,2.53514859 L133.920318,2.53514859 L132.098267,8.79747791 L130.999395,8.79747791 L129.722267,3.94976707 L128.484626,8.79747791 L127.385754,8.79747791 L125.574985,2.53514859 L126.729138,2.53514859 Z M121.983908,3.15924498 C122.543497,3.69787952 122.824421,4.4917751 122.824421,5.53530924 C122.824421,6.54285944 122.578472,7.37948594 122.085446,8.03731727 C121.592421,8.69514859 120.827497,9.02462651 119.791805,9.02462651 C118.926472,9.02462651 118.240523,8.73563052 117.732831,8.15314056 C117.226267,7.56840161 116.967908,6.78462651 116.967908,5.80293976 C116.967908,4.75040964 117.235292,3.91265863 117.773446,3.28856225 C118.309344,2.66446586 119.029138,2.35522892 119.932831,2.35522892 C120.740626,2.35522892 121.425446,2.62285944 121.983908,3.15924498 L121.983908,3.15924498 Z M121.327292,7.32663454 C121.589036,6.80036948 121.721036,6.21000803 121.721036,5.56229719 C121.721036,4.97868273 121.625138,4.50302008 121.438985,4.13755823 C121.142267,3.55956627 120.630062,3.27057028 119.903497,3.27057028 C119.255908,3.27057028 118.789959,3.51795984 118.494369,4.00711647 C118.202164,4.49852209 118.054369,5.09225703 118.054369,5.78382329 C118.054369,6.4528996 118.202164,7.00615261 118.494369,7.45257831 C118.789959,7.89787952 119.253651,8.12053012 119.892215,8.12053012 C120.590574,8.12053012 121.070062,7.85514859 121.327292,7.32663454 L121.327292,7.32663454 Z M111.263703,2.53514859 L112.265549,2.53514859 L112.265549,3.61579116 C112.349036,3.40663454 112.549856,3.15137349 112.871395,2.85000803 C113.191805,2.54526908 113.562985,2.39458635 113.979292,2.39458635 L114.078574,2.40245783 L114.321138,2.42494779 L114.321138,3.53370281 C114.255703,3.52245783 114.199292,3.51571084 114.141754,3.51233735 L113.974779,3.50446586 C113.442267,3.50446586 113.033856,3.67538956 112.749549,4.02061044 C112.461856,4.35908434 112.318574,4.75040964 112.318574,5.19683534 L112.318574,8.79747791 L111.263703,8.79747791 L111.263703,2.53514859 Z M105.09919,2.53514859 L106.103292,2.53514859 L106.103292,3.61579116 C106.183395,3.40663454 106.386472,3.15137349 106.706882,2.85000803 C107.028421,2.54526908 107.398472,2.39458635 107.817036,2.39458635 L107.91519,2.40245783 L108.156626,2.42494779 L108.156626,3.53370281 C108.092318,3.52245783 108.035908,3.51571084 107.980626,3.51233735 L107.809138,3.50446586 C107.277754,3.50446586 106.868215,3.67538956 106.583908,4.02061044 C106.2996,4.35908434 106.156318,4.75040964 106.156318,5.19683534 L106.156318,8.79747791 L105.09919,8.79747791 L105.09919,2.53514859 Z M100.813138,3.15924498 C101.373856,3.69787952 101.652523,4.4917751 101.652523,5.53530924 C101.652523,6.54285944 101.405446,7.37948594 100.912421,8.03731727 C100.420523,8.69514859 99.6567282,9.02462651 98.6176513,9.02462651 C97.7545744,9.02462651 97.0697538,8.73563052 96.5586769,8.15314056 C96.0498564,7.56840161 95.7971385,6.78462651 95.7971385,5.80293976 C95.7971385,4.75040964 96.0656513,3.91265863 96.6015487,3.28856225 C97.1363179,2.66446586 97.8561128,2.35522892 98.7586769,2.35522892 C99.5698564,2.35522892 100.253549,2.62285944 100.813138,3.15924498 L100.813138,3.15924498 Z M100.156523,7.32663454 C100.417138,6.80036948 100.54801,6.21000803 100.54801,5.56229719 C100.54801,4.97868273 100.455497,4.50302008 100.267087,4.13755823 C99.9703692,3.55956627 99.4581641,3.27057028 98.7316,3.27057028 C98.0862667,3.27057028 97.6180615,3.51795984 97.3213436,4.00711647 C97.0291385,4.49852209 96.8813436,5.09225703 96.8813436,5.78382329 C96.8813436,6.4528996 97.0291385,7.00615261 97.3213436,7.45257831 C97.6180615,7.89787952 98.0817538,8.12053012 98.7203179,8.12053012 C99.4198051,8.12053012 99.8981641,7.85514859 100.156523,7.32663454 L100.156523,7.32663454 Z M84.0536513,2.53514859 L85.0983692,2.53514859 L85.0983692,3.42350201 C85.3477026,3.11538956 85.5744718,2.89273896 85.7786769,2.74992771 C86.1295487,2.51378313 86.5232923,2.39458635 86.9644205,2.39458635 C87.4664718,2.39458635 87.8681128,2.51603213 88.1727282,2.76229719 C88.3442154,2.90398394 88.5010359,3.10864257 88.6431897,3.38302008 C88.8789846,3.04791968 89.1508821,2.79828112 89.4701641,2.63860241 C89.7871897,2.4777992 90.1414462,2.39458635 90.5374462,2.39458635 C91.3813436,2.39458635 91.9567282,2.6993253 92.2602154,3.30767871 C92.4271897,3.63490763 92.5084205,4.07571084 92.5084205,4.62896386 L92.5084205,8.79747791 L91.4118051,8.79747791 L91.4118051,4.44679518 C91.4118051,4.03185542 91.3046256,3.74285944 91.0936513,3.58655422 C90.8860615,3.43137349 90.6344718,3.35265863 90.333241,3.35265863 C89.9169333,3.35265863 89.5604205,3.48984739 89.2591897,3.76872289 C88.9590872,4.0442249 88.8135487,4.50864257 88.8135487,5.15635341 L88.8135487,8.79747791 L87.7383692,8.79747791 L87.7383692,4.70767871 C87.7383692,4.28374297 87.6864718,3.97675502 87.5871897,3.78109237 C87.4247282,3.4853494 87.1268821,3.34141365 86.6891385,3.34141365 C86.2897538,3.34141365 85.9264718,3.49434538 85.5959077,3.80470683 C85.2721128,4.11169478 85.1107795,4.67057028 85.1107795,5.47683534 L85.1107795,8.79747791 L84.0536513,8.79747791 L84.0536513,2.53514859 Z M79.7980615,3.15924498 C80.3565231,3.69787952 80.6351897,4.4917751 80.6351897,5.53530924 C80.6351897,6.54285944 80.389241,7.37948594 79.8984718,8.03731727 C79.4043179,8.69514859 78.6393949,9.02462651 77.6014462,9.02462651 C76.7406256,9.02462651 76.0535487,8.73563052 75.5436,8.15314056 C75.0359077,7.56840161 74.7809333,6.78462651 74.7809333,5.80293976 C74.7809333,4.75040964 75.0517026,3.91265863 75.5842154,3.28856225 C76.1189846,2.66446586 76.8399077,2.35522892 77.7436,2.35522892 C78.5547795,2.35522892 79.2396,2.62285944 79.7980615,3.15924498 L79.7980615,3.15924498 Z M79.1414462,7.32663454 C79.4031897,6.80036948 79.5340615,6.21000803 79.5340615,5.56229719 C79.5340615,4.97868273 79.4404205,4.50302008 79.2508821,4.13755823 C78.9552923,3.55956627 78.4430872,3.27057028 77.7142667,3.27057028 C77.0700615,3.27057028 76.5996,3.51795984 76.3073949,4.00711647 C76.0129333,4.49852209 75.8662667,5.09225703 75.8662667,5.78382329 C75.8662667,6.4528996 76.0129333,7.00615261 76.3073949,7.45257831 C76.5996,7.89787952 77.0666769,8.12053012 77.7029846,8.12053012 C78.4047282,8.12053012 78.8797026,7.85514859 79.1414462,7.32663454 L79.1414462,7.32663454 Z M69.9194974,0.785429719 L70.9867795,0.785429719 L70.9867795,2.53514859 L71.9908821,2.53514859 L71.9908821,3.39314056 L70.9867795,3.39314056 L70.9867795,7.47956627 C70.9867795,7.70109237 71.0634974,7.84615261 71.2112923,7.91924498 C71.2936513,7.9631004 71.4290359,7.98334137 71.6230872,7.98334137 L71.7844205,7.98334137 L71.9908821,7.9664739 L71.9908821,8.79747791 C71.8701641,8.83233735 71.7415487,8.85707631 71.6095487,8.87169478 C71.4820615,8.88856225 71.3399077,8.89643373 71.1887282,8.89643373 C70.6934462,8.89643373 70.3594974,8.77161446 70.1846256,8.5219759 C70.0074974,8.27121285 69.9194974,7.94061044 69.9194974,7.53916466 L69.9194974,3.39314056 L69.0688308,3.39314056 L69.0688308,2.53514859 L69.9194974,2.53514859 L69.9194974,0.785429719 Z M59.0007282,3.91490763 C58.6814462,3.5382008 58.2730359,3.35265863 57.7777538,3.35265863 C57.0320103,3.35265863 56.5220615,3.70012851 56.2501641,4.39394378 C56.1057538,4.76502811 56.0324205,5.25081124 56.0324205,5.84904418 C56.0324205,6.55635341 56.1757026,7.09273896 56.4622667,7.46382329 C56.7510872,7.83040964 57.1369333,8.01370281 57.6198051,8.01370281 C58.3824718,8.01370281 58.9138564,7.67297992 59.2241128,6.99040964 C59.3956,6.60470683 59.4813436,6.15265863 59.4813436,5.63988755 C59.4813436,4.86398394 59.3222667,4.28824096 59.0007282,3.91490763 L59.0007282,3.91490763 Z M58.8721128,2.78591165 C59.0718051,2.9231004 59.2748821,3.12101205 59.4813436,3.38302008 L59.4813436,2.59249799 L60.4549846,2.59249799 L60.4549846,8.28920482 C60.4549846,9.0842249 60.3387795,9.71281928 60.105241,10.1693655 C59.665241,11.0217349 58.8382667,11.4456707 57.6198051,11.4456707 C56.9485231,11.4456707 56.3765231,11.2938635 55.9162154,10.990249 C55.4536513,10.690008 55.1952923,10.2188434 55.1400103,9.57338153 L56.2151897,9.57338153 C56.265959,9.85675502 56.3674974,10.0737831 56.5198051,10.2222169 C56.7578564,10.4572369 57.1324205,10.5741847 57.6457538,10.5741847 C58.4546769,10.5741847 58.9860615,10.2908112 59.2353949,9.72181526 C59.3843179,9.38559036 59.4531385,8.78735743 59.4407282,7.92711647 C59.2308821,8.2453494 58.9770359,8.48486747 58.6769333,8.64004819 C58.3824718,8.79522892 57.9887282,8.87169478 57.5002154,8.87169478 C56.8199077,8.87169478 56.2230872,8.6355502 55.7108821,8.15314056 C55.2020615,7.67073092 54.945959,6.87458635 54.945959,5.76358233 C54.945959,4.7133012 55.2031897,3.89579116 55.7165231,3.30767871 C56.2321128,2.71844177 56.8537538,2.42494779 57.5837026,2.42494779 C58.0733436,2.42494779 58.5043179,2.54414458 58.8721128,2.78591165 L58.8721128,2.78591165 Z M46.5182667,2.53514859 L47.521241,2.53514859 L47.521241,3.42350201 C47.8202154,3.05916466 48.1338564,2.79378313 48.4655487,2.63522892 C48.7994974,2.4744257 49.1695487,2.39458635 49.5768308,2.39458635 C50.4681128,2.39458635 51.0683179,2.70382329 51.3842154,3.32342169 C51.5534462,3.66414458 51.6414462,4.14767871 51.6414462,4.77852209 L51.6414462,8.79747791 L50.5685231,8.79747791 L50.5685231,4.84824096 C50.5685231,4.46703614 50.5109846,4.16004819 50.3959077,3.92840161 C50.2097538,3.53707631 49.8690359,3.34141365 49.3771385,3.34141365 C49.1266769,3.34141365 48.9213436,3.36615261 48.7588821,3.41787952 C48.4700615,3.50446586 48.2162154,3.67426506 47.9984718,3.9328996 C47.8202154,4.13868273 47.7062667,4.35346185 47.6509846,4.57611245 C47.6013436,4.79426506 47.5753949,5.1068755 47.5753949,5.51844177 L47.5753949,8.79747791 L46.5182667,8.79747791 L46.5182667,2.53514859 Z M41.6872923,1.40165462 L42.7613436,1.40165462 L42.7613436,0.207437751 L41.6872923,0.207437751 L41.6872923,1.40165462 Z M41.6872923,8.79635341 L42.7613436,8.79635341 L42.7613436,2.56438554 L41.6872923,2.56438554 L41.6872923,8.79635341 Z M35.553241,2.53514859 L36.5550872,2.53514859 L36.5550872,3.61579116 C36.6385744,3.40663454 36.8416513,3.15137349 37.1609333,2.85000803 C37.4813436,2.54526908 37.8502667,2.39458635 38.2688308,2.39458635 L38.369241,2.40245783 L38.6095487,2.42494779 L38.6095487,3.53370281 C38.5463692,3.52245783 38.489959,3.51571084 38.4324205,3.51233735 L38.2643179,3.50446586 C37.7306769,3.50446586 37.3222667,3.67538956 37.0357026,4.02061044 C36.7513949,4.35908434 36.6081128,4.75040964 36.6081128,5.19683534 L36.6081128,8.79747791 L35.553241,8.79747791 L35.553241,2.53514859 Z M30.6906769,1.40165462 L31.7658564,1.40165462 L31.7658564,0.207437751 L30.6906769,0.207437751 L30.6906769,1.40165462 Z M30.6906769,8.79635341 L31.7658564,8.79635341 L31.7658564,2.56438554 L30.6906769,2.56438554 L30.6906769,8.79635341 Z M21.7654462,2.56438554 L22.793241,2.56438554 L22.793241,3.39314056 C23.0030872,3.10864257 23.233241,2.88936546 23.4848308,2.73193574 C23.837959,2.49916466 24.2576513,2.38221687 24.7405231,2.38221687 C25.4512923,2.38221687 26.0548821,2.65546988 26.5512923,3.20085141 C27.0465744,3.74285944 27.2959077,4.51876305 27.2959077,5.52968675 C27.2959077,6.89370281 26.9382667,7.86639357 26.2218564,8.45225703 C25.7705744,8.82334137 25.2414462,9.00775904 24.6401128,9.00775904 C24.1673949,9.00775904 23.7680103,8.90542972 23.4487282,8.69514859 C23.2603179,8.5815743 23.0516,8.37916466 22.8203179,8.09466667 L22.8203179,11.2938635 L21.7654462,11.2938635 L21.7654462,2.56438554 Z M25.7243179,7.47506827 C26.0537538,7.06350201 26.2173436,6.44502811 26.2173436,5.62864257 C26.2173436,5.12824096 26.1451385,4.69980723 26.0007282,4.34221687 C25.7265744,3.6517751 25.2267795,3.30767871 24.497959,3.30767871 C23.7680103,3.30767871 23.265959,3.67089157 22.9963179,4.40069076 C22.8507795,4.78976707 22.7797026,5.28454618 22.7797026,5.88615261 C22.7797026,6.36856225 22.8507795,6.78012851 22.9963179,7.11972691 C23.2704718,7.76518876 23.7702667,8.08904418 24.497959,8.08904418 C24.9909846,8.08904418 25.3993949,7.88438554 25.7243179,7.47506827 L25.7243179,7.47506827 Z M14.3046256,6.83185542 C14.3373436,7.18382329 14.4242154,7.45257831 14.5697538,7.64036948 C14.8348821,7.97996787 15.2951897,8.14639357 15.9540615,8.14639357 C16.3455487,8.14639357 16.6885231,8.06542972 16.985241,7.89787952 C17.281959,7.72470683 17.4308821,7.4615743 17.4308821,7.10510843 C17.4308821,6.83747791 17.3112923,6.63281928 17.0743692,6.49338153 C16.9220615,6.40679518 16.6208308,6.30783936 16.1695487,6.19538956 L15.3312923,5.98510843 C14.7953949,5.85354217 14.4016513,5.70510843 14.1455487,5.54205622 C13.6920103,5.25418474 13.4663692,4.86398394 13.4663692,4.35908434 C13.4663692,3.76759839 13.6784718,3.28856225 14.1038051,2.92085141 C14.5370359,2.55201606 15.1135487,2.37097189 15.8344718,2.37097189 C16.7821641,2.37097189 17.4647282,2.64872289 17.8844205,3.20085141 C18.1439077,3.55281928 18.2736513,3.9306506 18.2646256,4.33322088 L17.2650359,4.33322088 C17.2469846,4.09707631 17.161241,3.88117269 17.0145744,3.68663454 C16.7708821,3.41000803 16.3523179,3.27057028 15.7543692,3.27057028 C15.3538564,3.27057028 15.0514974,3.34478715 14.8439077,3.49996787 C14.6408308,3.6517751 14.5404205,3.85193574 14.5404205,4.1015743 C14.5404205,4.37257831 14.6746769,4.59297992 14.9443179,4.75828112 C15.1000103,4.85498795 15.3312923,4.9404498 15.6359077,5.01691566 L16.3342667,5.18334137 C17.0935487,5.36663454 17.601241,5.54430522 17.8596,5.71522892 C18.2713949,5.98510843 18.4767282,6.40679518 18.4767282,6.98366265 C18.4767282,7.54141365 18.2623692,8.02607229 17.8359077,8.42751807 C17.4150872,8.83346185 16.7674974,9.03587149 15.9021641,9.03587149 C14.9646256,9.03587149 14.301241,8.82671486 13.9120103,8.40277912 C13.5250359,7.98109237 13.3151897,7.45707631 13.2903692,6.83185542 L14.3046256,6.83185542 Z M4.83108718,2.53514859 L5.83518974,2.53514859 L5.83518974,3.42350201 C6.13190769,3.05916466 6.44667692,2.79378313 6.77949744,2.63522892 C7.11118974,2.4744257 7.48236923,2.39458635 7.88965128,2.39458635 C8.78093333,2.39458635 9.38339487,2.70382329 9.69590769,3.32342169 C9.86739487,3.66414458 9.95313846,4.14767871 9.95539487,4.77852209 L9.95539487,8.79747791 L8.88021538,8.79747791 L8.88021538,4.84824096 C8.88021538,4.46703614 8.82380513,4.16004819 8.70985641,3.92840161 C8.52257436,3.53707631 8.18185641,3.34141365 7.69108718,3.34141365 C7.43836923,3.34141365 7.2330359,3.36615261 7.07283077,3.41787952 C6.78288205,3.50446586 6.5301641,3.67426506 6.3101641,3.9328996 C6.1341641,4.13868273 6.01908718,4.35346185 5.96493333,4.57611245 C5.9130359,4.79426506 5.88821538,5.1068755 5.88821538,5.51844177 L5.88821538,8.79747791 L4.83108718,8.79747791 L4.83108718,2.53514859 Z M0.000112820513,1.40165462 L1.07529231,1.40165462 L1.07529231,0.207437751 L0.000112820513,0.207437751 L0.000112820513,1.40165462 Z M0.000112820513,8.79635341 L1.07529231,8.79635341 L1.07529231,2.56438554 L0.000112820513,2.56438554 L0.000112820513,8.79635341 Z" id="Fill-5"></path>
                </g>
            </g>
        </g>
    </g>
</svg>