<?xml version="1.0" encoding="UTF-8"?>
<svg width="180px" height="60px" viewBox="0 0 180 60" version="1.1" xmlns="http://www.w3.org/2000/svg" xmlns:xlink="http://www.w3.org/1999/xlink">
    <!-- Generator: Sketch 43.1 (39012) - http://www.bohemiancoding.com/sketch -->
    <title>logo/amdec-property</title>
    <desc>Created with Sketch.</desc>
    <defs></defs>
    <g id="Symbols" stroke="none" stroke-width="1" fill="none" fill-rule="evenodd">
        <g id="logo/amdec-property">
            <g id="Group-2">
                <path d="M35.2730019,16.6906889 L31.2707084,16.6953029 L28.1115771,16.6989282 L20.2894384,16.7084857 C19.5622896,16.7094744 18.9680106,17.3033575 18.9690022,18.0284091 L18.9818925,28.8494746 L18.9865199,32.6681895 L18.9871809,32.969086 C18.9878419,33.693808 19.583443,34.2863729 20.3105918,34.2857137 L35.2941553,34.2675874 C36.0216347,34.2665987 36.6155831,33.6727156 36.6149221,32.947664 L36.5967433,18.0073167 C36.5957518,17.2822651 36.0001507,16.6897002 35.2730019,16.6906889 L35.2730019,16.6906889 Z M17.3894365,28.8511225 L17.3937333,32.670167 L2.43628112,32.6879637 C1.11650593,32.6896115 0.0353677729,31.6142282 0.0337151618,30.2982595 L1.89615173e-06,2.42727621 C-0.00165071491,1.11163713 1.07717379,0.0332876707 2.39661846,0.0319693951 L28.8509553,1.21110033e-06 C30.1707305,-0.00131706453 31.2518686,1.07373671 31.2531907,2.38970536 L31.2687253,15.1071103 L28.1099245,15.1110652 L28.1066193,12.5793168 C28.1059582,11.8542652 27.5103572,11.2617003 26.7828778,11.262689 L11.7993144,11.2808153 C11.0721655,11.281804 10.4778865,11.8756872 10.4788781,12.6007388 L10.4970568,27.5410861 C10.4977179,28.2661377 11.0936494,28.8587025 11.8204678,28.8577138 L17.3894365,28.8511225 Z" id="Fill-1" fill="#2CB250"></path>
                <path d="M143.160098,13.5549362 C146.261295,13.550972 148.605717,15.3751568 149.502782,18.3301248 L136.35538,18.3459815 C137.313039,15.4230574 139.864932,13.5589004 143.160098,13.5549362 L143.160098,13.5549362 Z M154.814039,21.081598 C154.810087,17.8626815 153.703246,14.8323941 151.697035,12.5490248 C149.540324,10.0938742 146.506308,8.74440033 143.15417,8.74836451 C136.231885,8.75695357 131.017777,14.0355934 131.02634,21.0270905 C131.034902,28.1332186 136.217395,33.2846742 143.349786,33.2757547 C147.736974,33.2707995 151.563331,31.2543518 153.584032,27.882484 L153.968677,27.2412774 L149.729353,24.6698442 L149.328572,25.4065215 C148.287266,27.3212218 146.06568,28.4662099 143.385352,28.4691831 C139.869872,28.4738079 137.223465,26.5719912 136.289516,23.5070172 L136.116623,22.9298982 L154.77485,22.9074345 C154.77485,22.9074345 154.814368,21.2771644 154.814039,21.081598 L154.814039,21.081598 Z M175.991226,24.6705049 L175.973443,24.7055218 C174.760232,27.0272116 172.306805,28.6138757 169.460831,28.6175096 C165.039394,28.6224648 161.700758,25.3437552 161.695818,20.9900914 C161.690549,16.6360973 165.020952,13.349129 169.442718,13.3435131 C172.329858,13.34054 174.681525,14.8492419 175.793964,17.1755565 L179.350939,15.0659506 L179.301212,14.9582569 C177.553516,11.1718016 173.795986,8.71136547 169.177616,8.7169814 C162.160816,8.72557046 156.875246,14.0042103 156.883809,20.9957074 C156.892371,27.9872045 162.190126,33.253291 169.207255,33.244702 C173.723536,33.2390861 177.51762,30.8298539 179.442819,27.1012096 L179.502425,26.985918 L175.991226,24.6705049 Z M116.730602,13.58698 C112.679978,13.5916049 109.511271,16.8713055 109.516211,21.0528577 C109.52148,25.2344099 112.698091,28.5065124 116.748385,28.5015572 C120.79868,28.496602 123.967716,25.2172317 123.962776,21.0356796 C123.957507,16.853797 120.780896,13.5820248 116.730602,13.58698 L116.730602,13.58698 Z M116.632465,33.3081289 C109.979892,33.3160573 104.761832,27.9356701 104.753599,21.058804 C104.745366,14.1816074 109.950253,8.78866704 116.603155,8.78073867 C119.401708,8.77710484 121.965786,9.74932068 123.95125,11.4895969 L123.938407,0.908201913 L128.701018,0.902255639 L128.739219,32.8357304 L123.976937,32.8416767 L123.974303,30.5814318 C121.99279,32.326333 119.431347,33.3048254 116.632465,33.3081289 L116.632465,33.3081289 Z M101.990284,33.3259677 L101.97283,18.732159 C101.965914,12.9755048 98.4484578,9.26007445 93.0123891,9.26701177 C90.2803587,9.2699849 87.8924666,10.3465909 86.1941685,12.2840852 C84.6835823,10.3492337 82.3855943,9.27956501 79.6153629,9.2828685 C77.6032238,9.28518094 75.8107405,9.86263024 74.3400019,10.9534412 L74.3386846,9.74700824 L69.4641048,9.75262416 L69.4927556,33.3652792 L74.367006,33.3593329 L74.351528,20.3465724 C74.3465883,16.4326026 76.2237066,14.0934044 79.3723255,14.0894402 C82.7732028,14.085476 83.2846352,17.0107126 83.2866111,18.7546227 L83.3043943,33.3484314 L88.1786448,33.3424852 L88.1628375,20.3297247 C88.1578977,16.2988114 89.867722,14.0768869 92.9768226,14.0729228 C95.5926034,14.07028 97.0949567,15.7702537 97.0985792,18.7377749 L97.1160331,33.3315837 L101.990284,33.3259677 Z M54.2726194,13.6622995 C50.1274812,13.6672547 46.8840184,16.9472857 46.8889582,21.1288378 C46.893898,25.31039 50.1452644,28.5821623 54.290732,28.577207 C58.4131472,28.5722518 61.6381681,25.2925512 61.6332283,21.110999 C61.6279592,16.9291165 58.3950346,13.6573443 54.2726194,13.6622995 L54.2726194,13.6622995 Z M54.1306829,33.3834484 C47.3216833,33.3920374 41.9814465,28.0116503 41.9732135,21.1344538 C41.9649805,14.2575876 47.2923739,8.86431686 54.1010442,8.85605814 C56.948007,8.85275466 59.5746553,9.81506004 61.6217022,11.5361761 L61.6190676,9.3046715 L66.534483,9.29872523 L66.5628044,32.9110499 L61.6470597,32.9169962 L61.6447545,30.6854916 C59.6016595,32.4115629 56.9776457,33.3804752 54.1306829,33.3834484 L54.1306829,33.3834484 Z" id="Fill-4" fill="#000000"></path>
                <path d="M7.34329613,50.5575242 C8.02100505,51.2339993 8.35985442,52.1344289 8.35985442,53.2588402 C8.35985442,54.3832515 8.02323432,55.2973934 7.34998401,56.0012931 C6.6767337,56.7051929 5.89202988,57.0571375 4.995849,57.0571375 C4.09966813,57.0571375 3.29490086,56.6549151 2.58152305,55.8504582 L2.58152305,59.6076186 L1.08343713,59.6076186 L1.08343713,49.6525147 L2.58152305,49.6525147 L2.58152305,50.9277553 C3.17005974,50.0044582 3.94138793,49.5428166 4.89553075,49.5428166 C5.84967357,49.5428166 6.66558721,49.8810491 7.34329613,50.5575242 Z M3.1700568,55.0208662 C3.58024904,55.4642316 4.07960602,55.685911 4.66814271,55.685911 C5.2566794,55.685911 5.76941202,55.466517 6.20635592,55.0277223 C6.64329983,54.5889277 6.86176851,54.0198744 6.86176851,53.3205454 C6.86176851,52.6212164 6.64775838,52.0407364 6.21973169,51.5790879 C5.791705,51.1174393 5.27897239,50.8866185 4.68151848,50.8866185 C4.08406456,50.8866185 3.58024904,51.1174393 3.1700568,51.5790879 C2.75986456,52.0407364 2.55477151,52.6189311 2.55477151,53.3136893 C2.55477151,54.0084475 2.75986456,54.5775008 3.1700568,55.0208662 Z M15.1413684,51.0923025 C14.4012389,51.0923025 13.8439209,51.3391208 13.4693975,51.8327647 C13.0948742,52.3264087 12.9076153,52.9891615 12.9076153,53.8210431 L12.9076153,56.9474394 L11.4095294,56.9474394 L11.4095294,49.6525147 L12.9076153,49.6525147 L12.9076153,51.119727 C13.1483803,50.6626492 13.4760833,50.2878511 13.8907342,49.9953213 C14.305385,49.7027916 14.7445517,49.5519582 15.2082472,49.5428166 L15.221623,51.0923025 L15.1413684,51.0923025 Z M21.2005909,55.685911 C21.8515482,55.685911 22.3888028,55.4642316 22.8123709,55.0208662 C23.235939,54.5775008 23.4477198,54.0038768 23.4477198,53.299977 C23.4477198,52.5960773 23.235939,52.0224533 22.8123709,51.5790879 C22.3888028,51.1357224 21.8515482,50.914043 21.2005909,50.914043 C20.5496337,50.914043 20.0123791,51.1357224 19.588811,51.5790879 C19.1652429,52.0224533 18.9534621,52.5960773 18.9534621,53.299977 C18.9534621,54.0038768 19.1652429,54.5775008 19.588811,55.0208662 C20.0123791,55.4642316 20.5496337,55.685911 21.2005909,55.685911 Z M21.2005909,57.0571375 C20.1305242,57.0571375 19.2388153,56.6937661 18.5254375,55.9670125 C17.8120597,55.2402588 17.4553762,54.3512559 17.4553762,53.299977 C17.4553762,52.2486982 17.8120597,51.3596953 18.5254375,50.6329416 C19.2388153,49.906188 20.1305242,49.5428166 21.2005909,49.5428166 C22.2706577,49.5428166 23.1623665,49.906188 23.8757444,50.6329416 C24.5891222,51.3596953 24.9458057,52.2486982 24.9458057,53.299977 C24.9458057,54.3512559 24.5891222,55.2402588 23.8757444,55.9670125 C23.1623665,56.6937661 22.2706577,57.0571375 21.2005909,57.0571375 Z M34.2419639,50.5575242 C34.9196728,51.2339993 35.2585222,52.1344289 35.2585222,53.2588402 C35.2585222,54.3832515 34.9219021,55.2973934 34.2486518,56.0012931 C33.5754015,56.7051929 32.7906977,57.0571375 31.8945168,57.0571375 C30.9983359,57.0571375 30.1935686,56.6549151 29.4801908,55.8504582 L29.4801908,59.6076186 L27.9821049,59.6076186 L27.9821049,49.6525147 L29.4801908,49.6525147 L29.4801908,50.9277553 C30.0687275,50.0044582 30.8400557,49.5428166 31.7941985,49.5428166 C32.7483414,49.5428166 33.564255,49.8810491 34.2419639,50.5575242 Z M30.0687246,55.0208662 C30.4789168,55.4642316 30.9782738,55.685911 31.5668105,55.685911 C32.1553472,55.685911 32.6680798,55.466517 33.1050237,55.0277223 C33.5419676,54.5889277 33.7604363,54.0198744 33.7604363,53.3205454 C33.7604363,52.6212164 33.5464262,52.0407364 33.1183995,51.5790879 C32.6903728,51.1174393 32.1776402,50.8866185 31.5801863,50.8866185 C30.9827323,50.8866185 30.4789168,51.1174393 30.0687246,51.5790879 C29.6585323,52.0407364 29.4534393,52.6189311 29.4534393,53.3136893 C29.4534393,54.0084475 29.6585323,54.5775008 30.0687246,55.0208662 Z M44.9292019,53.971878 L39.351507,53.971878 C39.3871759,54.5020882 39.6234787,54.9294495 40.0604227,55.2539747 C40.4973666,55.5784999 40.9967235,55.7407601 41.5585086,55.7407601 C42.4502308,55.7407601 43.1279296,55.4528054 43.5916252,54.8768874 L44.4476743,55.8367459 C43.6807931,56.6503444 42.6820792,57.0571375 41.4515024,57.0571375 C40.4527735,57.0571375 39.6034208,56.7166196 38.9034188,56.0355738 C38.2034168,55.3545279 37.8534211,54.4403861 37.8534211,53.2931209 C37.8534211,52.1458557 38.2101046,51.2339993 38.9234824,50.5575242 C39.6368603,49.8810491 40.4772959,49.5428166 41.4448145,49.5428166 C42.4123332,49.5428166 43.2349346,49.842198 43.9126436,50.4409699 C44.5903525,51.0397418 44.9292019,51.8647548 44.9292019,52.9160336 L44.9292019,53.971878 Z M39.351507,52.7651987 L43.431116,52.7651987 C43.431116,52.1527145 43.2438571,51.6819315 42.8693337,51.3528355 C42.4948104,51.0237395 42.033351,50.859194 41.4849418,50.859194 C40.9365327,50.859194 40.4438635,51.0305956 40.0069196,51.3734039 C39.5699757,51.7162122 39.351507,52.1801392 39.351507,52.7651987 Z M51.643837,51.0923025 C50.9037075,51.0923025 50.3463895,51.3391208 49.9718661,51.8327647 C49.5973428,52.3264087 49.4100839,52.9891615 49.4100839,53.8210431 L49.4100839,56.9474394 L47.911998,56.9474394 L47.911998,49.6525147 L49.4100839,49.6525147 L49.4100839,51.119727 C49.6508489,50.6626492 49.9785519,50.2878511 50.3932028,49.9953213 C50.8078536,49.7027916 51.2470203,49.5519582 51.7107158,49.5428166 L51.7240916,51.0923025 L51.643837,51.0923025 Z M56.4056101,50.8866185 L56.4056101,54.5889299 C56.4056101,54.936309 56.494781,55.2128369 56.6731255,55.4185219 C56.8514699,55.6242069 57.1011484,55.7270478 57.4221684,55.7270478 C57.7431885,55.7270478 58.050828,55.567073 58.3450964,55.2471186 L58.9603817,56.3303875 C58.4342655,56.8148899 57.8524255,57.0571375 57.2148441,57.0571375 C56.5772626,57.0571375 56.0333202,56.8308874 55.5830005,56.3783804 C55.1326807,55.9258734 54.9075242,55.3156837 54.9075242,54.5477931 L54.9075242,50.8866185 L54.0113478,50.8866185 L54.0113478,49.6525147 L54.9075242,49.6525147 L54.9075242,47.3625666 L56.4056101,47.3625666 L56.4056101,49.6525147 L58.2782175,49.6525147 L58.2782175,50.8866185 L56.4056101,50.8866185 Z M62.3845781,59.8544394 C61.7336208,59.8544394 61.145093,59.6121918 60.6189768,59.1276894 L61.301141,57.8798733 C61.6132438,58.1815447 61.9364882,58.3323781 62.2708841,58.3323781 C62.6052799,58.3323781 62.8772511,58.2089689 63.0868059,57.9621469 C63.2963606,57.7153249 63.4011364,57.4456531 63.4011364,57.1531233 C63.4011364,57.0251415 62.4425493,54.5249637 60.5253465,49.6525147 L62.1304385,49.6525147 L64.2571855,55.0277223 L66.3839324,49.6525147 L67.9890245,49.6525147 L64.5380766,58.3186658 C64.3329805,58.7940267 64.0387165,59.1688248 63.655276,59.4430715 C63.2718354,59.7173181 62.8482737,59.8544394 62.3845781,59.8544394 Z M76.0546122,56.0150054 C75.3858205,55.3202472 75.0514296,54.4061054 75.0514296,53.2725525 C75.0514296,52.1389996 75.3947376,51.2339993 76.0813637,50.5575242 C76.7679898,49.8810491 77.5861328,49.5428166 78.535817,49.5428166 C79.4855012,49.5428166 80.2501415,49.9541804 80.829761,50.7769204 L80.829761,46.7729392 L82.3278469,46.7729392 L82.3278469,56.9474394 L80.829761,56.9474394 L80.829761,55.8504582 C80.2768932,56.6549151 79.4698967,57.0571375 78.4087472,57.0571375 C77.5081077,57.0571375 76.7234039,56.7097636 76.0546122,56.0150054 Z M77.2049281,55.0414346 C77.641872,55.4802293 78.1546047,55.6996233 78.7431414,55.6996233 C79.331678,55.6996233 79.831035,55.4779439 80.2412273,55.0345785 C80.6514195,54.591213 80.8565126,54.0221598 80.8565126,53.3274016 C80.8565126,52.6326434 80.6514195,52.0521633 80.2412273,51.585944 C79.831035,51.1197247 79.3272195,50.8866185 78.7297656,50.8866185 C78.1323117,50.8866185 77.6195791,51.1197247 77.1915524,51.585944 C76.7635257,52.0521633 76.5495156,52.6349287 76.5495156,53.3342577 C76.5495156,54.0335867 76.7679842,54.60264 77.2049281,55.0414346 Z M92.4533027,53.971878 L86.8756078,53.971878 C86.9112767,54.5020882 87.1475795,54.9294495 87.5845235,55.2539747 C88.0214674,55.5784999 88.5208243,55.7407601 89.0826094,55.7407601 C89.9743316,55.7407601 90.6520304,55.4528054 91.115726,54.8768874 L91.9717751,55.8367459 C91.2048939,56.6503444 90.20618,57.0571375 88.9756032,57.0571375 C87.9768743,57.0571375 87.1275216,56.7166196 86.4275196,56.0355738 C85.7275176,55.3545279 85.3775219,54.4403861 85.3775219,53.2931209 C85.3775219,52.1458557 85.7342054,51.2339993 86.4475833,50.5575242 C87.1609611,49.8810491 88.0013967,49.5428166 88.9689153,49.5428166 C89.936434,49.5428166 90.7590355,49.842198 91.4367444,50.4409699 C92.1144533,51.0397418 92.4533027,51.8647548 92.4533027,52.9160336 L92.4533027,53.971878 Z M86.8756078,52.7651987 L90.9552168,52.7651987 C90.9552168,52.1527145 90.7679579,51.6819315 90.3934345,51.3528355 C90.0189112,51.0237395 89.5574518,50.859194 89.0090426,50.859194 C88.4606335,50.859194 87.9679643,51.0305956 87.5310204,51.3734039 C87.0940765,51.7162122 86.8756078,52.1801392 86.8756078,52.7651987 Z M97.2418273,56.9474394 L94.3794132,49.6525147 L95.9310022,49.6525147 L98.0978764,55.164845 L100.264751,49.6525147 L101.81634,49.6525147 L98.9539255,56.9474394 L97.2418273,56.9474394 Z M110.965364,53.971878 L105.38767,53.971878 C105.423338,54.5020882 105.659641,54.9294495 106.096585,55.2539747 C106.533529,55.5784999 107.032886,55.7407601 107.594671,55.7407601 C108.486393,55.7407601 109.164092,55.4528054 109.627788,54.8768874 L110.483837,55.8367459 C109.716956,56.6503444 108.718242,57.0571375 107.487665,57.0571375 C106.488936,57.0571375 105.639583,56.7166196 104.939581,56.0355738 C104.239579,55.3545279 103.889584,54.4403861 103.889584,53.2931209 C103.889584,52.1458557 104.246267,51.2339993 104.959645,50.5575242 C105.673023,49.8810491 106.513458,49.5428166 107.480977,49.5428166 C108.448496,49.5428166 109.271097,49.842198 109.948806,50.4409699 C110.626515,51.0397418 110.965364,51.8647548 110.965364,52.9160336 L110.965364,53.971878 Z M105.38767,52.7651987 L109.467279,52.7651987 C109.467279,52.1527145 109.28002,51.6819315 108.905496,51.3528355 C108.530973,51.0237395 108.069514,50.859194 107.521104,50.859194 C106.972695,50.859194 106.480026,51.0305956 106.043082,51.3734039 C105.606138,51.7162122 105.38767,52.1801392 105.38767,52.7651987 Z M115.446246,56.9474394 L113.948161,56.9474394 L113.948161,46.7729392 L115.446246,46.7729392 L115.446246,56.9474394 Z M122.22776,55.685911 C122.878718,55.685911 123.415972,55.4642316 123.83954,55.0208662 C124.263108,54.5775008 124.474889,54.0038768 124.474889,53.299977 C124.474889,52.5960773 124.263108,52.0224533 123.83954,51.5790879 C123.415972,51.1357224 122.878718,50.914043 122.22776,50.914043 C121.576803,50.914043 121.039549,51.1357224 120.615981,51.5790879 C120.192412,52.0224533 119.980632,52.5960773 119.980632,53.299977 C119.980632,54.0038768 120.192412,54.5775008 120.615981,55.0208662 C121.039549,55.4642316 121.576803,55.685911 122.22776,55.685911 Z M122.22776,57.0571375 C121.157694,57.0571375 120.265985,56.6937661 119.552607,55.9670125 C118.839229,55.2402588 118.482546,54.3512559 118.482546,53.299977 C118.482546,52.2486982 118.839229,51.3596953 119.552607,50.6329416 C120.265985,49.906188 121.157694,49.5428166 122.22776,49.5428166 C123.297827,49.5428166 124.189536,49.906188 124.902914,50.6329416 C125.616292,51.3596953 125.972975,52.2486982 125.972975,53.299977 C125.972975,54.3512559 125.616292,55.2402588 124.902914,55.9670125 C124.189536,56.6937661 123.297827,57.0571375 122.22776,57.0571375 Z M135.269133,50.5575242 C135.946842,51.2339993 136.285692,52.1344289 136.285692,53.2588402 C136.285692,54.3832515 135.949072,55.2973934 135.275821,56.0012931 C134.602571,56.7051929 133.817867,57.0571375 132.921686,57.0571375 C132.025505,57.0571375 131.220738,56.6549151 130.50736,55.8504582 L130.50736,59.6076186 L129.009274,59.6076186 L129.009274,49.6525147 L130.50736,49.6525147 L130.50736,50.9277553 C131.095897,50.0044582 131.867225,49.5428166 132.821368,49.5428166 C133.775511,49.5428166 134.591424,49.8810491 135.269133,50.5575242 Z M131.095894,55.0208662 C131.506086,55.4642316 132.005443,55.685911 132.59398,55.685911 C133.182517,55.685911 133.695249,55.466517 134.132193,55.0277223 C134.569137,54.5889277 134.787606,54.0198744 134.787606,53.3205454 C134.787606,52.6212164 134.573596,52.0407364 134.145569,51.5790879 C133.717542,51.1174393 133.20481,50.8866185 132.607356,50.8866185 C132.009902,50.8866185 131.506086,51.1174393 131.095894,51.5790879 C130.685702,52.0407364 130.480609,52.6189311 130.480609,53.3136893 C130.480609,54.0084475 130.685702,54.5775008 131.095894,55.0208662 Z M140.833453,52.9983072 L140.833453,56.9474394 L139.335367,56.9474394 L139.335367,49.6525147 L140.833453,49.6525147 L140.833453,50.9826044 C141.047466,50.5346681 141.37071,50.1827235 141.803196,49.92676 C142.235681,49.6707965 142.701599,49.5428166 143.200963,49.5428166 C144.324533,49.5428166 145.086944,50.0181703 145.48822,50.9688921 C146.19268,50.0181703 147.071013,49.5428166 148.123246,49.5428166 C148.925796,49.5428166 149.574514,49.7942056 150.06942,50.2969911 C150.564326,50.7997767 150.811775,51.5265194 150.811775,52.4772412 L150.811775,56.9474394 L149.313689,56.9474394 L149.313689,52.9434582 C149.313689,51.5996495 148.769746,50.9277553 147.681845,50.9277553 C147.173564,50.9277553 146.729938,51.0945862 146.350956,51.4282529 C145.971975,51.7619197 145.773569,52.2487002 145.755735,52.8886091 L145.755735,56.9474394 L144.257649,56.9474394 L144.257649,52.9434582 C144.257649,52.2487 144.137268,51.7390659 143.896503,51.4145407 C143.655738,51.0900155 143.276762,50.9277553 142.759563,50.9277553 C142.242364,50.9277553 141.792051,51.1037276 141.408611,51.4556775 C141.02517,51.8076274 140.833453,52.3218321 140.833453,52.9983072 Z M160.856976,53.971878 L155.279281,53.971878 C155.31495,54.5020882 155.551253,54.9294495 155.988197,55.2539747 C156.425141,55.5784999 156.924498,55.7407601 157.486283,55.7407601 C158.378005,55.7407601 159.055704,55.4528054 159.519399,54.8768874 L160.375448,55.8367459 C159.608567,56.6503444 158.609853,57.0571375 157.379277,57.0571375 C156.380548,57.0571375 155.531195,56.7166196 154.831193,56.0355738 C154.131191,55.3545279 153.781195,54.4403861 153.781195,53.2931209 C153.781195,52.1458557 154.137879,51.2339993 154.851257,50.5575242 C155.564634,49.8810491 156.40507,49.5428166 157.372589,49.5428166 C158.340107,49.5428166 159.162709,49.842198 159.840418,50.4409699 C160.518127,51.0397418 160.856976,51.8647548 160.856976,52.9160336 L160.856976,53.971878 Z M155.279281,52.7651987 L159.35889,52.7651987 C159.35889,52.1527145 159.171631,51.6819315 158.797108,51.3528355 C158.422584,51.0237395 157.961125,50.859194 157.412716,50.859194 C156.864307,50.859194 156.371638,51.0305956 155.934694,51.3734039 C155.49775,51.7162122 155.279281,52.1801392 155.279281,52.7651987 Z M165.337858,52.9983072 L165.337858,56.9474394 L163.839772,56.9474394 L163.839772,49.6525147 L165.337858,49.6525147 L165.337858,50.9826044 C165.578623,50.5346681 165.910785,50.1827235 166.334353,49.92676 C166.757921,49.6707965 167.214922,49.5428166 167.705369,49.5428166 C168.507919,49.5428166 169.156637,49.7942056 169.651543,50.2969911 C170.146449,50.7997767 170.393898,51.5265194 170.393898,52.4772412 L170.393898,56.9474394 L168.895812,56.9474394 L168.895812,52.9434582 C168.895812,51.5996495 168.35187,50.9277553 167.263968,50.9277553 C166.74677,50.9277553 166.296457,51.1037276 165.913016,51.4556775 C165.529575,51.8076274 165.337858,52.3218321 165.337858,52.9983072 Z M175.66395,50.8866185 L175.66395,54.5889299 C175.66395,54.936309 175.753121,55.2128369 175.931466,55.4185219 C176.10981,55.6242069 176.359489,55.7270478 176.680509,55.7270478 C177.001529,55.7270478 177.309168,55.567073 177.603436,55.2471186 L178.218722,56.3303875 C177.692606,56.8148899 177.110766,57.0571375 176.473184,57.0571375 C175.835603,57.0571375 175.29166,56.8308874 174.841341,56.3783804 C174.391021,55.9258734 174.165864,55.3156837 174.165864,54.5477931 L174.165864,50.8866185 L173.269688,50.8866185 L173.269688,49.6525147 L174.165864,49.6525147 L174.165864,47.3625666 L175.66395,47.3625666 L175.66395,49.6525147 L177.536558,49.6525147 L177.536558,50.8866185 L175.66395,50.8866185 Z" id="property-development" fill="#000000"></path>
            </g>
        </g>
    </g>
</svg>