<svg xmlns="http://www.w3.org/2000/svg" width="25" height="25" viewBox="0 0 25 25">
    <path fill="#FFF" fill-rule="nonzero" d="M12.5 4c-1.848 0-3.059.126-3.825.265-.722.13-1.034.28-1.074.298a3.487 3.487 0 0 1-.065.016c-.77.264-1.946.63-2.49 1.704-.132.26-.33.79-.619 1.539-.222.576-.483 1.301-.749 2.002H2.132c-.773 0-1.347.262-1.693.661-.345.4-.439.874-.439 1.241 0 .411.212.822.537 1.026.326.203.69.248 1.074.248h.863l-.358.96-.033.099V20.412c0 .871.706 1.588 1.563 1.588h2.083c.857 0 1.563-.717 1.563-1.588v-.53h10.416v.53c0 .871.706 1.588 1.563 1.588h2.083c.857 0 1.563-.717 1.563-1.588v-6.353l-.033-.1s-.273-.736-.358-.959h.863c.385 0 .748-.045 1.074-.248.325-.204.537-.615.537-1.026 0-.367-.094-.841-.44-1.24-.345-.4-.919-.662-1.692-.662h-1.546c-.033-.078-.065-.155-.082-.199-.562-1.48-1.107-2.892-1.302-3.342-.497-1.151-1.78-1.505-2.474-1.704-.022-.006-.06-.027-.081-.033v.016c-.048-.02-.346-.168-1.058-.297C15.559 4.125 14.348 4 12.5 4zm0 1.059c1.798 0 2.954.139 3.646.265.692.125.862.215.862.215l.05.016.032.017c.634.183 1.658.608 1.888 1.141.15.349.742 1.896 1.286 3.31.13.336.348.886.276 1.223-.035.17-.1.292-.341.43-.242.139-.698.265-1.449.265H6.25c-.75 0-1.207-.126-1.449-.265-.241-.138-.306-.26-.341-.43-.072-.337.147-.887.276-1.224l-.032-.016c.237-.631.483-1.284.683-1.804a28.01 28.01 0 0 1 .586-1.423c.29-.57 1.19-.96 1.953-1.224h.033l.033-.016s.17-.09.862-.215c.692-.126 1.848-.265 3.646-.265zM2.132 10.882h1.123c-.197.528-.231.63-.39 1.06H1.61c-.29 0-.472-.053-.52-.084-.049-.03-.05.017-.05-.132 0-.191.053-.4.18-.546.126-.146.345-.298.911-.298zm19.58 0h1.156c.566 0 .785.152.911.298.127.146.18.355.18.546 0 .149-.001.102-.05.132-.048.03-.23.083-.52.083h-1.27c-.166-.435-.203-.524-.407-1.059zM3.874 12.256c.12.127.257.252.423.347.47.269 1.092.397 1.953.397h12.5c.86 0 1.483-.128 1.953-.397.166-.095.304-.22.423-.347l.749 2.001v4.12c0 .247-.203.447-.472.447H3.597c-.269 0-.472-.2-.472-.447v-4.12c.017-.045.451-1.196.749-2.001zm1.334 1.273c-.856 0-1.562.717-1.562 1.589 0 .47.19.886.456 1.174.265.288.583.482.895.662.442.255.743.448 1.09.596.348.147.723.215 1.205.215 1.144 0 2.083-.954 2.083-2.118s-.94-2.118-2.083-2.118H5.208zm12.5 0c-1.144 0-2.083.954-2.083 2.118s.94 2.118 2.083 2.118c.482 0 .857-.068 1.205-.215.347-.148.648-.341 1.09-.596.312-.18.63-.374.895-.662.266-.288.456-.704.456-1.174 0-.872-.706-1.589-1.562-1.589h-2.084zm-12.5 1.06h2.084c.58 0 1.041.466 1.041 1.058 0 .592-.46 1.059-1.041 1.059-.392 0-.585-.035-.814-.132-.23-.098-.516-.28-.977-.546-.292-.169-.51-.327-.634-.464-.126-.136-.18-.224-.18-.446 0-.3.228-.53.521-.53zm12.5 0h2.084c.293 0 .52.23.52.529 0 .222-.053.31-.179.446-.125.137-.342.295-.634.464-.461.265-.747.448-.977.546-.23.097-.422.132-.814.132a1.042 1.042 0 0 1-1.041-1.059c0-.592.46-1.059 1.041-1.059zm-14.583 5.21c.15.05.307.083.472.083H6.25v.53c0 .298-.228.53-.52.53H3.645a.519.519 0 0 1-.521-.53V19.8zm18.75 0v.613c0 .298-.228.53-.52.53H19.27a.519.519 0 0 1-.521-.53v-.53h2.653c.165 0 .322-.032.472-.082z"/>
</svg>
