<?xml version="1.0" encoding="UTF-8"?>
<svg width="70px" height="70px" viewBox="0 0 70 70" version="1.1" xmlns="http://www.w3.org/2000/svg" xmlns:xlink="http://www.w3.org/1999/xlink">
    <!-- Generator: Sketch 42 (36781) - http://www.bohemiancoding.com/sketch -->
    <title>icn/feature_gym</title>
    <desc>Created with Sketch.</desc>
    <defs></defs>
    <g id="Symbols" stroke="none" stroke-width="1" fill="none" fill-rule="evenodd">
        <g id="icn/feature_gym" fill-rule="nonzero" fill="#EB1C23">
            <path d="M35,70 C15.6700338,70 0,54.3299662 0,35 C0,15.6700338 15.6700338,0 35,0 C54.3299662,0 70,15.6700338 70,35 C70,54.3299662 54.3299662,70 35,70 Z M35,67.5438596 C52.9734774,67.5438596 67.5438596,52.9734774 67.5438596,35 C67.5438596,17.0265226 52.9734774,2.45614035 35,2.45614035 C17.0265226,2.45614035 2.45614035,17.0265226 2.45614035,35 C2.45614035,52.9734774 17.0265226,67.5438596 35,67.5438596 Z" id="Oval-2"></path>
            <path d="M28.8,26 C27.813018,26 27,26.8045492 27,27.78125 L27,28.375 L25.2,28.375 C24.2130181,28.375 23.4,29.1795491 23.4,30.15625 L23.4,33.125 L22.2,33.125 C21.5441623,33.125 21,33.6634938 21,34.3125 L21,36.6875 C21,37.3365062 21.5441623,37.875 22.2,37.875 L23.4,37.875 L23.4,40.84375 C23.4,41.8204509 24.2130181,42.625 25.2,42.625 L27,42.625 L27,43.21875 C27,44.1954509 27.813018,45 28.8,45 L30.6,45 C31.586982,45 32.4,44.1954509 32.4,43.21875 L32.4,37.875 L39.6,37.875 L39.6,43.21875 C39.6,44.1954509 40.413018,45 41.4,45 L43.2,45 C44.186982,45 45,44.1954509 45,43.21875 L45,42.625 L46.8,42.625 C47.786982,42.625 48.6,41.8204509 48.6,40.84375 L48.6,37.875 L49.8,37.875 C50.4558378,37.875 51,37.3365062 51,36.6875 L51,34.3125 C51,33.6634938 50.4558378,33.125 49.8,33.125 L48.6,33.125 L48.6,30.15625 C48.6,29.1795491 47.786982,28.375 46.8,28.375 L45,28.375 L45,27.78125 C45,26.8045492 44.186982,26 43.2,26 L41.4,26 C40.413018,26 39.6,26.8045492 39.6,27.78125 L39.6,33.125 L32.4,33.125 L32.4,27.78125 C32.4,26.8045492 31.586982,26 30.6,26 L28.8,26 Z M28.8,27.1875 L30.6,27.1875 C30.939018,27.1875 31.2,27.4457634 31.2,27.78125 L31.2,33.125 L31.2,33.71875 L31.2,37.28125 L31.2,37.875 L31.2,43.21875 C31.2,43.5542366 30.939018,43.8125 30.6,43.8125 L28.8,43.8125 C28.460982,43.8125 28.2,43.5542366 28.2,43.21875 L28.2,42.1425781 C28.216676,42.0630212 28.216676,41.9809241 28.2,41.9013672 L28.2,29.0800781 C28.216676,29.0005212 28.216676,28.9184241 28.2,28.8388672 L28.2,27.78125 C28.2,27.4457634 28.460982,27.1875 28.8,27.1875 Z M41.4,27.1875 L43.2,27.1875 C43.539018,27.1875 43.8,27.4457634 43.8,27.78125 L43.8,28.7832031 C43.7639745,28.8980123 43.7639745,29.020933 43.8,29.1357422 L43.8,41.9199219 C43.783324,41.9994788 43.783324,42.0815759 43.8,42.1611328 L43.8,43.21875 C43.8,43.5542366 43.539018,43.8125 43.2,43.8125 L41.4,43.8125 C41.060982,43.8125 40.8,43.5542366 40.8,43.21875 L40.8,37.28125 L40.8,33.71875 L40.8,33.125 L40.8,27.78125 C40.8,27.4457634 41.060982,27.1875 41.4,27.1875 Z M25.2,29.5625 L27,29.5625 L27,41.4375 L25.2,41.4375 C24.8609819,41.4375 24.6,41.1792366 24.6,40.84375 L24.6,37.3925781 C24.616676,37.3130212 24.616676,37.2309241 24.6,37.1513672 L24.6,33.8300781 C24.616676,33.7505212 24.616676,33.6684241 24.6,33.5888672 L24.6,30.15625 C24.6,29.8207634 24.8609819,29.5625 25.2,29.5625 Z M45,29.5625 L46.8,29.5625 C47.139018,29.5625 47.4,29.8207634 47.4,30.15625 L47.4,33.5332031 C47.3639745,33.6480123 47.3639745,33.770933 47.4,33.8857422 L47.4,37.1699219 C47.383324,37.2494788 47.383324,37.3315759 47.4,37.4111328 L47.4,40.84375 C47.4,41.1792366 47.139018,41.4375 46.8,41.4375 L45,41.4375 L45,29.5625 Z M22.2,34.3125 L23.4,34.3125 L23.4,36.6875 L22.2,36.6875 L22.2,34.3125 Z M32.4,34.3125 L39.6,34.3125 L39.6,36.6875 L32.4,36.6875 L32.4,34.3125 Z M48.6,34.3125 L49.8,34.3125 L49.8,36.6875 L48.6,36.6875 L48.6,34.3125 Z" id="Shape" stroke="#EB1C23" stroke-width="0.5"></path>
        </g>
    </g>
</svg>