<?xml version="1.0" encoding="UTF-8"?>
<svg width="50px" height="50px" viewBox="0 0 50 50" version="1.1" xmlns="http://www.w3.org/2000/svg" xmlns:xlink="http://www.w3.org/1999/xlink">
    <!-- Generator: Sketch 42 (36781) - http://www.bohemiancoding.com/sketch -->
    <title>icn-close </title>
    <desc>Created with Sketch.</desc>
    <defs></defs>
    <g id="Page-1" stroke="none" stroke-width="1" fill="none" fill-rule="evenodd">
        <g id="Assets" transform="translate(-67.000000, -42.000000)">
            <rect id="Rectangle" x="67" y="42" width="50" height="50"></rect>
            <path d="M92,45 C79.86158,45 70,54.86158 70,67 C70,79.13842 79.86158,89 92,89 C104.13842,89 114,79.13842 114,67 C114,54.86158 104.13842,45 92,45 Z M92,47 C103.05754,47 112,55.94246 112,67 C112,78.05754 103.05754,87 92,87 C80.94246,87 72,78.05754 72,67 C72,55.94246 80.94246,47 92,47 Z M83.40625,57.46875 C83.3639549,57.476469 83.3222016,57.4869073 83.28125,57.5 C82.9081406,57.56769 82.6054058,57.8405735 82.4994841,58.2046795 C82.3935623,58.5687854 82.5026747,58.9614789 82.78125,59.21875 L90.5625,67 L82.78125,74.78125 C82.5244382,75.0380292 82.4241318,75.4123144 82.5181181,75.7631056 C82.6121044,76.1138968 82.8861032,76.3878956 83.2368944,76.4818819 C83.5876856,76.5758682 83.9619708,76.4755618 84.21875,76.21875 L92,68.4375 L99.78125,76.21875 C100.038029,76.4755618 100.412314,76.5758682 100.763106,76.4818819 C101.113897,76.3878956 101.387896,76.1138968 101.481882,75.7631056 C101.575868,75.4123144 101.475562,75.0380292 101.21875,74.78125 L93.4375,67 L101.21875,59.21875 C101.541413,58.9182689 101.629231,58.4419349 101.434935,58.0461457 C101.240638,57.6503565 100.810073,57.4285018 100.375,57.5 C100.151058,57.5242116 99.9418473,57.6233116 99.78125,57.78125 L92,65.5625 L84.21875,57.78125 C84.0098355,57.5584928 83.7105909,57.4433987 83.40625,57.46875 L83.40625,57.46875 Z" id="icn-close" fill="#EB1C23" fill-rule="nonzero"></path>
        </g>
    </g>
</svg>