<?xml version="1.0" encoding="UTF-8"?>
<svg width="25px" height="25px" viewBox="0 0 25 25" version="1.1" xmlns="http://www.w3.org/2000/svg" xmlns:xlink="http://www.w3.org/1999/xlink">
    <!-- Generator: Sketch 42 (36781) - http://www.bohemiancoding.com/sketch -->
    <title>icn/car</title>
    <desc>Created with Sketch.</desc>
    <defs></defs>
    <g id="Symbols" stroke="none" stroke-width="1" fill="none" fill-rule="evenodd">
        <g id="icn/car" fill-rule="nonzero" fill="#FFFFFF">
            <path d="M12.5,4 C10.6522818,4 9.44126719,4.12564238 8.67513021,4.26470588 C7.95253542,4.39586595 7.64053958,4.54500585 7.60091146,4.5625 C7.59851562,4.56355353 7.53580729,4.57904412 7.53580729,4.57904412 C6.76507187,4.84341854 5.59023854,5.20850253 5.04557292,6.28308824 C4.91396458,6.54285365 4.716625,7.07238506 4.42708333,7.82169118 C4.20456083,8.39755776 3.94420062,9.12311394 3.67838542,9.82352941 L2.13216146,9.82352941 C1.35895911,9.82352941 0.785381042,10.0857635 0.439453125,10.4852941 C0.0935252083,10.8848248 0,11.3585054 0,11.7261029 C0,12.1372902 0.211688385,12.5481831 0.537109375,12.7518382 C0.862530365,12.9554934 1.2262726,13 1.61132812,13 L2.47395833,13 C2.39222891,13.2206144 2.11588542,13.9595588 2.11588542,13.9595588 L2.08333333,14.0588235 L2.08333333,14.1415441 L2.08333333,18.3768382 L2.08333333,20.4117647 C2.08333333,21.2830002 2.78929516,22 3.64583333,22 L5.72916667,22 C6.58597031,22 7.29166667,21.2826804 7.29166667,20.4117647 L7.29166667,19.8823529 L17.7083333,19.8823529 L17.7083333,20.4117647 C17.7083333,21.2830002 18.4142953,22 19.2708333,22 L21.3541667,22 C22.2109703,22 22.9166667,21.2826804 22.9166667,20.4117647 L22.9166667,17.7647059 L22.9166667,14.1415441 L22.9166667,14.0588235 L22.8841146,13.9595588 C22.8841146,13.9595588 22.6109792,13.222534 22.5260417,13 L23.3886719,13 C23.7737276,13 24.1374698,12.9554924 24.4628906,12.7518382 C24.7883115,12.5481831 25,12.1372902 25,11.7261029 C25,11.3585054 24.906475,10.8848248 24.5605469,10.4852941 C24.2146187,10.0857635 23.6410406,9.82352941 22.8678385,9.82352941 L21.3216146,9.82352941 C21.2892292,9.74552324 21.2570198,9.66858435 21.2402344,9.625 C20.6775589,8.14493041 20.1326714,6.73343341 19.938151,6.28308824 C19.4405771,5.13200253 18.1581266,4.77784099 17.4641927,4.57904412 C17.442125,4.57272135 17.4036198,4.55196259 17.3828125,4.54595588 L17.3828125,4.5625 C17.3345719,4.54138711 17.0372708,4.39401561 16.3248698,4.26470588 C15.5587328,4.12564238 14.3477182,4 12.5,4 Z M12.5,5.05882353 C14.2981151,5.05882353 15.453637,5.19788676 16.1458333,5.32352941 C16.8380297,5.44917206 17.0084635,5.53860294 17.0084635,5.53860294 L17.0572917,5.55514706 L17.0898437,5.57169118 C17.7241828,5.75481682 18.7475135,6.18034159 18.9778646,6.71323529 C19.1283646,7.06166659 19.7203719,8.60922718 20.2636719,10.0220588 C20.3932516,10.3585228 20.6119047,10.9087611 20.5403646,11.2463235 C20.5045937,11.4151048 20.4401198,11.5383179 20.1985677,11.6764706 C19.9570156,11.8146232 19.5007109,11.9411765 18.75,11.9411765 L6.25,11.9411765 C5.49928906,11.9411765 5.04298437,11.8146232 4.80143229,11.6764706 C4.55988016,11.5383179 4.49540557,11.4151048 4.45963542,11.2463235 C4.3880951,10.9087611 4.60674833,10.3585228 4.73632812,10.0220588 L4.70377604,10.0055147 C4.94082656,9.37501176 5.18663906,8.72167688 5.38736979,8.20220588 C5.67458594,7.45891865 5.93043646,6.86402871 5.97330729,6.77941176 C6.26289323,6.20807959 7.16266927,5.81902971 7.92643229,5.55514706 L7.95898437,5.55514706 L7.99153646,5.53860294 C7.99153646,5.53860294 8.16197031,5.44917206 8.85416667,5.32352941 C9.54636302,5.19788676 10.7018849,5.05882353 12.5,5.05882353 Z M2.13216146,10.8823529 L3.25520833,10.8823529 C3.05804516,11.4097953 3.02390219,11.5126859 2.86458333,11.9411765 L1.61132812,11.9411765 C1.32138365,11.9411765 1.13877172,11.8886694 1.09049479,11.8584559 C1.04221786,11.8282434 1.04166667,11.8745039 1.04166667,11.7261029 C1.04166667,11.5346417 1.09449562,11.3259105 1.22070312,11.1801471 C1.34691062,11.0343836 1.56578047,10.8823529 2.13216146,10.8823529 Z M21.7122396,10.8823529 L22.8678385,10.8823529 C23.4342198,10.8823529 23.6530896,11.0343836 23.7792969,11.1801471 C23.9055042,11.3259105 23.9583333,11.5346417 23.9583333,11.7261029 C23.9583333,11.8745039 23.9577604,11.8282434 23.9095052,11.8584559 C23.8612292,11.8886694 23.6786161,11.9411765 23.3886719,11.9411765 L22.1191406,11.9411765 C21.9531958,11.506063 21.9160448,11.4173616 21.7122396,10.8823529 Z M3.87369792,12.2555147 C3.9930738,12.3832618 4.13148193,12.5083469 4.296875,12.6029412 C4.76720417,12.8719395 5.3892526,13 6.25,13 L18.75,13 C19.6107474,13 20.2327958,12.8719395 20.703125,12.6029412 C20.8685182,12.5083469 21.006926,12.3832618 21.1263021,12.2555147 C21.4322786,13.0706262 21.8576969,14.2114561 21.875,14.2573529 L21.875,17.7647059 L21.875,18.3768382 C21.875,18.6241365 21.6717234,18.8235294 21.4029948,18.8235294 L3.59700521,18.8235294 C3.32827661,18.8235294 3.125,18.6241365 3.125,18.3768382 L3.125,17.7647059 L3.125,14.2573529 C3.1416575,14.2121576 3.57630453,13.0611338 3.87369792,12.2555147 Z M5.20833333,13.5294118 C4.35184432,13.5294118 3.64583333,14.2464614 3.64583333,15.1176471 C3.64583333,15.5877006 3.83647036,16.0044017 4.1015625,16.2922794 C4.36665464,16.5801571 4.68454885,16.774465 4.99674479,16.9540441 C5.4386099,17.2088087 5.73968177,17.4022124 6.08723958,17.5496324 C6.4347974,17.6970524 6.81035521,17.7647059 7.29166667,17.7647059 C8.43555104,17.7647059 9.375,16.8109229 9.375,15.6470588 C9.375,14.4831947 8.43555104,13.5294118 7.29166667,13.5294118 L5.20833333,13.5294118 Z M17.7083333,13.5294118 C16.564449,13.5294118 15.625,14.4831947 15.625,15.6470588 C15.625,16.8109229 16.564449,17.7647059 17.7083333,17.7647059 C18.1896448,17.7647059 18.5652026,17.6970524 18.9127604,17.5496324 C19.2603182,17.4022124 19.5613901,17.2088087 20.0032552,16.9540441 C20.315451,16.774465 20.6333453,16.5801571 20.8984375,16.2922794 C21.1635297,16.0044017 21.3541667,15.5877006 21.3541667,15.1176471 C21.3541667,14.2464614 20.6481557,13.5294118 19.7916667,13.5294118 L17.7083333,13.5294118 Z M5.20833333,14.5882353 L7.29166667,14.5882353 C7.87278229,14.5882353 8.33333333,15.0553935 8.33333333,15.6470588 C8.33333333,16.2387241 7.87278229,16.7058824 7.29166667,16.7058824 C6.90006146,16.7058824 6.7072599,16.67083 6.47786458,16.5735294 C6.24846927,16.4762288 5.96204115,16.2932207 5.50130208,16.0275735 C5.20881042,15.8593291 4.99193906,15.7005194 4.86653646,15.5643382 C4.74113385,15.4281571 4.6875,15.3395346 4.6875,15.1176471 C4.6875,14.8188328 4.9148224,14.5882353 5.20833333,14.5882353 Z M17.7083333,14.5882353 L19.7916667,14.5882353 C20.0851776,14.5882353 20.3125,14.8188328 20.3125,15.1176471 C20.3125,15.3395346 20.2588661,15.4281571 20.1334635,15.5643382 C20.0080609,15.7005194 19.7911896,15.8593291 19.4986979,16.0275735 C19.0379589,16.2932207 18.7515307,16.4762288 18.5221354,16.5735294 C18.2927401,16.67083 18.0999385,16.7058824 17.7083333,16.7058824 C17.1272177,16.7058824 16.6666667,16.2387241 16.6666667,15.6470588 C16.6666667,15.0553935 17.1272177,14.5882353 17.7083333,14.5882353 Z M3.125,19.7996324 C3.27531401,19.8497909 3.4315662,19.8823529 3.59700521,19.8823529 L6.25,19.8823529 L6.25,20.4117647 C6.25,20.7097902 6.02236302,20.9411765 5.72916667,20.9411765 L3.64583333,20.9411765 C3.35341318,20.9411765 3.125,20.7094704 3.125,20.4117647 L3.125,19.7996324 Z M21.875,19.7996324 L21.875,20.4117647 C21.875,20.7097902 21.647363,20.9411765 21.3541667,20.9411765 L19.2708333,20.9411765 C18.978413,20.9411765 18.75,20.7094704 18.75,20.4117647 L18.75,19.8823529 L21.4029948,19.8823529 C21.5684339,19.8823529 21.7246859,19.8497909 21.875,19.7996324 Z" id="Shape"></path>
        </g>
    </g>
</svg>