<?xml version="1.0" encoding="UTF-8"?>
<svg width="70px" height="70px" viewBox="0 0 70 70" version="1.1" xmlns="http://www.w3.org/2000/svg" xmlns:xlink="http://www.w3.org/1999/xlink">
    <!-- Generator: Sketch 42 (36781) - http://www.bohemiancoding.com/sketch -->
    <title>icn/feature_hotels</title>
    <desc>Created with Sketch.</desc>
    <defs></defs>
    <g id="Symbols" stroke="none" stroke-width="1" fill="none" fill-rule="evenodd">
        <g id="icn/feature_hotels" fill-rule="nonzero" fill="#EB1C23">
            <path d="M35,70 C15.6700338,70 0,54.3299662 0,35 C0,15.6700338 15.6700338,0 35,0 C54.3299662,0 70,15.6700338 70,35 C70,54.3299662 54.3299662,70 35,70 Z M35,67.5438596 C52.9734774,67.5438596 67.5438596,52.9734774 67.5438596,35 C67.5438596,17.0265226 52.9734774,2.45614035 35,2.45614035 C17.0265226,2.45614035 2.45614035,17.0265226 2.45614035,35 C2.45614035,52.9734774 17.0265226,67.5438596 35,67.5438596 Z" id="Oval-2"></path>
            <path d="M19.52,25 C18.1348572,25 17,26.12585 17,27.5 L17,44.2857143 L17,45 L17.72,45 L21.32,45 L22.04,45 L22.04,44.2857143 L22.04,42.1428571 L47.96,42.1428571 L47.96,44.2857143 L47.96,45 L48.68,45 L52.28,45 L53,45 L53,44.2857143 L53,33.9285714 C53,32.5544214 51.8651432,31.4285714 50.48,31.4285714 C50.0867662,31.4285714 49.7326501,31.53503 49.4,31.6964286 L49.4,31.4285714 C49.4,30.2532464 48.4247276,29.2857143 47.24,29.2857143 L32.84,29.2857143 C31.6552724,29.2857143 30.68,30.2532464 30.68,31.4285714 L30.68,37.1428571 L22.04,37.1428571 L22.04,27.5 C22.04,26.12585 20.9051428,25 19.52,25 Z M19.52,26.4285714 C20.1508572,26.4285714 20.6,26.87415 20.6,27.5 L20.6,37.8571429 L20.6,38.5714286 L21.32,38.5714286 L48.68,38.5714286 L49.4,38.5714286 L49.4,37.8571429 L49.4,33.9285714 C49.4,33.3027214 49.8491432,32.8571429 50.48,32.8571429 C51.1108568,32.8571429 51.56,33.3027214 51.56,33.9285714 L51.56,43.5714286 L49.4,43.5714286 L49.4,41.4285714 L49.4,40.7142857 L48.68,40.7142857 L21.32,40.7142857 L20.6,40.7142857 L20.6,41.4285714 L20.6,43.5714286 L18.44,43.5714286 L18.44,27.5 C18.44,26.87415 18.8891428,26.4285714 19.52,26.4285714 Z M26.36,29.2857143 C24.3803031,29.2857143 22.76,30.8931579 22.76,32.8571429 C22.76,34.8211279 24.3803031,36.4285714 26.36,36.4285714 C28.3396969,36.4285714 29.96,34.8211279 29.96,32.8571429 C29.96,30.8931579 28.3396969,29.2857143 26.36,29.2857143 Z M26.36,30.7142857 C27.5614633,30.7142857 28.52,31.665215 28.52,32.8571429 C28.52,34.0490707 27.5614633,35 26.36,35 C25.1585367,35 24.2,34.0490707 24.2,32.8571429 C24.2,31.665215 25.1585367,30.7142857 26.36,30.7142857 Z M32.84,30.7142857 L47.24,30.7142857 C47.6392724,30.7142857 47.96,31.0324679 47.96,31.4285714 L47.96,37.1428571 L32.12,37.1428571 L32.12,31.4285714 C32.12,31.0324679 32.4407276,30.7142857 32.84,30.7142857 Z" id="Shape" stroke="#EB1C23" stroke-width="0.5"></path>
        </g>
    </g>
</svg>