<?xml version="1.0" encoding="UTF-8"?>
<svg width="70px" height="70px" viewBox="0 0 70 70" version="1.1" xmlns="http://www.w3.org/2000/svg" xmlns:xlink="http://www.w3.org/1999/xlink">
    <!-- Generator: Sketch 42 (36781) - http://www.bohemiancoding.com/sketch -->
    <title>icn/feature_shopping</title>
    <desc>Created with Sketch.</desc>
    <defs></defs>
    <g id="Symbols" stroke="none" stroke-width="1" fill="none" fill-rule="evenodd">
        <g id="icn/feature_shopping" fill-rule="nonzero" fill="#EB1C23">
            <path d="M35,70 C15.6700338,70 0,54.3299662 0,35 C0,15.6700338 15.6700338,0 35,0 C54.3299662,0 70,15.6700338 70,35 C70,54.3299662 54.3299662,70 35,70 Z M35,67.5438596 C52.9734774,67.5438596 67.5438596,52.9734774 67.5438596,35 C67.5438596,17.0265226 52.9734774,2.45614035 35,2.45614035 C17.0265226,2.45614035 2.45614035,17.0265226 2.45614035,35 C2.45614035,52.9734774 17.0265226,67.5438596 35,67.5438596 Z" id="Oval-2"></path>
            <path d="M34.5,19 C31.1496142,19 28.3983051,21.7748252 28.3983051,25.1538462 L28.3983051,26.3846154 L23.5169492,26.3846154 L22.3728814,26.3846154 L22.2966102,27.5384615 L21.0762712,49.6923077 L21,51 L22.2966102,51 L46.7033898,51 L48,51 L47.9237288,49.6923077 L46.7033898,27.5384615 L46.6271186,26.3846154 L45.4830508,26.3846154 L40.6016949,26.3846154 L40.6016949,25.1538462 C40.6016949,21.7748252 37.8503858,19 34.5,19 Z M34.5,21.4615385 C36.5191058,21.4615385 38.1610169,23.1174825 38.1610169,25.1538462 L38.1610169,26.3846154 L30.8389831,26.3846154 L30.8389831,25.1538462 C30.8389831,23.1174825 32.4808942,21.4615385 34.5,21.4615385 Z M24,28.8461538 L28.3983051,28.8461538 L28.3983051,32.5384615 L30.8389831,32.5384615 L30.8389831,28.8461538 L38.1610169,28.8461538 L38.1610169,32.5384615 L40.6016949,32.5384615 L40.6016949,28.8461538 L44.3389831,28.8461538 L45.4067797,48.5384615 L23.5932203,48.5384615 L24,28.8461538 Z" id="Shape"></path>
        </g>
    </g>
</svg>