<?xml version="1.0" encoding="UTF-8"?>
<svg width="50px" height="50px" viewBox="0 0 50 50" version="1.1" xmlns="http://www.w3.org/2000/svg" xmlns:xlink="http://www.w3.org/1999/xlink">
    <!-- Generator: Sketch 42 (36781) - http://www.bohemiancoding.com/sketch -->
    <title>icn-garage</title>
    <desc>Created with Sketch.</desc>
    <defs></defs>
    <g id="Page-1" stroke="none" stroke-width="1" fill="none" fill-rule="evenodd">
        <g id="Assets" transform="translate(-977.000000, -42.000000)">
            <rect id="Rectangle-Copy-13" x="977" y="42" width="50" height="50"></rect>
            <path d="M1002.38451,59 L994.254076,61.5869565 C994.10625,61.6608696 994,61.8086957 994,61.9565217 L994,75.6304348 C994,75.8521739 994.147826,76 994.369565,76 L996.217391,76 C996.43913,76 996.586957,75.8521739 996.586957,75.6304348 L996.586957,64.578125 C996.586957,64.3563859 996.769429,64.173913 996.991168,64.173913 L1008.00883,64.173913 C1008.23057,64.173913 1008.41304,64.3563859 1008.41304,64.578125 L1008.41304,75.6304348 C1008.41304,75.8521739 1008.56087,76 1008.78261,76 L1010.63043,76 C1010.85217,76 1011,75.8521739 1011,75.6304348 L1011,61.9565217 C1011,61.7717391 1010.89375,61.623913 1010.74592,61.5869565 L1002.61549,59 L1002.38451,59 Z M997.326087,64.9130435 L997.326087,67.8695652 L1007.67391,67.8695652 L1007.67391,64.9130435 L997.326087,64.9130435 Z M1001.3913,66.0217391 L1003.6087,66.0217391 C1003.83043,66.0217391 1003.97826,66.1695652 1003.97826,66.3913043 C1003.97826,66.6130435 1003.83043,66.7608696 1003.6087,66.7608696 L1001.3913,66.7608696 C1001.16957,66.7608696 1001.02174,66.6130435 1001.02174,66.3913043 C1001.02174,66.1695652 1001.16957,66.0217391 1001.3913,66.0217391 Z" id="icn-garage" fill="#737373" fill-rule="nonzero"></path>
        </g>
    </g>
</svg>