<?xml version="1.0" encoding="UTF-8"?>
<svg width="25px" height="25px" viewBox="0 0 25 25" version="1.1" xmlns="http://www.w3.org/2000/svg" xmlns:xlink="http://www.w3.org/1999/xlink">
    <!-- Generator: Sketch 42 (36781) - http://www.bohemiancoding.com/sketch -->
    <title>icn/shopping</title>
    <desc>Created with Sketch.</desc>
    <defs></defs>
    <g id="Symbols" stroke="none" stroke-width="1" fill="none" fill-rule="evenodd">
        <g id="icn/shopping" fill-rule="nonzero" fill="#FFFFFF">
            <path d="M12.0625,0 C9.2958335,0 7.0625,2.27891158 7.0625,5.10204082 L7.0625,6.12244898 L3.5625,6.12244898 L3.109375,6.12244898 L3.0625,6.56887755 L1.0625,24.4260204 L1,25 L1.5625,25 L22.5625,25 L23.125,25 L23.0625,24.4260204 L21.0625,6.56887755 L21.015625,6.12244898 L20.5625,6.12244898 L17.0625,6.12244898 L17.0625,5.10204082 C17.0625,2.27891158 14.8291665,0 12.0625,0 Z M12.0625,1.02040816 C14.2958335,1.02040816 16.0625,2.82312923 16.0625,5.10204082 L16.0625,6.12244898 L8.0625,6.12244898 L8.0625,5.10204082 C8.0625,2.82312923 9.8291665,1.02040816 12.0625,1.02040816 Z M4.015625,7.14285714 L7.0625,7.14285714 L7.0625,8.3067602 C6.764052,8.48331276 6.5625,8.80632449 6.5625,9.18367347 C6.5625,9.74722908 7.0102155,10.2040816 7.5625,10.2040816 C8.1147845,10.2040816 8.5625,9.74722908 8.5625,9.18367347 C8.5625,8.80632449 8.360948,8.48331276 8.0625,8.3067602 L8.0625,7.14285714 L16.0625,7.14285714 L16.0625,8.3067602 C15.764052,8.48331276 15.5625,8.80632449 15.5625,9.18367347 C15.5625,9.74722908 16.0102155,10.2040816 16.5625,10.2040816 C17.1147845,10.2040816 17.5625,9.74722908 17.5625,9.18367347 C17.5625,8.80632449 17.360948,8.48331276 17.0625,8.3067602 L17.0625,7.14285714 L20.109375,7.14285714 L22,23.9795918 L2.125,23.9795918 L4.015625,7.14285714 Z" id="Shape"></path>
        </g>
    </g>
</svg>