<?xml version="1.0" encoding="UTF-8"?>
<svg width="50px" height="50px" viewBox="0 0 50 50" version="1.1" xmlns="http://www.w3.org/2000/svg" xmlns:xlink="http://www.w3.org/1999/xlink">
    <!-- Generator: Sketch 42 (36781) - http://www.bohemiancoding.com/sketch -->
    <title>icn-camera-white</title>
    <desc>Created with Sketch.</desc>
    <defs></defs>
    <g id="Page-1" stroke="none" stroke-width="1" fill="none" fill-rule="evenodd">
        <g id="Assets" transform="translate(-347.000000, -42.000000)">
            <rect id="Rectangle-Copy-4" x="347" y="42" width="50" height="50"></rect>
            <path d="M368.308594,55 C367.685469,55 367.117188,55.3352105 366.726562,55.9276316 L365.710938,57.5263158 L360.125,57.5263158 C358.401875,57.5263158 357,58.9429474 357,60.6842105 L357,75.8421053 C357,77.5833684 358.401875,79 360.125,79 L383.875,79 C385.598125,79 387,77.5833684 387,75.8421053 L387,60.6842105 C387,58.9429474 385.598125,57.5263158 383.875,57.5263158 L378.210938,57.5263158 L377.214844,55.9078947 C376.831719,55.3281053 376.255313,55 375.632812,55 L368.308594,55 Z M362.625,60.6842105 C363.3125,60.6842105 363.875,61.2526316 363.875,61.9473684 C363.875,62.6421053 363.3125,63.2105263 362.625,63.2105263 C361.9375,63.2105263 361.375,62.6421053 361.375,61.9473684 C361.375,61.2526316 361.9375,60.6842105 362.625,60.6842105 Z M372,61.3157895 C375.790625,61.3157895 378.875,64.4326316 378.875,68.2631579 C378.875,72.0936842 375.790625,75.2105263 372,75.2105263 C368.209375,75.2105263 365.125,72.0936842 365.125,68.2631579 C365.125,64.4326316 368.209375,61.3157895 372,61.3157895 Z M372,62.5789474 C368.89875,62.5789474 366.375,65.1292632 366.375,68.2631579 C366.375,71.3976842 368.89875,73.9473684 372,73.9473684 C375.101875,73.9473684 377.625,71.3976842 377.625,68.2631579 C377.625,65.1292632 375.101875,62.5789474 372,62.5789474 Z" id="icn-camera-white" fill="#FFFFFF" fill-rule="nonzero"></path>
        </g>
    </g>
</svg>