<?xml version="1.0" encoding="UTF-8"?>
<svg width="70px" height="70px" viewBox="0 0 70 70" version="1.1" xmlns="http://www.w3.org/2000/svg" xmlns:xlink="http://www.w3.org/1999/xlink">
    <!-- Generator: Sketch 42 (36781) - http://www.bohemiancoding.com/sketch -->
    <title>icn/feature_access</title>
    <desc>Created with Sketch.</desc>
    <defs></defs>
    <g id="Symbols" stroke="none" stroke-width="1" fill="none" fill-rule="evenodd">
        <g id="icn/feature_access" fill-rule="nonzero" fill="#EB1C23">
            <g id="Group-6-Copy-6">
                <path d="M35,70 C15.6700338,70 0,54.3299662 0,35 C0,15.6700338 15.6700338,0 35,0 C54.3299662,0 70,15.6700338 70,35 C70,54.3299662 54.3299662,70 35,70 Z M35,67.5438596 C52.9734774,67.5438596 67.5438596,52.9734774 67.5438596,35 C67.5438596,17.0265226 52.9734774,2.45614035 35,2.45614035 C17.0265226,2.45614035 2.45614035,17.0265226 2.45614035,35 C2.45614035,52.9734774 17.0265226,67.5438596 35,67.5438596 Z" id="Oval-2"></path>
                <path d="M22.8269772,21 C21.8252031,21 21,21.8246874 21,22.8258355 L21,26.4775066 C21,26.9442182 21.1828209,27.3703871 21.4757753,27.6947303 C21.1828209,28.0190736 21,28.4452425 21,28.911954 L21,32.5636251 C21,33.0303367 21.1828209,33.4565056 21.4757753,33.7808488 C21.1828209,34.1051921 21,34.531361 21,34.9980725 L21,38.6497436 C21,39.6508918 21.8252031,40.4755791 22.8269772,40.4755791 L26.4809316,40.4755791 C26.9479349,40.4755791 27.3743703,40.2928727 27.6989163,40.0001011 C28.0234624,40.2928727 28.4498978,40.4755791 28.9169011,40.4755791 L32.5708555,40.4755791 C32.8861985,40.4755791 33.1685956,40.3720415 33.4272511,40.2283306 L33.7317473,41.2553631 C33.3743869,41.2264358 33.2526785,41.2016531 32.6850416,41.1792866 C31.6326278,41.1378219 30.4440105,41.1235743 29.6020176,41.3694778 C28.321957,41.7432367 27.2661773,42.5388044 26.5380246,43.4235428 C25.809872,44.3082812 25.3313479,45.2810261 25.605505,46.2193535 C25.8319949,46.9939277 26.0622493,47.8169596 26.0622493,47.8169596 C26.1064325,47.9741383 26.211947,48.1069892 26.3550903,48.1856688 C26.4982336,48.2643484 26.6670041,48.2822601 26.8234898,48.2353802 L30.4584131,47.1703095 L37.7663219,48.5016479 L38.2991902,48.8820303 C38.4759675,49.011133 38.708235,49.0361781 38.9084997,48.9477315 C39.1087644,48.8592849 39.2466015,48.6707837 39.2700889,48.4532344 C39.2935764,48.2356851 39.199146,48.0221387 39.0223687,47.893036 L38.3753143,47.417558 C38.3008326,47.3680919 38.2163646,47.3356245 38.1279111,47.3224624 L30.5535682,45.9530858 C30.4597568,45.9304853 30.3619144,45.9304853 30.268103,45.9530858 L27.0708929,46.8850227 C26.9807621,46.5763737 26.9095374,46.3665377 26.7663967,45.8770093 C26.7007358,45.6522794 26.888602,44.9104126 27.4705442,44.2033267 C28.0524864,43.4962409 28.9463959,42.821098 29.9445758,42.5296441 C30.4113076,42.393337 31.6181618,42.3567253 32.6279485,42.3965103 C33.6377353,42.4362952 34.4929878,42.5296441 34.4929878,42.5296441 C34.6955572,42.5508824 34.8953414,42.4695184 35.0253584,42.3128312 C35.1553754,42.156144 35.1984131,41.9448763 35.1400422,41.7498602 L34.3407397,39.0111069 C34.3391783,38.9112088 34.3130345,38.8132307 34.2646156,38.7258201 L34.2455846,38.706801 L30.9151574,27.2763097 C30.7024388,26.5490204 31.1007783,25.7962298 31.828646,25.583608 C32.5563901,25.3710223 33.3096516,25.7691131 33.5224061,26.4965258 L35.9203137,34.6937666 C36.0408795,34.979037 36.3565488,35.128368 36.6537462,35.0407252 C36.9509436,34.9530824 37.134922,34.6564066 37.0812054,34.3514224 C36.8684868,33.6241331 37.2858573,32.8713423 38.013725,32.6587207 C38.7414691,32.446135 39.4756996,32.8632447 39.6884541,33.5906576 L39.8787642,34.2182886 C39.9993301,34.503559 40.3149994,34.6528899 40.6121967,34.5652472 C40.9093941,34.4776044 41.0933725,34.1809286 41.039656,33.8759444 C40.8269374,33.1486551 41.2443079,32.3958643 41.9721756,32.1832427 C42.6999197,31.970657 43.4531812,32.3877667 43.6659357,33.1151796 L43.6469047,33.1151796 L43.9323699,34.0280974 C44.0148575,34.319011 44.2985264,34.5053055 44.5984553,34.4655371 L44.6365173,34.4655371 C44.9582518,34.4164895 45.1845524,34.1233203 45.1503547,33.7998679 C45.080027,33.1563698 45.4728216,32.5434715 46.1209363,32.3544148 C46.8486804,32.1418291 47.5829108,32.5399197 47.7956654,33.2673326 C47.8568193,33.4780191 48.0258131,33.6400869 48.2389719,33.6924705 C48.4521307,33.7448541 48.6770604,33.6795927 48.82901,33.5212762 C48.9809595,33.3629596 49.0368369,33.1356474 48.9755882,32.9249884 C48.5781323,31.5660799 47.1382599,30.777986 45.7783781,31.1752293 C45.2326003,31.3344337 44.7866547,31.6664296 44.4652382,32.0881471 C43.8562233,31.176508 42.7337961,30.7005279 41.6296174,31.0230764 C41.1724072,31.156635 40.7865387,31.4133725 40.4877566,31.7458029 L40.4877566,28.911954 C40.4877566,28.4452425 40.3049359,28.0190736 40.0119813,27.6947303 C40.3049359,27.3703871 40.4877566,26.9442182 40.4877566,26.4775066 L40.4877566,22.8258355 C40.4877566,21.8246874 39.6625537,21 38.6607795,21 L35.0068251,21 C34.5398217,21 34.1133864,21.1827067 33.7888403,21.475478 C33.4642942,21.1827067 33.0378589,21 32.5708555,21 L28.9169011,21 C28.4498978,21 28.0234624,21.1827067 27.6989163,21.475478 C27.3743703,21.1827067 26.9479349,21 26.4809316,21 L22.8269772,21 Z M22.8269772,22.2172237 L26.4809316,22.2172237 C26.8250305,22.2172237 27.089924,22.4819515 27.089924,22.8258355 L27.089924,26.4775066 C27.089924,26.8213906 26.8250305,27.0861185 26.4809316,27.0861185 L22.8269772,27.0861185 C22.4828781,27.0861185 22.2179848,26.8213906 22.2179848,26.4775066 L22.2179848,22.8258355 C22.2179848,22.4819515 22.4828781,22.2172237 22.8269772,22.2172237 Z M28.9169011,22.2172237 L32.5708555,22.2172237 C32.9149545,22.2172237 33.1798479,22.4819515 33.1798479,22.8258355 L33.1798479,24.4995181 C32.9688637,24.4132752 32.7433587,24.3555012 32.5137625,24.328346 C32.1812508,24.2890188 31.8260584,24.3051117 31.4860878,24.4044225 C30.302586,24.7501425 29.5527489,25.8978793 29.6400796,27.0861185 L28.9169011,27.0861185 C28.5728022,27.0861185 28.3079087,26.8213906 28.3079087,26.4775066 L28.3079087,22.8258355 C28.3079087,22.4819515 28.5728022,22.2172237 28.9169011,22.2172237 Z M35.0068251,22.2172237 L38.6607795,22.2172237 C39.0048784,22.2172237 39.2697719,22.4819515 39.2697719,22.8258355 L39.2697719,26.4775066 C39.2697719,26.8213906 39.0048784,27.0861185 38.6607795,27.0861185 L34.9497321,27.0861185 L34.6832979,26.1732007 C34.6168599,25.9460485 34.5164711,25.7386959 34.3978327,25.5455697 L34.3978327,25.3363594 C34.4003142,25.3047094 34.4003142,25.2729138 34.3978327,25.2412638 L34.3978327,22.8258355 C34.3978327,22.4819515 34.6627261,22.2172237 35.0068251,22.2172237 Z M22.8269772,28.3033422 L26.4809316,28.3033422 C26.8250305,28.3033422 27.089924,28.5680701 27.089924,28.911954 L27.089924,32.5636251 C27.089924,32.9075091 26.8250305,33.172237 26.4809316,33.172237 L22.8269772,33.172237 C22.4828781,33.172237 22.2179848,32.9075091 22.2179848,32.5636251 L22.2179848,28.911954 C22.2179848,28.5680701 22.4828781,28.3033422 22.8269772,28.3033422 Z M28.9169011,28.3033422 L29.9445758,28.3033422 L31.3719017,33.172237 L28.9169011,33.172237 C28.5728022,33.172237 28.3079087,32.9075091 28.3079087,32.5636251 L28.3079087,28.911954 C28.3079087,28.5680701 28.5728022,28.3033422 28.9169011,28.3033422 Z M35.3113213,28.3033422 L38.6607795,28.3033422 C39.0048784,28.3033422 39.2697719,28.5680701 39.2697719,28.911954 L39.2697719,31.5746309 C38.7743218,31.381525 38.2219292,31.3376678 37.6711668,31.4985544 C37.1818006,31.6415064 36.8041169,31.9557071 36.4912441,32.3163766 L35.3113213,28.3033422 Z M22.8269772,34.3894607 L26.4809316,34.3894607 C26.8250305,34.3894607 27.089924,34.6541886 27.089924,34.9980725 L27.089924,38.6497436 C27.089924,38.9936276 26.8250305,39.2583555 26.4809316,39.2583555 L22.8269772,39.2583555 C22.4828781,39.2583555 22.2179848,38.9936276 22.2179848,38.6497436 L22.2179848,34.9980725 C22.2179848,34.6541886 22.4828781,34.3894607 22.8269772,34.3894607 Z M28.9169011,34.3894607 L31.71446,34.3894607 L33.0656618,38.9920878 C32.9538764,39.1479405 32.7788611,39.2583555 32.5708555,39.2583555 L28.9169011,39.2583555 C28.5728022,39.2583555 28.3079087,38.9936276 28.3079087,38.6497436 L28.3079087,34.9980725 C28.3079087,34.6541886 28.5728022,34.3894607 28.9169011,34.3894607 Z" id="Shape" stroke="#EB1C23" stroke-width="0.5"></path>
            </g>
        </g>
    </g>
</svg>