<?xml version="1.0" encoding="UTF-8"?>
<svg width="70px" height="70px" viewBox="0 0 70 70" version="1.1" xmlns="http://www.w3.org/2000/svg" xmlns:xlink="http://www.w3.org/1999/xlink">
    <!-- Generator: Sketch 42 (36781) - http://www.bohemiancoding.com/sketch -->
    <title>icn/feature_dining</title>
    <desc>Created with Sketch.</desc>
    <defs></defs>
    <g id="Symbols" stroke="none" stroke-width="1" fill="none" fill-rule="evenodd">
        <g id="icn/feature_dining" fill-rule="nonzero" fill="#EB1C23">
            <path d="M35,70 C15.6700338,70 0,54.3299662 0,35 C0,15.6700338 15.6700338,0 35,0 C54.3299662,0 70,15.6700338 70,35 C70,54.3299662 54.3299662,70 35,70 Z M35,67.5438596 C52.9734774,67.5438596 67.5438596,52.9734774 67.5438596,35 C67.5438596,17.0265226 52.9734774,2.45614035 35,2.45614035 C17.0265226,2.45614035 2.45614035,17.0265226 2.45614035,35 C2.45614035,52.9734774 17.0265226,67.5438596 35,67.5438596 Z" id="Oval-2"></path>
            <path d="M31.7914286,23 L31.7914286,25.3157895 L38.7685714,25.3157895 L38.7685714,23 L31.7914286,23 Z M35.28,26.4736842 C27.9597668,26.4736842 21.9938297,32.0766535 21.3983929,39.2105263 L20.1628571,39.2105263 L19,39.2105263 L19,40.3684211 L19,43.8421053 L19,45 L20.1628571,45 L50.3971429,45 L51.56,45 L51.56,43.8421053 L51.56,40.3684211 L51.56,39.2105263 L50.3971429,39.2105263 L49.1616071,39.2105263 C48.5661708,32.0766535 42.6002334,26.4736842 35.28,26.4736842 Z M35.28,28.7894737 C41.358488,28.7894737 46.2617938,33.3200553 46.8358929,39.2105263 L23.7241071,39.2105263 C24.298206,33.3200553 29.201512,28.7894737 35.28,28.7894737 Z M21.3257143,41.5263158 L49.2342857,41.5263158 L49.2342857,42.6842105 L21.3257143,42.6842105 L21.3257143,41.5263158 Z" id="Shape"></path>
        </g>
    </g>
</svg>