<?xml version="1.0" encoding="UTF-8"?>
<svg width="70px" height="70px" viewBox="0 0 70 70" version="1.1" xmlns="http://www.w3.org/2000/svg" xmlns:xlink="http://www.w3.org/1999/xlink">
    <!-- Generator: Sketch 42 (36781) - http://www.bohemiancoding.com/sketch -->
    <title>icn/feature_banking</title>
    <desc>Created with Sketch.</desc>
    <defs></defs>
    <g id="Symbols" stroke="none" stroke-width="1" fill="none" fill-rule="evenodd">
        <g id="icn/feature_banking" fill-rule="nonzero" fill="#EB1C23">
            <g id="Group-6-Copy">
                <path d="M35,70 C15.6700338,70 0,54.3299662 0,35 C0,15.6700338 15.6700338,0 35,0 C54.3299662,0 70,15.6700338 70,35 C70,54.3299662 54.3299662,70 35,70 Z M35,67.5438596 C52.9734774,67.5438596 67.5438596,52.9734774 67.5438596,35 C67.5438596,17.0265226 52.9734774,2.45614035 35,2.45614035 C17.0265226,2.45614035 2.45614035,17.0265226 2.45614035,35 C2.45614035,52.9734774 17.0265226,67.5438596 35,67.5438596 Z" id="Oval-2"></path>
                <path d="M22.4285714,22 C20.5486059,22 19,23.539807 19,25.4090909 L19,39.0454545 C19,40.9147386 20.5486059,42.4545455 22.4285714,42.4545455 L23.5714286,42.4545455 L23.5714286,43.5909091 C23.5714286,45.4601932 25.1200345,47 27,47 L47.5714286,47 C49.4513943,47 51,45.4601932 51,43.5909091 L51,29.9545455 C51,28.0852614 49.4513943,26.5454545 47.5714286,26.5454545 L46.4285714,26.5454545 L46.4285714,25.4090909 C46.4285714,23.539807 44.8799657,22 43,22 L22.4285714,22 Z M22.2,24 L43.8,24 C44.478036,24 45,24.5281776 45,25.2142857 L45,26.4285714 L22.2,26.4285714 L22.2,27.7946429 L45,27.7946429 L45,39.7857143 C45,40.4718221 44.478036,41 43.8,41 L22.2,41 C21.5219638,41 21,40.4718221 21,39.7857143 L21,25.2142857 C21,24.5281776 21.5219638,24 22.2,24 Z M47,29 L48,29 C48.56503,29 49,29.43497 49,30 L49,31 L47,31 L47,29 Z M46.7,33 L49,33 L49,43.8 C49,44.478036 48.4997845,45 47.85,45 L27.15,45 C26.5002153,45 26,44.478036 26,43.8 L26,42.6 L43.25,42.6 C45.1417155,42.6 46.7,40.973964 46.7,39 L46.7,33 Z" id="Shape"></path>
            </g>
        </g>
    </g>
</svg>