<?xml version="1.0" encoding="UTF-8"?>
<svg width="70px" height="70px" viewBox="0 0 70 70" version="1.1" xmlns="http://www.w3.org/2000/svg" xmlns:xlink="http://www.w3.org/1999/xlink">
    <!-- Generator: Sketch 42 (36781) - http://www.bohemiancoding.com/sketch -->
    <title>icn/feature_generator</title>
    <desc>Created with Sketch.</desc>
    <defs></defs>
    <g id="Symbols" stroke="none" stroke-width="1" fill="none" fill-rule="evenodd">
        <g id="icn/feature_generator" fill-rule="nonzero" fill="#EB1C23">
            <g id="Group-6-Copy-7">
                <path d="M35,70 C15.6700338,70 0,54.3299662 0,35 C0,15.6700338 15.6700338,0 35,0 C54.3299662,0 70,15.6700338 70,35 C70,54.3299662 54.3299662,70 35,70 Z M35,67.5438596 C52.9734774,67.5438596 67.5438596,52.9734774 67.5438596,35 C67.5438596,17.0265226 52.9734774,2.45614035 35,2.45614035 C17.0265226,2.45614035 2.45614035,17.0265226 2.45614035,35 C2.45614035,52.9734774 17.0265226,67.5438596 35,67.5438596 Z" id="Oval-2"></path>
                <path d="M32.9807692,22.6153846 L32.9807692,25.4414716 L36.7776442,25.4414716 L36.7776442,28.2675585 L39.3088942,28.2675585 L39.3088942,25.4414716 L43.1057692,25.4414716 L43.1057692,22.6153846 L32.9807692,22.6153846 Z M29.8870192,29.3979933 L29.4852335,29.9585006 L27.2754121,33.2414716 L24.1414835,33.2414716 L22.8557692,33.2414716 L22.8557692,34.522631 L22.8557692,43.4907469 L22.8557692,44.7719064 L24.1414835,44.7719064 L26.1504121,44.7719064 L29.6459478,48.2550585 L30.0477335,48.6153846 L30.5700549,48.6153846 L42.1414835,48.6153846 L42.6638049,48.6153846 L43.0655907,48.2550585 L48.2084478,43.1304208 L48.5700549,42.7300585 L48.5700549,42.2095875 L48.5700549,37.0849498 L49.8557692,37.0849498 L49.8557692,34.522631 L48.5700549,34.522631 L48.5700549,30.6791527 L48.5700549,29.3979933 L47.2843407,29.3979933 L30.5700549,29.3979933 L29.8870192,29.3979933 Z M50.9807692,30.5284281 L50.9807692,40.7023411 L53.2307692,40.7023411 L53.2307692,30.5284281 L50.9807692,30.5284281 Z M30.983067,31.2820513 L46.8778281,31.2820513 L46.8778281,41.7091346 L42.1007141,46.4487179 L30.8093538,46.4487179 L27.0310909,42.7001384 L26.5968078,42.3123543 L26.0322398,42.3123543 L24.6425339,42.3123543 L24.6425339,35.4184149 L27.4219457,35.4184149 L28.160227,35.4184149 L28.59451,34.8151952 L30.983067,31.2820513 Z M17.2307692,33.9197324 L17.2307692,41.8327759 L19.4807692,41.8327759 L19.4807692,39.1950948 L20.6057692,39.1950948 L20.6057692,36.5574136 L19.4807692,36.5574136 L19.4807692,33.9197324 L17.2307692,33.9197324 Z M37,33 L34,38.953125 L37,40.3125 L37,45 L40,39 L37,37.6875 L37,33 Z" id="Shape"></path>
            </g>
        </g>
    </g>
</svg>