<?xml version="1.0" encoding="UTF-8"?>
<svg width="70px" height="70px" viewBox="0 0 70 70" version="1.1" xmlns="http://www.w3.org/2000/svg" xmlns:xlink="http://www.w3.org/1999/xlink">
    <!-- Generator: Sketch 42 (36781) - http://www.bohemiancoding.com/sketch -->
    <title>icn/feature_parking</title>
    <desc>Created with Sketch.</desc>
    <defs></defs>
    <g id="Symbols" stroke="none" stroke-width="1" fill="none" fill-rule="evenodd">
        <g id="icn/feature_parking" fill-rule="nonzero" fill="#EB1C23">
            <g id="Group-6-Copy">
                <path d="M35,70 C15.6700338,70 0,54.3299662 0,35 C0,15.6700338 15.6700338,0 35,0 C54.3299662,0 70,15.6700338 70,35 C70,54.3299662 54.3299662,70 35,70 Z M35,67.5438596 C52.9734774,67.5438596 67.5438596,52.9734774 67.5438596,35 C67.5438596,17.0265226 52.9734774,2.45614035 35,2.45614035 C17.0265226,2.45614035 2.45614035,17.0265226 2.45614035,35 C2.45614035,52.9734774 17.0265226,67.5438596 35,67.5438596 Z" id="Oval-2"></path>
                <path d="M35.1538462,19 L34.6878698,19.191453 L19.7766272,25.3179487 L19,25.6625641 L19,26.4666667 L19,44.8461538 L21.4852071,44.8461538 L21.4852071,27.3090598 L35.1538462,21.6803419 L48.8224852,27.3090598 L48.8224852,44.8461538 L51.3076923,44.8461538 L51.3076923,26.4666667 L51.3076923,25.6625641 L50.5310651,25.3179487 L35.6198225,19.191453 L35.1538462,19 Z M29.5621302,26.4666667 C27.8915193,26.4666667 26.55267,27.615463 26.0284763,28.9938462 L26.0284763,29.0321368 L24.2810651,34.2779487 L24.3975592,34.3162393 C24.1986495,34.7507659 23.9704142,35.2575509 23.9704142,35.4266667 L23.9704142,39.9449573 C23.9704142,40.5848354 24.2008793,41.244349 24.6693787,41.7063248 C24.8282806,41.8630136 25.0166185,41.9862542 25.2130178,42.0892308 L25.2130178,43.6208547 C25.2130178,44.3560342 25.7100592,44.8461538 26.4556213,44.8461538 C27.2011834,44.8461538 27.6982249,44.3560342 27.6982249,43.6208547 L27.6982249,42.3955556 L42.6094675,42.3955556 L42.6094675,43.6208547 C42.6094675,44.3560342 43.1065089,44.8461538 43.852071,44.8461538 C44.5976331,44.8461538 45.0946746,44.3560342 45.0946746,43.6208547 L45.0946746,42.0892308 C45.2910743,41.9862542 45.479412,41.8630136 45.6383136,41.7063248 C46.1068137,41.244349 46.3372781,40.5848354 46.3372781,39.9449573 L46.3372781,35.4266667 C46.3372781,35.2106881 46.2876609,34.7411339 46.1042899,34.2779487 L46.1431213,34.2779487 L44.3957101,29.0321368 L44.3957101,28.9938462 C43.8715165,27.615463 42.5326671,26.4666667 40.8620562,26.4666667 L29.5621302,26.4666667 Z M29.5621302,28.917265 L40.8620562,28.917265 C41.4281317,28.917265 41.8444598,29.2541438 42.0658284,29.8362393 L42.9589497,32.5931624 L27.4652367,32.5931624 L28.3971893,29.7979487 C28.6236141,29.2536267 29.0163116,28.917265 29.5621302,28.917265 Z M26.6497781,35.0437607 L43.7744083,35.0437607 L43.8132396,35.1586325 L43.852071,35.2352137 C43.8281385,35.1880274 43.852071,35.1816068 43.852071,35.4266667 L43.852071,39.9449573 L26.4556213,39.9449573 L26.4556213,35.4266667 L26.533284,35.3500855 L26.6497781,35.0437607 Z M28.9408284,36.2690598 C28.2545571,36.2690598 27.6982249,36.8176446 27.6982249,37.494359 C27.6982249,38.1710733 28.2545571,38.7196581 28.9408284,38.7196581 C29.6270997,38.7196581 30.183432,38.1710733 30.183432,37.494359 C30.183432,36.8176446 29.6270997,36.2690598 28.9408284,36.2690598 Z M41.3668639,36.2690598 C40.6805926,36.2690598 40.1242604,36.8176446 40.1242604,37.494359 C40.1242604,38.1710733 40.6805926,38.7196581 41.3668639,38.7196581 C42.0531352,38.7196581 42.6094675,38.1710733 42.6094675,37.494359 C42.6094675,36.8176446 42.0531352,36.2690598 41.3668639,36.2690598 Z" id="Shape"></path>
            </g>
        </g>
    </g>
</svg>