<?xml version="1.0" encoding="UTF-8"?>
<svg width="25px" height="25px" viewBox="0 0 25 25" version="1.1" xmlns="http://www.w3.org/2000/svg" xmlns:xlink="http://www.w3.org/1999/xlink">
    <!-- Generator: Sketch 42 (36781) - http://www.bohemiancoding.com/sketch -->
    <title>icn/walk</title>
    <desc>Created with Sketch.</desc>
    <defs></defs>
    <g id="Symbols" stroke="none" stroke-width="1" fill="none" fill-rule="evenodd">
        <g id="icn/walk" fill-rule="nonzero" fill="#FFFFFF">
            <path d="M13.7442559,0 C12.2313954,0 10.9942559,1.2371392 10.9942559,2.75 C10.9942559,4.2628608 12.2313954,5.5 13.7442559,5.5 C15.2571164,5.5 16.4942559,4.2628608 16.4942559,2.75 C16.4942559,1.2371392 15.2571164,0 13.7442559,0 Z M13.7442559,1 C14.7166764,1 15.4942559,1.7775794 15.4942559,2.75 C15.4942559,3.7224206 14.7166764,4.5 13.7442559,4.5 C12.7718354,4.5 11.9942559,3.7224206 11.9942559,2.75 C11.9942559,1.7775794 12.7718354,1 13.7442559,1 Z M11.6036309,5.5 C10.8874599,5.5 10.4865314,5.813936 10.1817559,5.984375 C10.1543421,5.99759012 10.1281919,6.01328023 10.1036309,6.03125 L7.04113093,8.640625 L7.05675593,8.671875 C6.72638943,8.8916815 6.46031593,9.1990215 6.33800593,9.578125 C6.33145959,9.59860082 6.32624043,9.61947747 6.32238093,9.640625 L5.54113093,13.8125 C5.53556017,13.8227315 5.53034865,13.8331545 5.52550593,13.84375 C5.46585543,14.289541 5.56664593,14.6929945 5.79113093,14.984375 C6.01561793,15.2757555 6.32669493,15.424193 6.61925593,15.484375 C6.91761393,15.5461495 7.23276643,15.51161 7.52550593,15.359375 C7.81824543,15.2071425 8.08392543,14.8988775 8.16613093,14.5 C8.23814643,14.151924 8.91593643,11.187878 8.97863093,10.90625 L9.75988093,10.296875 C9.55995493,11.26506 9.31724243,12.3928035 9.24425593,12.765625 C9.16843193,13.152091 9.19185543,13.5029635 9.25988093,13.828125 L7.91613093,18.6875 C7.83139993,18.809984 6.03603443,21.422052 5.50988093,22.1875 C5.28793143,22.5103605 5.06708143,22.8875835 5.00988093,23.34375 C4.95268023,23.7999165 5.14295093,24.339735 5.60363093,24.6875 C6.12484943,25.080688 6.78353393,25.034989 7.19738093,24.796875 C7.61122793,24.558761 7.87973093,24.216671 8.07238093,24 C8.31105143,23.732144 8.74018293,23.1248645 9.21300593,22.484375 C9.68582893,21.8438855 10.1775029,21.1786645 10.3692559,20.9375 C10.6802549,20.546404 10.8619189,20.1888325 10.9942559,19.859375 C11.0648854,19.6836845 11.3951304,18.8048195 11.6817559,18.0625 C12.0788664,18.6839675 12.1847489,18.846867 12.6348809,19.546875 C13.2597734,20.5186555 13.9013864,21.4946455 14.4161309,22.28125 C14.9308754,23.0678545 15.3055914,23.6300365 15.4942559,23.875 C15.8128744,24.288697 16.1358479,24.6498525 16.5880059,24.84375 C17.0401639,25.0376475 17.5953969,24.9854435 18.1036309,24.703125 C18.6042309,24.4254935 18.8560304,23.9030235 18.8692559,23.421875 C18.8824809,22.9407265 18.7108174,22.4725115 18.4786309,22.078125 C18.0638809,21.3745505 13.8216334,14.4752195 13.6348809,14.171875 C13.6644994,14.0395845 13.8904059,13.040379 14.0880059,12.15625 C14.1618104,12.2649335 14.2037379,12.3190075 14.2598809,12.40625 C14.4438979,12.6924985 14.6968659,12.8639575 15.0567559,13.0625 C15.3904269,13.2461975 15.9591214,13.4255045 16.6036309,13.65625 C17.2481404,13.8869955 17.9228324,14.1342045 18.1817559,14.25 C18.5057599,14.3947865 18.8731054,14.5092445 19.2598809,14.5 C19.6466564,14.490755 20.1058089,14.3007555 20.3380059,13.890625 C20.5630169,13.493595 20.5257654,13.0453785 20.3692559,12.703125 C20.2127464,12.3608715 19.9529279,12.0903825 19.6192559,11.9375 C19.3527759,11.815647 18.5195409,11.4723485 17.7130059,11.140625 C17.0034819,10.8488015 16.4878809,10.6392855 16.3380059,10.578125 C16.2414084,10.3705815 15.2910364,8.3222075 14.7755059,7.15625 C14.7678639,7.1343855 14.7525149,7.115425 14.7442559,7.09375 C14.7394132,7.0831545 14.7342017,7.07273148 14.7286309,7.0625 C14.5853664,6.7015375 14.3727819,6.36387 14.0880059,6.09375 C13.7292539,5.753461 13.2630709,5.5 12.7286309,5.5 L11.6036309,5.5 Z M11.6036309,6.5 L12.7286309,6.5 C12.9301909,6.5 13.1787579,6.617789 13.4005059,6.828125 C13.5971074,7.0146085 13.7560149,7.262739 13.8380059,7.5 C13.8424386,7.51587293 13.8476533,7.53151702 13.8536309,7.546875 C13.8582014,7.5619095 13.8653829,7.578896 13.8692559,7.59375 C13.9955169,8.076413 13.9406524,8.249436 13.8380059,8.71875 C13.8030119,8.8787465 13.6023169,9.787324 13.4005059,10.6875 C13.3971124,10.702636 13.3882919,10.703535 13.3848809,10.71875 C13.3783346,10.7392258 13.3731154,10.7601025 13.3692559,10.78125 C13.3610829,10.811933 13.3558509,10.8433248 13.3536309,10.875 C13.0083384,12.4147965 12.6192559,14.15625 12.6192559,14.15625 C12.5899069,14.2846035 12.6123652,14.4193531 12.6817559,14.53125 C12.6817559,14.53125 17.2691174,21.999781 17.6192559,22.59375 C17.7735694,22.8558635 17.8754054,23.1668985 17.8692559,23.390625 C17.8631059,23.6143515 17.8146559,23.7197565 17.6192559,23.828125 C17.2939899,24.0088065 17.1552229,23.9976025 16.9786309,23.921875 C16.8020389,23.8461475 16.5690124,23.626428 16.2911309,23.265625 C16.1815454,23.1233385 15.7562769,22.5168175 15.2442559,21.734375 C14.7322349,20.9519325 14.1028009,19.970657 13.4786309,19 C12.8014624,17.9469245 12.5360089,17.541219 12.0411309,16.765625 C12.0412123,16.760417 12.0412123,16.755208 12.0411309,16.75 C12.0346809,16.7398915 12.0318984,16.7287685 12.0255059,16.71875 C12.0073367,16.6906844 11.9863986,16.6645118 11.9630059,16.640625 C11.5879389,16.052838 10.9229454,15.0031375 10.8380059,14.875 C10.4569739,14.3009585 10.0778059,13.7218575 10.2286309,12.953125 C10.3388914,12.3899015 10.6820264,10.7253055 11.0098809,9.203125 C11.0639608,8.9945712 10.9783793,8.77482603 10.7974927,8.65778176 C10.6166061,8.5407375 10.3810881,8.55271242 10.2130059,8.6875 L8.21300593,10.234375 C8.11975385,10.3035182 8.05346428,10.4029526 8.02550593,10.515625 C8.02550593,10.515625 7.28995343,13.849441 7.19738093,14.296875 C7.17808593,14.3904975 7.13226643,14.4294825 7.05675593,14.46875 C6.98124543,14.508015 6.86452293,14.508725 6.82238093,14.5 C6.69444193,14.47368 6.61426893,14.4293695 6.57238093,14.375 C6.53367293,14.3247575 6.50484943,14.214719 6.52550593,14 L6.52550593,13.984375 C6.52655593,13.9751 6.52420593,13.978495 6.52550593,13.96875 L7.29113093,9.890625 C7.36924143,9.64852 7.43750043,9.548275 7.60363093,9.453125 C7.63104474,9.43990988 7.65719491,9.42421977 7.68175593,9.40625 L10.6661309,6.859375 C10.6747059,6.854575 10.6734959,6.84845 10.6817559,6.84375 C11.0794134,6.6175615 11.1404259,6.5 11.6036309,6.5 Z M14.6973809,9.390625 C15.0326399,10.123894 15.5098809,11.171875 15.5098809,11.171875 C15.5637854,11.2856817 15.6586441,11.3749604 15.7755059,11.421875 C15.7755059,11.421875 16.5331659,11.7314735 17.3380059,12.0625 C18.1428459,12.3935265 19.0289859,12.759603 19.2130059,12.84375 C19.2918339,12.879865 19.4093904,12.9921285 19.4630059,13.109375 C19.5166214,13.2266215 19.5139949,13.31628 19.4630059,13.40625 C19.4192009,13.4836195 19.4066054,13.4961195 19.2442559,13.5 C19.0819064,13.5039 18.8145019,13.4449635 18.5880059,13.34375 C18.2264294,13.1820455 17.5734964,12.9485045 16.9317559,12.71875 C16.2900154,12.4889955 15.6279599,12.2353025 15.5411309,12.1875 C15.1850209,11.9910425 15.1649889,11.9947515 15.0880059,11.875 C14.8385899,11.4874245 14.4933269,10.984859 14.3848809,10.828125 C14.5245499,10.2024575 14.6301369,9.6936065 14.6973809,9.390625 Z M9.90050593,15.25 C9.93633693,15.304641 9.97680143,15.3720395 10.0098809,15.421875 L9.99425593,15.421875 C10.0532979,15.510944 10.6990454,16.51984 11.0255059,17.03125 C10.8918684,17.380345 10.1216394,19.3774685 10.0723809,19.5 C9.96571793,19.7655425 9.84000693,19.995596 9.58800593,20.3125 C9.35675893,20.6033355 8.88730793,21.2523645 8.41613093,21.890625 C7.94495393,22.5288855 7.45171043,23.182981 7.32238093,23.328125 C7.11403093,23.562454 6.88640893,23.813114 6.69738093,23.921875 C6.50835293,24.030636 6.46528743,24.080937 6.21300593,23.890625 C5.98418593,23.71789 5.97195643,23.6465835 5.99425593,23.46875 C6.01655593,23.2909165 6.15745543,23.0126395 6.33800593,22.75 C6.87248943,21.9724335 8.79113093,19.1875 8.79113093,19.1875 C8.82613901,19.1404042 8.85258414,19.0875139 8.86925593,19.03125 L9.90050593,15.25 Z" id="Shape"></path>
        </g>
    </g>
</svg>