<?xml version="1.0" encoding="UTF-8"?>
<svg width="50px" height="50px" viewBox="0 0 50 50" version="1.1" xmlns="http://www.w3.org/2000/svg" xmlns:xlink="http://www.w3.org/1999/xlink">
    <!-- Generator: Sketch 42 (36781) - http://www.bohemiancoding.com/sketch -->
    <title>icn-check</title>
    <desc>Created with Sketch.</desc>
    <defs></defs>
    <g id="Page-1" stroke="none" stroke-width="1" fill="none" fill-rule="evenodd">
        <g id="Assets" transform="translate(-767.000000, -42.000000)">
            <rect id="Rectangle-Copy-10" x="767" y="42" width="50" height="50"></rect>
            <path d="M796.003243,61.5054011 C796.192973,61.2026591 796.520632,61.0138025 796.877756,61.0012521 C797.278861,60.981618 797.662999,61.194142 797.862662,61.5503481 C798.06242,61.9067229 798.043049,62.3454159 797.817933,62.6749451 L792.026952,71.5106991 C791.858527,71.7696546 791.586909,71.9437596 791.281242,71.9887629 C790.975616,72.0337601 790.66536,71.945362 790.425045,71.7422971 L786.438298,68.2930928 C786.111112,68.0523197 785.947389,67.6479105 786.015064,67.247416 C786.082726,66.8469944 786.370152,66.5188166 786.758177,66.398739 C787.146081,66.2786989 787.568591,66.387027 787.818029,66.6479815 L790.898632,69.3074341 L796.003243,61.5054011 Z" id="icn-check" fill="#EB1C23" fill-rule="nonzero"></path>
        </g>
    </g>
</svg>