<?xml version="1.0" encoding="UTF-8"?>
<svg width="70px" height="70px" viewBox="0 0 70 70" version="1.1" xmlns="http://www.w3.org/2000/svg" xmlns:xlink="http://www.w3.org/1999/xlink">
    <!-- Generator: Sketch 42 (36781) - http://www.bohemiancoding.com/sketch -->
    <title>icn/feature_restaurants</title>
    <desc>Created with Sketch.</desc>
    <defs></defs>
    <g id="Symbols" stroke="none" stroke-width="1" fill="none" fill-rule="evenodd">
        <g id="icn/feature_restaurants" fill-rule="nonzero" fill="#EB1C23">
            <g id="Group-6-Copy">
                <path d="M35,70 C15.6700338,70 0,54.3299662 0,35 C0,15.6700338 15.6700338,0 35,0 C54.3299662,0 70,15.6700338 70,35 C70,54.3299662 54.3299662,70 35,70 Z M35,67.5438596 C52.9734774,67.5438596 67.5438596,52.9734774 67.5438596,35 C67.5438596,17.0265226 52.9734774,2.45614035 35,2.45614035 C17.0265226,2.45614035 2.45614035,17.0265226 2.45614035,35 C2.45614035,52.9734774 17.0265226,67.5438596 35,67.5438596 Z" id="Oval-2"></path>
                <path d="M30.0174961,19.0000046 C28.5275523,18.9996741 27.5356766,19.1650039 26.8949988,19.3437544 C26.5746586,19.4331296 26.3423567,19.525108 26.181249,19.6025041 C26.0201412,19.6799003 25.8949989,19.768754 25.8949996,19.768754 L25.6787495,19.9312539 L25.6449992,20.2012536 C25.6450024,20.2012536 25,25.3177807 25,28.5999968 C25.000704,30.5749603 25.9675774,31.7518189 26.8337483,32.4649933 C27.266834,32.8215818 27.6710743,33.0902318 27.9149979,33.3074931 C28.1589197,33.5247537 28.1999974,33.6119428 28.1999974,33.7199926 C28.1997222,34.3232785 28.0407399,36.1040387 27.8799976,38.0824889 C27.7192899,40.0605199 27.5580984,42.2756791 27.5599979,43.9599842 C27.5599979,47.0039657 27.7726544,48.6458281 28.2037471,49.6662298 C28.4192938,50.1764304 28.7210261,50.5500557 29.0887467,50.7612286 C29.4564674,50.9724015 29.8334802,50.9996047 30.1187459,50.9999785 C30.4053197,51.0008745 30.783082,50.9746217 31.1512449,50.7637284 C31.5198315,50.5525907 31.8218965,50.1780726 32.0374944,49.6674797 C32.4686896,48.6462934 32.6812878,47.0036777 32.6799937,43.9599842 C32.6799937,42.2765712 32.5189167,40.0607561 32.3587441,38.0824889 C32.1985714,36.1042223 32.0405466,34.3250737 32.0399942,33.7199926 L32.0399942,33.7187427 C32.0398464,33.6106743 32.0781958,33.5308702 32.3212439,33.3174931 C32.5642895,33.104116 32.9693247,32.839112 33.4037429,32.4849933 C34.2725799,31.7767872 35.2399916,30.5971856 35.2399916,28.5999968 C35.2399916,26.3677151 34.5962424,20.2150036 34.5962424,20.2150036 L34.5637419,19.8975039 L34.2912423,19.732504 C34.2912423,19.732504 33.9121342,19.5145787 33.2299933,19.3400044 C32.5478524,19.16543 31.5076228,19.0003351 30.0174961,19.0000046 Z M38.4424889,19.0000046 C38.2723229,18.999357 38.1089035,19.0664973 37.9883428,19.1865889 C37.8677822,19.3066805 37.8000053,19.4698369 37.7999895,19.6400041 L37.7999895,26.6799984 C37.7999891,26.680415 37.7999891,26.6808316 37.7999895,26.6812483 C37.8006935,27.1304722 37.8631056,32.4386298 37.8637392,33.8162428 C37.86428,34.4068138 37.6898565,36.8444541 37.5137395,39.3674882 C37.3376226,41.8904915 37.1599901,44.5412638 37.1599901,45.8799827 C37.1599901,47.817119 37.2164124,48.9442362 37.4649895,49.7362298 C37.5892774,50.1322262 37.7882897,50.4764986 38.0999893,50.6974789 C38.4116889,50.9184592 38.7689385,50.9708201 39.0787386,50.9712284 C39.0791552,50.9712288 39.0795719,50.9712288 39.0799885,50.9712284 C39.7897326,50.9707625 40.6984492,50.5214515 41.294987,49.3662301 C41.891494,48.211008 42.2803116,46.3735259 42.2799859,43.3199848 C42.2796492,41.6028303 41.938397,40.2700097 41.6099864,39.2262383 C41.2815758,38.1824664 40.9997565,37.4225688 40.9999869,36.91999 C40.9995044,36.0262371 41.7229879,34.7301883 42.5437354,33.2324928 C43.3644835,31.7347974 44.2460675,30.0013057 44.2474844,28.0087474 C44.2474848,28.0083307 44.2474848,28.0079141 44.2474844,28.0074974 C44.2464604,26.8924955 44.0694449,25.1976954 43.2849847,23.4925009 C42.5005259,21.7873066 41.082728,20.0756428 38.6924886,19.0512546 C38.6134404,19.0175632 38.5284174,19.0001335 38.4424889,19.0000046 Z M30.0174961,20.2800036 C30.2870005,20.2800634 30.5243686,20.2896257 30.7599953,20.3000036 L30.7599953,26.6799984 C30.7567311,26.9108052 30.8779954,27.1254901 31.0773537,27.241846 C31.2767119,27.358202 31.5232776,27.358202 31.7226359,27.241846 C31.9219942,27.1254901 32.0432584,26.9108052 32.0399942,26.6799984 L32.0399942,20.4162535 C32.3862058,20.4665841 32.6872232,20.5223519 32.9124934,20.5800033 C33.262184,20.6694966 33.2588393,20.6895738 33.3537429,20.7325032 C33.4080341,21.2723544 33.9599927,26.7200764 33.9599927,28.5999968 C33.9599927,30.2194451 33.3266358,30.8973428 32.5949941,31.4937442 C32.229173,31.7919455 31.8342683,32.0417706 31.4774949,32.354994 C31.1209825,32.6679858 30.7597131,33.1262958 30.7599953,33.7199926 C30.7606993,34.5177904 30.9229878,36.216189 31.0824949,38.1862392 C31.2420019,40.1562888 31.3999948,42.3595599 31.3999948,43.9599842 C31.4012748,46.9367658 31.1435495,48.4954871 30.8587453,49.16998 C30.7163428,49.5072264 30.598549,49.6046177 30.5149958,49.6524794 C30.431442,49.7003418 30.3250817,49.7206419 30.1224957,49.7199795 L30.1212457,49.7199795 C29.9181918,49.7197133 29.810085,49.6993779 29.7262464,49.6512295 C29.6424071,49.6030823 29.5261198,49.5057288 29.3837462,49.1687301 C29.0990302,48.4947325 28.8399969,46.9371178 28.8399969,43.9599842 L28.8399969,43.9587343 C28.8381409,42.358694 28.9961887,40.1562657 29.1562468,38.1862392 C29.3163043,36.2162427 29.4796315,34.5183056 29.4799963,33.7199926 C29.4799963,33.125963 29.122124,32.6682226 28.7662472,32.3512436 C28.4103697,32.0342653 28.0142516,31.7794668 27.647498,31.4774946 C26.9139901,30.8735501 26.2805705,30.1923904 26.279999,28.5999968 C26.279999,25.6709976 26.8115198,21.2479635 26.8774986,20.7050032 C26.971704,20.6656602 27.0570678,20.6269424 27.2387482,20.5762533 C27.4722687,20.5111007 27.7949059,20.4444412 28.1999974,20.3900035 L28.1999974,26.6799984 C28.1967332,26.9108052 28.3179975,27.1254901 28.5173557,27.241846 C28.716714,27.358202 28.9632797,27.358202 29.162638,27.241846 C29.3619962,27.1254901 29.4832605,26.9108052 29.4799963,26.6799984 L29.4799963,20.2950036 C29.6568103,20.2893198 29.8204095,20.2799599 30.0174961,20.2800036 Z M39.0799885,20.8300031 C40.536146,21.7089795 41.5635801,22.8153137 42.1212359,24.0275006 C42.8002952,25.5035833 42.9665895,27.0329005 42.9674855,28.0087474 C42.9659495,29.61638 42.2239629,31.1526846 41.4212365,32.6174937 C40.618306,34.0826758 39.7191905,35.4419048 39.719988,36.91999 C39.7195784,37.8138901 40.0771486,38.6196814 40.3887375,39.6099878 C40.7003264,40.6002942 40.9996836,41.7699419 40.9999869,43.3199848 C41.0003012,46.2606787 40.5972692,47.9283234 40.1574878,48.7799803 C39.718242,49.6305991 39.3467896,49.6909095 39.0812384,49.6912295 C38.9052789,49.6909978 38.8593685,49.6662202 38.8399887,49.6524794 C38.8206095,49.6387386 38.7605116,49.5903739 38.6862391,49.3537296 C38.5376939,48.8804461 38.439989,47.7828432 38.439989,45.8799827 C38.439989,44.6587037 38.614106,41.9759199 38.7899887,39.4562382 C38.9658715,36.9365557 39.144478,34.6228194 39.1437382,33.8149929 C39.1430899,32.4011751 39.0805549,27.0145658 39.0799885,26.6799984 L39.0799885,20.8300031 Z" id="Shape" stroke="#EB1C23" stroke-width="0.5"></path>
            </g>
        </g>
    </g>
</svg>