<?xml version="1.0" encoding="UTF-8"?>
<svg width="70px" height="70px" viewBox="0 0 70 70" version="1.1" xmlns="http://www.w3.org/2000/svg" xmlns:xlink="http://www.w3.org/1999/xlink">
    <!-- Generator: Sketch 42 (36781) - http://www.bohemiancoding.com/sketch -->
    <title>icn/feature_office</title>
    <desc>Created with Sketch.</desc>
    <defs></defs>
    <g id="Symbols" stroke="none" stroke-width="1" fill="none" fill-rule="evenodd">
        <g id="icn/feature_office" fill-rule="nonzero" fill="#EB1C23">
            <path d="M35,70 C15.6700338,70 0,54.3299662 0,35 C0,15.6700338 15.6700338,0 35,0 C54.3299662,0 70,15.6700338 70,35 C70,54.3299662 54.3299662,70 35,70 Z M35,67.5438596 C52.9734774,67.5438596 67.5438596,52.9734774 67.5438596,35 C67.5438596,17.0265226 52.9734774,2.45614035 35,2.45614035 C17.0265226,2.45614035 2.45614035,17.0265226 2.45614035,35 C2.45614035,52.9734774 17.0265226,67.5438596 35,67.5438596 Z" id="Oval-2"></path>
            <path d="M35.0004106,21 C30.9049369,21 28.2812032,21.6722467 26.5828812,22.75 C24.8845592,23.8277533 24.1923029,25.3955754 24.1923029,26.6875 C24.1923029,28.0075396 24.5347843,29.2655106 25.0677259,30.7932692 C24.7927914,30.7180343 24.5160899,30.6923077 24.225973,30.6923077 C23.491061,30.6923077 22.7781581,30.9419945 22.205766,31.3990385 C20.8236014,32.5077652 20.5959708,34.5600371 21.7007142,35.9423077 L25.2697466,40.3846154 C26.3650199,41.7406425 28.0034207,42.5384615 29.7478722,42.5384615 L35.0004106,42.5384615 L40.2529489,42.5384615 C42.0056212,42.5384615 43.6683841,41.7534137 44.7647446,40.3846154 L48.3001069,35.9423077 C49.405423,34.5593209 49.1769145,32.5072042 47.7950551,31.3990385 C47.2210771,30.9404017 46.5081714,30.6923077 45.7748481,30.6923077 C45.4847313,30.6923077 45.2080383,30.7181808 44.9330952,30.7932692 C45.4659137,29.2653631 45.8085182,28.0073355 45.8085182,26.6875 C45.8085182,25.3955754 45.1162617,23.8277533 43.4179399,22.75 C41.7196181,21.6722467 39.0958842,21 35.0004106,21 Z M35.0004106,23.1538462 C38.8532395,23.1538462 41.099282,23.8223687 42.2731559,24.5673077 C43.4470298,25.3122467 43.6536307,26.05604 43.6536307,26.6875 C43.6536307,28.3828092 42.8301674,30.259964 41.3640627,34.2596154 L39.9162477,36.0769231 L35.0004106,36.0769231 L30.0845734,36.0769231 L28.6367584,34.2596154 C27.1848574,30.2988323 26.3471904,28.3742928 26.3471904,26.6875 C26.3471904,26.05604 26.5537915,25.3122467 27.7276652,24.5673077 C28.9015391,23.8223687 31.1475816,23.1538462 35.0004106,23.1538462 Z M24.225973,32.8461538 C24.5617468,32.8461538 24.8561554,32.9866309 25.0677259,33.25 L28.6030883,37.6923077 L28.6367584,37.6923077 C28.9016393,38.0193552 29.3207067,38.2307692 29.7478722,38.2307692 L35.0004106,38.2307692 L40.2529489,38.2307692 C40.6801144,38.2307692 41.1316032,38.0258017 41.3977328,37.6923077 L43.2495893,35.3701923 L44.9330952,33.25 C45.1447504,32.9859729 45.4390746,32.8461538 45.7748481,32.8461538 C46.015534,32.8461538 46.2593983,32.9308323 46.4482504,33.0817308 C46.9195944,33.4597189 46.9916926,34.1268329 46.616601,34.5961538 L43.0812387,39.0384615 C42.3868876,39.9053555 41.3619671,40.3846154 40.2529489,40.3846154 L35.0004106,40.3846154 L29.7478722,40.3846154 C28.6375341,40.3846154 27.6129276,39.9051412 26.9195824,39.0384615 L23.3842201,34.5961538 C23.0085557,34.1261168 23.0793771,33.4613117 23.5525707,33.0817308 C23.7408538,32.9313902 23.9868758,32.8461538 24.225973,32.8461538 Z M33.9229668,43.6153846 L33.9229668,46.8461538 L29.6131918,46.8461538 L29.6131918,49 L40.3876293,49 L40.3876293,46.8461538 L36.0778543,46.8461538 L36.0778543,43.6153846 L33.9229668,43.6153846 Z" id="Shape"></path>
        </g>
    </g>
</svg>