<?xml version="1.0" encoding="UTF-8"?>
<svg width="25px" height="25px" viewBox="0 0 25 25" version="1.1" xmlns="http://www.w3.org/2000/svg" xmlns:xlink="http://www.w3.org/1999/xlink">
    <!-- Generator: Sketch 42 (36781) - http://www.bohemiancoding.com/sketch -->
    <title>icn/plane</title>
    <desc>Created with Sketch.</desc>
    <defs></defs>
    <g id="Symbols" stroke="none" stroke-width="1" fill="none" fill-rule="evenodd">
        <g id="icn/plane" fill-rule="nonzero" fill="#FFFFFF">
            <path d="M22.7604031,0.00543774533 C22.6036364,0.0171153679 22.4426565,0.0485298532 22.2855257,0.0820308826 C21.6570031,0.216035044 20.9825163,0.507953088 20.3247413,0.847962255 C19.0142315,1.52537544 17.8271722,2.38276176 17.3222904,2.91597696 L17.3069717,2.91597696 L13.9981482,6.20948186 L2.23344232,4.61634461 C2.07909249,4.59900421 1.92565631,4.65583243 1.81983938,4.76953088 L0.150108989,6.48521716 C0.0362026443,6.60236854 -0.0118493984,6.76857002 0.0219673459,6.92843099 C0.0557840902,7.08829196 0.167024059,7.22079705 0.318613891,7.28178578 L9.38724134,10.8357074 L4.71505997,15.5998005 L2.46322173,15.5998005 C2.34470312,15.6004216 2.23042208,15.6439573 2.14153056,15.7223495 L0.180746244,17.3767613 C0.0355839157,17.4949409 -0.0296124994,17.6854675 0.0127157728,17.8678046 C0.0550440449,18.0501418 0.197508319,18.1924614 0.379888401,18.2346044 L5.05206977,19.3835015 L6.20096683,24.0556828 C6.24398477,24.2198343 6.36883337,24.3500659 6.53102384,24.3999706 C6.69321431,24.4498754 6.86967874,24.4123555 6.99753546,24.3007809 L8.66726585,22.8301926 C8.77372017,22.7376001 8.83512206,22.6036324 8.83577075,22.4625456 L8.83577075,19.7205113 L13.6458198,15.0483299 L17.1537855,24.1169574 C17.2147742,24.2685472 17.3472793,24.3797872 17.5071403,24.4136039 C17.6670012,24.4474206 17.8332027,24.3993686 17.9503541,24.2854623 L19.6660404,22.6157319 C19.7797388,22.5099149 19.836567,22.3564788 19.8192266,22.2021289 L18.2260894,10.437423 L21.5349129,7.12859951 C22.043332,6.62018039 22.9077178,5.40446029 23.587609,4.09551127 C23.9275546,3.44103672 24.2193335,2.77518873 24.3535404,2.15004559 C24.4877472,1.52490245 24.4903742,0.86707402 24.0471678,0.403722059 C24.0421751,0.398503638 24.0370676,0.393396183 24.0318492,0.388403432 C23.799532,0.166187088 23.5204409,0.0586303924 23.2199619,0.0207563728 C23.0697222,0.00181936298 22.9171698,-0.00623987721 22.7604031,0.00543774533 Z M22.806359,1.00114853 C23.0860188,0.982528628 23.2493977,1.03936681 23.3271923,1.10837892 C23.4203271,1.2131624 23.4898649,1.4785849 23.3884668,1.95090343 C23.285235,2.4317652 23.0301389,3.04349074 22.7144472,3.65127108 C22.0830639,4.86683186 21.1704889,6.09902843 20.8455747,6.42394265 L17.3682462,9.91658971 C17.2590515,10.0189988 17.2026329,10.1656873 17.21506,10.314874 L18.8081972,22.0948985 L17.8124864,23.0599721 L14.2892021,14.0066632 C14.2315621,13.8526402 14.100535,13.7377784 13.9402914,13.7007991 C13.7800479,13.6638199 13.611938,13.70965 13.4926335,13.8228397 L8.00856487,19.1690407 C7.91169478,19.2607512 7.85637951,19.3879763 7.8553786,19.5213691 L7.8553786,22.2480848 L6.95157958,23.0293348 L5.92523154,18.8626681 C5.8806752,18.6898488 5.7457224,18.554896 5.57290311,18.5103397 L1.54410409,17.5146289 L2.64704526,16.5801926 L4.91420213,16.5801926 C5.04759491,16.5791917 5.17482003,16.5238765 5.26653056,16.4270064 L10.6127315,10.9888936 C10.7259212,10.8695892 10.7717514,10.7014793 10.7347721,10.5412357 C10.6977928,10.3809921 10.5829311,10.249965 10.428908,10.192325 L1.37559919,6.63840343 L2.34067271,5.62737402 L14.1206972,7.22051127 C14.2698839,7.23293839 14.4165725,7.17651972 14.5189815,7.067325 L18.0116286,3.58999657 C18.2944688,3.28947863 19.5477663,2.35238015 20.7689815,1.72112402 C21.3795889,1.40549593 21.9995261,1.15053897 22.4846678,1.04710441 C22.6037982,1.0217052 22.7131389,1.00735515 22.806359,1.00114853 Z" id="Shape"></path>
        </g>
    </g>
</svg>