<?xml version="1.0" encoding="UTF-8"?>
<svg width="50px" height="50px" viewBox="0 0 50 50" version="1.1" xmlns="http://www.w3.org/2000/svg" xmlns:xlink="http://www.w3.org/1999/xlink">
    <!-- Generator: Sketch 42 (36781) - http://www.bohemiancoding.com/sketch -->
    <title>icn-bath</title>
    <desc>Created with Sketch.</desc>
    <defs></defs>
    <g id="Page-1" stroke="none" stroke-width="1" fill="none" fill-rule="evenodd">
        <g id="Assets" transform="translate(-907.000000, -42.000000)">
            <rect id="Rectangle-Copy-9" x="907" y="42" width="50" height="50"></rect>
            <g id="Shower-and-Tub-Filled-Copy-2" transform="translate(922.000000, 57.000000)" fill-rule="nonzero" fill="#737373">
                <path d="M17.6,0 C16.6928,0 15.9213,0.474014667 15.5125,1.196 C15.5425,1.19520267 15.57,1.196 15.6,1.196 C15.8836,1.196 16.1545,1.242046 16.4125,1.32058333 C16.7033,1.00125133 17.1236,0.797333333 17.6,0.797333333 C18.4972,0.797333333 19.2,1.49779067 19.2,2.392 L19.2,7.57466667 L20,7.57466667 L20,2.392 C20,1.05088533 18.9456,0 17.6,0 Z M15.6,1.99333333 C14.4972,1.99333333 13.6,2.88754267 13.6,3.98666667 C13.6,4.20673067 13.7788,4.38533333 14,4.38533333 L17.2,4.38533333 C17.4212,4.38533333 17.6,4.20673067 17.6,3.98666667 C17.6,2.88754267 16.7028,1.99333333 15.6,1.99333333 Z M14.4,4.784 C14.179086,4.784 14,4.96248905 14,5.18266667 C14,5.40284429 14.179086,5.58133333 14.4,5.58133333 C14.620914,5.58133333 14.8,5.40284429 14.8,5.18266667 C14.8,4.96248905 14.620914,4.784 14.4,4.784 Z M15.6,4.784 C15.379086,4.784 15.2,4.96248905 15.2,5.18266667 C15.2,5.40284429 15.379086,5.58133333 15.6,5.58133333 C15.820914,5.58133333 16,5.40284429 16,5.18266667 C16,4.96248905 15.820914,4.784 15.6,4.784 Z M16.8,4.784 C16.579086,4.784 16.4,4.96248905 16.4,5.18266667 C16.4,5.40284429 16.579086,5.58133333 16.8,5.58133333 C17.020914,5.58133333 17.2,5.40284429 17.2,5.18266667 C17.2,4.96248905 17.020914,4.784 16.8,4.784 Z M14,5.98 C13.779086,5.98 13.6,6.15848905 13.6,6.37866667 C13.6,6.59884429 13.779086,6.77733333 14,6.77733333 C14.220914,6.77733333 14.4,6.59884429 14.4,6.37866667 C14.4,6.15848905 14.220914,5.98 14,5.98 Z M15.6,5.98 C15.379086,5.98 15.2,6.15848905 15.2,6.37866667 C15.2,6.59884429 15.379086,6.77733333 15.6,6.77733333 C15.820914,6.77733333 16,6.59884429 16,6.37866667 C16,6.15848905 15.820914,5.98 15.6,5.98 Z M17.2,5.98 C16.979086,5.98 16.8,6.15848905 16.8,6.37866667 C16.8,6.59884429 16.979086,6.77733333 17.2,6.77733333 C17.420914,6.77733333 17.6,6.59884429 17.6,6.37866667 C17.6,6.15848905 17.420914,5.98 17.2,5.98 Z M13.6,7.176 C13.379086,7.176 13.2,7.35448905 13.2,7.57466667 C13.2,7.79484429 13.379086,7.97333333 13.6,7.97333333 C13.820914,7.97333333 14,7.79484429 14,7.57466667 C14,7.35448905 13.820914,7.176 13.6,7.176 Z M15.6,7.176 C15.379086,7.176 15.2,7.35448905 15.2,7.57466667 C15.2,7.79484429 15.379086,7.97333333 15.6,7.97333333 C15.820914,7.97333333 16,7.79484429 16,7.57466667 C16,7.35448905 15.820914,7.176 15.6,7.176 Z M17.6,7.176 C17.379086,7.176 17.2,7.35448905 17.2,7.57466667 C17.2,7.79484429 17.379086,7.97333333 17.6,7.97333333 C17.820914,7.97333333 18,7.79484429 18,7.57466667 C18,7.35448905 17.820914,7.176 17.6,7.176 Z M0.4,8.372 C0.1792,8.372 0,8.55060267 0,8.77066667 L0,9.568 C0,9.78846267 0.1792,9.96666667 0.4,9.96666667 L19.6,9.96666667 C19.8212,9.96666667 20,9.78846267 20,9.568 L20,8.77066667 C20,8.55060267 19.8212,8.372 19.6,8.372 L0.4,8.372 Z M0.4,10.764 C0.856,10.764 1.2,11.1064547 1.2,11.5613333 L1.2,13.5546667 C1.2,15.5504957 2.54103908,17.2367592 4.375,17.7655833 C4.2894036,18.1156549 3.99722792,18.3386667 3.6,18.3386667 C3.45574563,18.3366334 3.32156745,18.412171 3.24884491,18.5363546 C3.17612237,18.6605383 3.17612237,18.8141283 3.24884491,18.938312 C3.32156745,19.0624957 3.45574563,19.1380333 3.6,19.136 C4.3552228,19.136 4.9817688,18.616271 5.15,17.9150833 C5.297722,17.9300836 5.4483752,17.94 5.6,17.94 L14.4,17.94 C14.5516252,17.94 14.702278,17.9300836 14.85,17.9150833 C15.0182312,18.616271 15.6447772,19.136 16.4,19.136 C16.5442544,19.1380333 16.6784325,19.0624957 16.7511551,18.938312 C16.8238776,18.8141283 16.8238776,18.6605383 16.7511551,18.5363546 C16.6784325,18.412171 16.5442544,18.3366334 16.4,18.3386667 C16.002772,18.3386667 15.7105964,18.1156549 15.625,17.7655833 C17.4589608,17.2367592 18.8,15.5504957 18.8,13.5546667 L18.8,11.5613333 C18.8,11.1064547 19.1436,10.764 19.6,10.764 L0.4,10.764 Z" id="icn-bath"></path>
            </g>
        </g>
    </g>
</svg>