<?xml version="1.0" encoding="UTF-8"?>
<svg width="25px" height="25px" viewBox="0 0 25 25" version="1.1" xmlns="http://www.w3.org/2000/svg" xmlns:xlink="http://www.w3.org/1999/xlink">
    <!-- Generator: Sketch 42 (36781) - http://www.bohemiancoding.com/sketch -->
    <title>icn/train</title>
    <desc>Created with Sketch.</desc>
    <defs></defs>
    <g id="Symbols" stroke="none" stroke-width="1" fill="none" fill-rule="evenodd">
        <g id="icn/train" fill-rule="nonzero" fill="#FFFFFF">
            <path d="M9.4661368,0 C8.5926623,0 7.8573218,0.646443529 7.7317618,1.47058824 L7.2161368,1.47058824 C5.3024878,1.47058824 3.7161368,2.93950127 3.7161368,4.76409314 L3.7161368,18.7653186 C3.7161368,20.0318515 4.4835174,21.1244235 5.5911368,21.6758578 L3.1848868,23.6366422 C3.04531539,23.7488306 2.97739878,23.9254999 3.00672259,24.1000952 C3.03604639,24.2746904 3.1581552,24.4206837 3.32704804,24.4830763 C3.49594089,24.545469 3.68595642,24.5147811 3.8255118,24.4025735 L6.7161368,22.0281863 C6.8785783,22.0501691 7.0477708,22.0588235 7.2161368,22.0588235 L17.2161368,22.0588235 C17.3845028,22.0588235 17.5536953,22.0501691 17.7161368,22.0281863 L20.6067618,24.4025735 C20.7463172,24.5147811 20.9363327,24.545469 21.1052255,24.4830763 C21.2741184,24.4206837 21.3962272,24.2746904 21.425551,24.1000952 C21.4548748,23.9254999 21.3869582,23.7488306 21.2473868,23.6366422 L18.8411368,21.6758578 C19.9487563,21.1244235 20.7161368,20.0318515 20.7161368,18.7653186 L20.7161368,4.76409314 C20.7161368,2.93950127 19.1297858,1.47058824 17.2161368,1.47058824 L16.7005118,1.47058824 C16.5749518,0.646443529 15.8396113,0 14.9661368,0 C14.0926623,0 13.3573218,0.646443529 13.2317618,1.47058824 L11.2005118,1.47058824 C11.0749518,0.646443529 10.3396113,0 9.4661368,0 Z M9.4661368,0.980392157 C9.8862728,0.980392157 10.2161368,1.30378828 10.2161368,1.71568627 C10.2161368,2.12758426 9.8862728,2.45098039 9.4661368,2.45098039 C9.0460008,2.45098039 8.7161368,2.12758426 8.7161368,1.71568627 C8.7161368,1.30378828 9.0460008,0.980392157 9.4661368,0.980392157 Z M14.9661368,0.980392157 C15.3862728,0.980392157 15.7161368,1.30378828 15.7161368,1.71568627 C15.7161368,2.12758426 15.3862728,2.45098039 14.9661368,2.45098039 C14.6090213,2.45098039 14.3112948,2.22256275 14.2317618,1.8995098 C14.2320874,1.88929988 14.2320874,1.87908247 14.2317618,1.86887255 C14.2307873,1.86409407 14.2326438,1.85836809 14.2317618,1.85355392 C14.2237358,1.8097451 14.2161368,1.76207578 14.2161368,1.71568627 C14.2161368,1.30378828 14.5460008,0.980392157 14.9661368,0.980392157 Z M7.2161368,2.45098039 L7.9036368,2.45098039 C8.1889298,3.02215799 8.7782623,3.43137255 9.4661368,3.43137255 C10.1540113,3.43137255 10.7433438,3.02215799 11.0286368,2.45098039 L13.4036368,2.45098039 C13.6889298,3.02215799 14.2782623,3.43137255 14.9661368,3.43137255 C15.6540113,3.43137255 16.2433438,3.02215799 16.5286368,2.45098039 L17.2161368,2.45098039 C18.6144878,2.45098039 19.7161368,3.49652814 19.7161368,4.76409314 L19.7161368,18.7653186 C19.7161368,20.0328838 18.6144878,21.0784314 17.2161368,21.0784314 L7.2161368,21.0784314 C5.8177858,21.0784314 4.7161368,20.0328838 4.7161368,18.7653186 L4.7161368,4.76409314 C4.7161368,3.49652814 5.8177858,2.45098039 7.2161368,2.45098039 Z M9.2161368,4.41176471 C8.6696053,4.41176471 8.2161368,4.85634176 8.2161368,5.39215686 L8.2161368,6.37254902 L7.2161368,6.37254902 C6.4162503,6.37254902 5.7161368,6.98112745 5.7161368,7.76654412 L5.7161368,11.841299 C5.7161368,12.6267157 6.4159483,13.2352941 7.2161368,13.2352941 L17.2161368,13.2352941 C18.0163253,13.2352941 18.7161368,12.6267157 18.7161368,11.841299 L18.7161368,7.76654412 C18.7161368,6.98112745 18.0160233,6.37254902 17.2161368,6.37254902 L16.2161368,6.37254902 L16.2161368,5.39215686 C16.2161368,4.85693377 15.7626788,4.41176471 15.2161368,4.41176471 L9.2161368,4.41176471 Z M9.2161368,5.39215686 L15.2161368,5.39215686 L15.2161368,6.37254902 L9.2161368,6.37254902 L9.2161368,5.39215686 Z M7.2161368,7.35294118 L9.2161368,7.35294118 L15.2161368,7.35294118 L17.2161368,7.35294118 C17.5202503,7.35294118 17.7161368,7.55980392 17.7161368,7.76654412 L17.7161368,11.841299 C17.7161368,12.0480392 17.5199483,12.254902 17.2161368,12.254902 L7.2161368,12.254902 C6.9123253,12.254902 6.7161368,12.0480392 6.7161368,11.841299 L6.7161368,7.76654412 C6.7161368,7.55980392 6.9120233,7.35294118 7.2161368,7.35294118 Z M7.7161368,15.6862745 C6.6174898,15.6862745 5.7161368,16.5699539 5.7161368,17.6470588 C5.7161368,18.7241637 6.6174898,19.6078431 7.7161368,19.6078431 C8.8147838,19.6078431 9.7161368,18.7241637 9.7161368,17.6470588 C9.7161368,16.5699539 8.8147838,15.6862745 7.7161368,15.6862745 Z M16.7161368,15.6862745 C15.6174898,15.6862745 14.7161368,16.5699539 14.7161368,17.6470588 C14.7161368,18.7241637 15.6174898,19.6078431 16.7161368,19.6078431 C17.8147838,19.6078431 18.7161368,18.7241637 18.7161368,17.6470588 C18.7161368,16.5699539 17.8147838,15.6862745 16.7161368,15.6862745 Z M7.7161368,16.6666667 C8.2743438,16.6666667 8.7161368,17.0997971 8.7161368,17.6470588 C8.7161368,18.1943206 8.2743438,18.627451 7.7161368,18.627451 C7.1579298,18.627451 6.7161368,18.1943206 6.7161368,17.6470588 C6.7161368,17.0997971 7.1579298,16.6666667 7.7161368,16.6666667 Z M16.7161368,16.6666667 C17.2743438,16.6666667 17.7161368,17.0997971 17.7161368,17.6470588 C17.7161368,18.1943206 17.2743438,18.627451 16.7161368,18.627451 C16.1579298,18.627451 15.7161368,18.1943206 15.7161368,17.6470588 C15.7161368,17.0997971 16.1579298,16.6666667 16.7161368,16.6666667 Z" id="Shape"></path>
        </g>
    </g>
</svg>