<?xml version="1.0" encoding="UTF-8"?>
<svg width="70px" height="70px" viewBox="0 0 70 70" version="1.1" xmlns="http://www.w3.org/2000/svg" xmlns:xlink="http://www.w3.org/1999/xlink">
    <!-- Generator: Sketch 42 (36781) - http://www.bohemiancoding.com/sketch -->
    <title>icn/feature_medical</title>
    <desc>Created with Sketch.</desc>
    <defs></defs>
    <g id="Symbols" stroke="none" stroke-width="1" fill="none" fill-rule="evenodd">
        <g id="icn/feature_medical" fill-rule="nonzero" fill="#EB1C23">
            <g id="Group-6-Copy">
                <path d="M35,70 C15.6700338,70 0,54.3299662 0,35 C0,15.6700338 15.6700338,0 35,0 C54.3299662,0 70,15.6700338 70,35 C70,54.3299662 54.3299662,70 35,70 Z M35,67.5438596 C52.9734774,67.5438596 67.5438596,52.9734774 67.5438596,35 C67.5438596,17.0265226 52.9734774,2.45614035 35,2.45614035 C17.0265226,2.45614035 2.45614035,17.0265226 2.45614035,35 C2.45614035,52.9734774 17.0265226,67.5438596 35,67.5438596 Z" id="Oval-2"></path>
                <path d="M35,21.875601 L34.5528846,22.061899 L20.2451923,28.0234375 L19.5,28.358774 L19.5,29.141226 L19.5,47.0258413 L19.5,48.218149 L20.6923077,48.218149 L49.3076923,48.218149 L50.5,48.218149 L50.5,47.0258413 L50.5,29.141226 L50.5,28.358774 L49.7548077,28.0234375 L35.4471154,22.061899 L35,21.875601 Z M35,24.483774 L48.1153846,29.9609375 L48.1153846,45.8335337 L21.8846154,45.8335337 L21.8846154,29.9609375 L35,24.483774 Z M33.8076923,31.5258413 L33.8076923,35.1027644 L30.2307692,35.1027644 L30.2307692,37.4873798 L33.8076923,37.4873798 L33.8076923,41.0643029 L36.1923077,41.0643029 L36.1923077,37.4873798 L39.7692308,37.4873798 L39.7692308,35.1027644 L36.1923077,35.1027644 L36.1923077,31.5258413 L33.8076923,31.5258413 Z" id="Shape"></path>
            </g>
        </g>
        <g id="Clinic" transform="translate(22.000000, 22.000000)"></g>
    </g>
</svg>