<?xml version="1.0" encoding="UTF-8"?>
<svg width="70px" height="70px" viewBox="0 0 70 70" version="1.1" xmlns="http://www.w3.org/2000/svg" xmlns:xlink="http://www.w3.org/1999/xlink">
    <!-- Generator: Sketch 42 (36781) - http://www.bohemiancoding.com/sketch -->
    <title>icn/feature_nightlife</title>
    <desc>Created with Sketch.</desc>
    <defs></defs>
    <g id="Symbols" stroke="none" stroke-width="1" fill="none" fill-rule="evenodd">
        <g id="icn/feature_nightlife" fill-rule="nonzero" fill="#EB1C23">
            <path d="M35,70 C15.6700338,70 0,54.3299662 0,35 C0,15.6700338 15.6700338,0 35,0 C54.3299662,0 70,15.6700338 70,35 C70,54.3299662 54.3299662,70 35,70 Z M35,67.5438596 C52.9734774,67.5438596 67.5438596,52.9734774 67.5438596,35 C67.5438596,17.0265226 52.9734774,2.45614035 35,2.45614035 C17.0265226,2.45614035 2.45614035,17.0265226 2.45614035,35 C2.45614035,52.9734774 17.0265226,67.5438596 35,67.5438596 Z" id="Oval-2"></path>
            <path d="M51,27.9518327 L50.184087,28.1381364 L39.1907324,30.3737803 L38.6324761,30.4669321 L38.6324761,31.095707 L38.6324761,40.457466 C38.2253148,40.1977967 37.7615492,40.0382828 37.2583068,40.0382828 C35.7485795,40.0382828 34.5099681,41.3816857 34.5099681,43.0191414 C34.5099681,44.6565971 35.7485795,46 37.2583068,46 C38.7680341,46 40.0066454,44.6565971 40.0066454,43.0191414 L40.0066454,34.6820525 L49.6258307,32.725864 L49.6258307,38.2218221 C49.2186691,37.9621528 48.7549035,37.8026388 48.2516614,37.8026388 C46.7419344,37.8026388 45.5033227,39.1460418 45.5033227,40.7834974 C45.5033227,42.4209531 46.7419344,43.764356 48.2516614,43.764356 C49.7613884,43.764356 51,42.4209531 51,40.7834974 L51,28.860063 L51,27.9518327 Z M25.2814992,24 L25.2814992,25.2241998 L25.2814992,28.6306688 L25.2814992,29.2161557 L25.2814992,36.7476458 C24.6213325,36.2015939 23.8151704,35.8694155 22.925937,35.8694155 C20.7670022,35.8694155 19,37.7859129 19,40.1275018 C19,42.4690907 20.7670022,44.3855881 22.925937,44.3855881 C25.0848718,44.3855881 26.851874,42.4690907 26.851874,40.1275018 L26.851874,29.8548686 L32.0782776,31.9839118 L33.1333732,32.4097204 L33.1333732,31.1855206 L33.1333732,27.7790516 L33.1333732,27.1935647 L32.618094,26.9806604 L26.3365948,24.4258086 L25.2814992,24 Z M49.6258307,29.7450054 L49.6258307,31.2354347 L40.0066454,33.1916232 L40.0066454,31.7011939 L49.6258307,29.7450054 Z M48.2516614,39.2930681 C49.0187323,39.2930681 49.6258307,39.9515294 49.6258307,40.7834974 C49.6258307,41.6154655 49.0187323,42.2739267 48.2516614,42.2739267 C47.4845904,42.2739267 46.877492,41.6154655 46.877492,40.7834974 C46.877492,39.9515294 47.4845904,39.2930681 48.2516614,39.2930681 Z M37.2583068,41.5287121 C38.0253777,41.5287121 38.6324761,42.1871733 38.6324761,43.0191414 C38.6324761,43.8511095 38.0253777,44.5095707 37.2583068,44.5095707 C36.4912358,44.5095707 35.8841375,43.8511095 35.8841375,43.0191414 C35.8841375,42.1871733 36.4912358,41.5287121 37.2583068,41.5287121 Z M26.851874,26.4483996 L31.5629984,28.3645384 L31.5629984,29.9613208 L26.851874,28.045182 L26.851874,26.4483996 Z M22.925937,37.57265 C24.2361784,37.57265 25.2814992,38.7064089 25.2814992,40.1275018 C25.2814992,41.5485946 24.2361784,42.6823536 22.925937,42.6823536 C21.6156956,42.6823536 20.5703748,41.5485946 20.5703748,40.1275018 C20.5703748,38.7064089 21.6156956,37.57265 22.925937,37.57265 Z" id="Combined-Shape" stroke="#EB1C23" stroke-width="0.5"></path>
        </g>
    </g>
</svg>