<?xml version="1.0" encoding="UTF-8"?>
<svg width="70px" height="70px" viewBox="0 0 70 70" version="1.1" xmlns="http://www.w3.org/2000/svg" xmlns:xlink="http://www.w3.org/1999/xlink">
    <!-- Generator: Sketch 42 (36781) - http://www.bohemiancoding.com/sketch -->
    <title>icn/feature_fibre</title>
    <desc>Created with Sketch.</desc>
    <defs></defs>
    <g id="Symbols" stroke="none" stroke-width="1" fill="none" fill-rule="evenodd">
        <g id="icn/feature_fibre" fill-rule="nonzero" fill="#EB1C23">
            <g id="Group-6-Copy-5">
                <path d="M35,70 C15.6700338,70 0,54.3299662 0,35 C0,15.6700338 15.6700338,0 35,0 C54.3299662,0 70,15.6700338 70,35 C70,54.3299662 54.3299662,70 35,70 Z M35,67.5438596 C52.9734774,67.5438596 67.5438596,52.9734774 67.5438596,35 C67.5438596,17.0265226 52.9734774,2.45614035 35,2.45614035 C17.0265226,2.45614035 2.45614035,17.0265226 2.45614035,35 C2.45614035,52.9734774 17.0265226,67.5438596 35,67.5438596 Z" id="Oval-2"></path>
                <path d="M40.8814567,20.4615385 L40.8814567,22.239528 L45.3114084,24.7555509 L40.8814567,24.7555509 C40.2852055,24.7555509 39.7993311,25.2375538 39.7993311,25.829054 L39.7993311,26.8354632 C38.7567128,26.81289 37.689447,26.8104462 36.68822,26.8019162 C34.6420687,26.7844838 32.7183535,26.8245379 31.0070606,27.036745 C29.295768,27.2489521 27.7977884,27.6257386 26.6109253,28.4457178 C25.4240622,29.2656971 24.6495726,30.6419262 24.6495726,32.2700726 C24.6495726,33.2451709 25.1338829,34.1385155 25.7993311,34.7525486 C26.4647793,35.3665816 27.2966507,35.7780876 28.2341137,36.1279744 C30.1090398,36.8277492 32.4385894,37.2456661 34.7268673,37.7046821 C37.0151453,38.1636981 39.2655045,38.6686267 40.8138239,39.3820307 C41.5879841,39.7387322 42.1445494,40.1428503 42.5046451,40.5561747 C42.8647408,40.9694992 43.0457079,41.3579935 43.0457079,41.9316006 C43.0457079,43.3672736 42.7031189,44.1165798 41.9973987,44.7159993 C41.2916786,45.3154187 40.0707942,45.7781426 38.277592,46.0243312 C34.6911875,46.5167095 29.0075876,46.225613 21.5384615,46.225613 L21.5384615,48.3726192 C28.9485626,48.3726192 34.5596486,48.6853683 38.5481234,48.1377904 C40.5423607,47.864001 42.1789643,47.3832165 43.3838722,46.3598009 C44.5887801,45.3363853 45.2099591,43.7835309 45.2099591,41.9316006 C45.2099591,40.861406 44.8075934,39.8886276 44.1616499,39.1472019 C43.5157064,38.4057763 42.6435284,37.8742484 41.6930509,37.4363063 C39.7920949,36.5604223 37.4434203,36.0547486 35.1326644,35.5912229 C32.8219086,35.1276971 30.5524243,34.7027466 28.9780751,34.1151561 C28.1909004,33.8213608 27.5940279,33.4901154 27.2534374,33.1758409 C26.9128469,32.8615664 26.8138239,32.6368532 26.8138239,32.2700726 C26.8138239,31.2144616 27.1214599,30.71206 27.8283166,30.2237073 C28.5351733,29.7353547 29.7425077,29.3741078 31.277592,29.1837512 C33.5638896,28.9002412 36.6196143,28.9646881 39.7993311,29.0160163 L39.7993311,30.1230664 C39.7993311,30.7145666 40.2852055,31.1965695 40.8814567,31.1965695 L48.4563359,31.1965695 C49.0525871,31.1965695 49.5384615,30.7145666 49.5384615,30.1230664 L49.5384615,25.829054 C49.5384615,25.2375538 49.0525871,24.7555509 48.4563359,24.7555509 L40.8814567,20.4615385 Z" id="Shape"></path>
            </g>
        </g>
    </g>
</svg>