<?xml version="1.0" encoding="UTF-8"?>
<svg width="115px" height="52px" viewBox="0 0 115 52" version="1.1" xmlns="http://www.w3.org/2000/svg" xmlns:xlink="http://www.w3.org/1999/xlink">
    <!-- Generator: Sketch 43.1 (39012) - http://www.bohemiancoding.com/sketch -->
    <title>logo/one-on-whiteley</title>
    <desc>Created with Sketch.</desc>
    <defs></defs>
    <g id="Symbols" stroke="none" stroke-width="1" fill="none" fill-rule="evenodd">
        <g id="logo/one-on-whiteley" fill="#FFFFFF">
            <path d="M108.747648,47.5267752 L104.217573,40.9813545 L105.712162,40.9813545 L109.386611,46.3972339 L113.091381,40.9813545 L114.523672,40.9813545 L109.993046,47.5125258 L109.993046,51.8142094 L108.747648,51.8142094 L108.747648,47.5267752 L108.747648,47.5267752 Z M94.9082343,40.9802584 L102.786385,40.9802584 L102.786385,42.0944542 L96.1387474,42.0944542 L96.1387474,45.7938253 L102.085676,45.7938253 L102.085676,46.9080211 L96.1387474,46.9080211 L96.1387474,50.7000136 L102.863568,50.7000136 L102.863568,51.8142094 L94.9082343,51.8142094 L94.9082343,40.9802584 L94.9082343,40.9802584 Z M85.2725225,40.9802584 L86.5030356,40.9802584 L86.5030356,50.684668 L92.6374083,50.684668 L92.6374083,51.8142094 L85.2725225,51.8142094 L85.2725225,40.9802584 L85.2725225,40.9802584 Z M74.8429312,40.9802584 L82.7210821,40.9802584 L82.7210821,42.0944542 L76.0728931,42.0944542 L76.0728931,45.7938253 L82.019822,45.7938253 L82.019822,46.9080211 L76.0728931,46.9080211 L76.0728931,50.7000136 L82.7982649,50.7000136 L82.7982649,51.8142094 L74.8429312,51.8142094 L74.8429312,40.9802584 L74.8429312,40.9802584 Z M67.63627,42.1103478 L63.9772576,42.1103478 L63.9772576,40.9813545 L72.5406808,40.9813545 L72.5406808,42.1103478 L68.8811171,42.1103478 L68.8811171,51.8147574 L67.63627,51.8147574 L67.63627,42.1103478 L67.63627,42.1103478 Z M60.3353356,51.8147574 L61.5647461,51.8147574 L61.5647461,40.9802584 L60.3353356,40.9802584 L60.3353356,51.8147574 Z M48.3951682,40.9802584 L49.62513,40.9802584 L49.62513,45.7938253 L55.915522,45.7938253 L55.915522,40.9802584 L57.1454839,40.9802584 L57.1454839,51.8142094 L55.915522,51.8142094 L55.915522,46.9387122 L49.62513,46.9387122 L49.62513,51.8142094 L48.3951682,51.8142094 L48.3951682,40.9802584 L48.3951682,40.9802584 Z M30.3217307,40.9802584 L31.660851,40.9802584 L34.7746226,50.0039837 L37.7637992,40.9490193 L38.7754442,40.9490193 L41.7651722,50.0039837 L44.8789438,40.9802584 L46.1701005,40.9802584 L42.2784373,51.8914851 L41.2353679,51.8914851 L38.2467426,43.1006831 L35.2421294,51.8914851 L34.2133939,51.8914851 L30.3217307,40.9802584 L30.3217307,40.9802584 Z M14.1949518,40.9802584 L15.3471796,40.9802584 L22.2131342,49.6630935 L22.2131342,40.9802584 L23.4116717,40.9802584 L23.4116717,51.8142094 L22.4314511,51.8142094 L15.3934892,42.930238 L15.3934892,51.8142094 L14.1949518,51.8142094 L14.1949518,40.9802584 L14.1949518,40.9802584 Z M0.48068432,46.428473 L0.48068432,46.3972339 C0.48068432,43.4103342 2.7377277,40.7944678 6.05437962,40.7944678 C9.36992892,40.7944678 11.5960992,43.3801912 11.5960992,46.3665428 C11.6120871,46.3818883 11.6120871,46.3818883 11.5960992,46.3972339 C11.5960992,49.3852297 9.33905583,52 6.02295522,52 C2.7063033,52 0.48068432,49.4153727 0.48068432,46.428473 L0.48068432,46.428473 Z M10.3198277,46.428473 L10.3198277,46.3972339 C10.3198277,43.936467 8.51375199,41.9245571 6.02295522,41.9245571 C3.53160715,41.9245571 1.7575071,43.906324 1.7575071,46.3665428 L1.7575071,46.3972339 C1.7575071,48.8580008 3.56303154,50.8710067 6.05437962,50.8710067 C8.54517639,50.8710067 10.3198277,48.8892399 10.3198277,46.428473 L10.3198277,46.428473 Z M55.8433011,36.2390347 C51.6633052,36.2346503 47.4877199,36.2302658 43.4025485,36.2253334 L38.8868079,10.7659871 L50.9504677,8.65104287 L51.8005802,13.4459759 C53.5178958,10.217384 56.2115729,6.94768797 61.1010985,6.09107803 C68.4014816,4.81136964 73.6350216,8.84012184 75.010528,16.6033207 L78.4964306,36.2549283 C74.4845829,36.2527361 70.3056897,36.2505439 66.0562294,36.2472556 L63.6299353,22.5672551 C62.9689204,18.8443175 60.6446178,17.1689135 57.7883057,17.6692877 C54.8674909,18.1817191 53.0658256,20.5800077 53.7262892,24.3029452 L55.8433011,36.2390347 L55.8433011,36.2390347 Z M0.295997087,35.2958321 L0.27394488,35.1692314 C-1.451089,25.4483801 5.10503211,15.9050987 16.1542904,13.9688204 C27.137392,12.0435032 36.4974512,18.6667477 38.2219338,28.3881471 L38.243986,28.5147478 C38.7103902,31.1443156 38.5659483,33.760182 37.8950099,36.2176606 C33.6141252,36.21218 29.4854008,36.2066995 25.6130332,36.2001228 C26.5397772,34.6283011 26.8722142,32.6816098 26.5210328,30.6987469 L26.497878,30.5726942 C25.7596804,26.4074763 22.0846801,23.4057792 17.8291555,24.1522301 C13.4479333,24.9200551 11.2691752,28.8813965 11.9974494,32.9846842 L12.0195016,33.1101888 C12.2196254,34.2358938 12.6353095,35.2755541 13.2163851,36.1803928 C7.38853813,36.1705279 2.90477316,36.162307 0.471312132,36.1579226 C0.406809427,35.872934 0.347819774,35.5863012 0.295997087,35.2958321 L0.295997087,35.2958321 Z M79.7506499,21.3686588 L79.7280464,21.2426062 C77.9583568,11.2691015 83.7354837,2.12261188 93.8949354,0.341981231 C105.767292,-1.73898355 112.760047,5.9502279 114.53966,15.9851147 C114.67473,16.7441708 114.831301,17.6270874 114.915099,18.4584868 L91.9295324,22.487239 C93.5443053,26.0457601 96.6095621,27.4591939 100.355129,26.803172 C103.211441,26.3022498 105.309709,24.829078 107.360013,21.9972779 L115,26.3181434 C112.436431,31.0653957 108.167124,34.6748858 101.309439,35.8767704 C90.5170886,37.7692042 81.6311518,31.9735228 79.7506499,21.3686588 L79.7506499,21.3686588 Z M102.589018,14.3075184 C101.473176,10.5971861 98.8274628,8.58911265 95.5240422,9.16785872 C92.349627,9.72468258 90.6279009,12.5647035 90.6554662,16.3994443 L102.589018,14.3075184 L102.589018,14.3075184 Z" id="Fill-1-Copy-2"></path>
        </g>
    </g>
</svg>