<svg xmlns="http://www.w3.org/2000/svg" width="25" height="25" viewBox="0 0 25 25">
    <path fill="#FFF" fill-rule="nonzero" d="M22.76.005a3.593 3.593 0 0 0-.474.077c-.629.134-1.303.426-1.961.766-1.31.677-2.498 1.535-3.003 2.068h-.015l-3.309 3.293L2.233 4.616a.49.49 0 0 0-.413.154L.15 6.485a.49.49 0 0 0 .169.797l9.068 3.554L4.715 15.6H2.463a.49.49 0 0 0-.321.122L.18 17.377a.49.49 0 0 0 .199.858l4.672 1.149 1.149 4.672a.49.49 0 0 0 .797.245l1.67-1.47a.49.49 0 0 0 .168-.368V19.72l4.81-4.673 3.508 9.069a.49.49 0 0 0 .796.168l1.716-1.67a.49.49 0 0 0 .153-.413l-1.593-11.765 3.309-3.308c.508-.509 1.373-1.725 2.053-3.033.34-.655.631-1.32.766-1.946.134-.625.136-1.283-.307-1.746A1.387 1.387 0 0 0 23.22.02a2.293 2.293 0 0 0-.46-.016zm.046.996c.28-.018.443.038.521.107.093.105.163.37.061.843-.103.48-.358 1.092-.674 1.7-.63 1.216-1.544 2.448-1.868 2.773l-3.478 3.493a.49.49 0 0 0-.153.398l1.593 11.78-.996.965-3.523-9.053a.49.49 0 0 0-.796-.184l-5.484 5.346a.49.49 0 0 0-.154.352v2.727l-.903.781-1.027-4.166a.49.49 0 0 0-.352-.353l-4.029-.995 1.103-.935h2.267a.49.49 0 0 0 .353-.153l5.346-5.438a.49.49 0 0 0-.184-.797L1.376 6.638l.965-1.01L14.12 7.22a.49.49 0 0 0 .398-.154l3.493-3.477c.282-.3 1.536-1.238 2.757-1.869.61-.316 1.23-.57 1.716-.674.119-.025.228-.04.321-.046z"/>
</svg>
