<svg xmlns="http://www.w3.org/2000/svg" width="25" height="25" viewBox="0 0 25 25">
    <path fill="#FFF" fill-rule="nonzero" d="M12.063 0c-2.767 0-5 2.279-5 5.102v1.02H3.108l-.046.447-2 17.857L1 25h22.125l-.063-.574-2-17.857-.046-.447h-3.953v-1.02c0-2.823-2.234-5.102-5-5.102zm0 1.02c2.233 0 4 1.803 4 4.082v1.02h-8v-1.02c0-2.279 1.766-4.082 4-4.082zM4.015 7.143h3.046v1.164c-.298.176-.5.5-.5.877 0 .563.448 1.02 1 1.02.553 0 1-.457 1-1.02 0-.378-.201-.7-.5-.877V7.143h8v1.164c-.298.176-.5.5-.5.877 0 .563.448 1.02 1 1.02.553 0 1-.457 1-1.02 0-.378-.201-.7-.5-.877V7.143h3.047L22 23.98H2.125l1.89-16.837z"/>
</svg>
