<svg xmlns="http://www.w3.org/2000/svg" width="25" height="25" viewBox="0 0 25 25">
    <path fill="#FFF" fill-rule="nonzero" d="M9.466 0c-.873 0-1.609.646-1.734 1.47h-.516c-1.914 0-3.5 1.47-3.5 3.294v14.001c0 1.267.768 2.36 1.875 2.91l-2.406 1.962a.49.49 0 0 0 .142.846.513.513 0 0 0 .499-.08l2.89-2.375c.163.022.332.03.5.03h10c.169 0 .338-.008.5-.03l2.89 2.375c.14.112.33.142.5.08a.49.49 0 1 0 .142-.846l-2.407-1.961c1.108-.552 1.875-1.644 1.875-2.91V4.763c0-1.824-1.586-3.293-3.5-3.293h-.515a1.758 1.758 0 0 0-3.47 0h-2.03A1.758 1.758 0 0 0 9.466 0zm0 .98a.735.735 0 1 1 0 1.471.735.735 0 1 1 0-1.47zm5.5 0a.735.735 0 1 1 0 1.471.74.74 0 0 1-.734-.551v-.046a.778.778 0 0 1-.016-.138c0-.412.33-.736.75-.736zm-7.75 1.471h.688c.285.571.874.98 1.562.98.688 0 1.277-.409 1.563-.98h2.375c.285.571.874.98 1.562.98.688 0 1.277-.409 1.563-.98h.687c1.398 0 2.5 1.046 2.5 2.313v14.001c0 1.268-1.102 2.313-2.5 2.313h-10c-1.398 0-2.5-1.045-2.5-2.313v-14c0-1.268 1.102-2.314 2.5-2.314zm2 1.96c-.546 0-1 .445-1 .981v.98h-1c-.8 0-1.5.61-1.5 1.395v4.074c0 .786.7 1.394 1.5 1.394h10c.8 0 1.5-.608 1.5-1.394V7.767c0-.786-.7-1.394-1.5-1.394h-1v-.98a.998.998 0 0 0-1-.981h-6zm0 .981h6v.98h-6v-.98zm-2 1.96h10c.304 0 .5.208.5.415v4.074c0 .207-.196.414-.5.414h-10c-.304 0-.5-.207-.5-.414V7.767c0-.207.196-.414.5-.414zm.5 8.334c-1.099 0-2 .884-2 1.961s.901 1.96 2 1.96 2-.883 2-1.96-.901-1.96-2-1.96zm9 0c-1.099 0-2 .884-2 1.961s.901 1.96 2 1.96 2-.883 2-1.96-.901-1.96-2-1.96zm-9 .98c.558 0 1 .434 1 .981 0 .547-.442.98-1 .98s-1-.433-1-.98c0-.547.442-.98 1-.98zm9 0c.558 0 1 .434 1 .981 0 .547-.442.98-1 .98s-1-.433-1-.98c0-.547.442-.98 1-.98z"/>
</svg>
