<svg xmlns="http://www.w3.org/2000/svg" width="25" height="25" viewBox="0 0 25 25">
    <path fill="#FFF" fill-rule="nonzero" d="M13.744 0a2.758 2.758 0 0 0-2.75 2.75 2.758 2.758 0 0 0 2.75 2.75 2.758 2.758 0 0 0 2.75-2.75A2.758 2.758 0 0 0 13.744 0zm0 1c.973 0 1.75.778 1.75 1.75s-.777 1.75-1.75 1.75c-.972 0-1.75-.778-1.75-1.75S12.772 1 13.744 1zm-2.14 4.5c-.717 0-1.117.314-1.422.484a.5.5 0 0 0-.078.047L7.04 8.641l.016.03c-.33.22-.597.528-.719.907a.5.5 0 0 0-.016.063l-.78 4.171a.5.5 0 0 0-.016.032c-.06.446.04.849.265 1.14.225.292.536.44.828.5.299.062.614.028.907-.125.292-.152.558-.46.64-.859.072-.348.75-3.312.813-3.594l.78-.61c-.199.97-.442 2.097-.515 2.47-.076.386-.052.737.016 1.062l-1.344 4.86-2.406 3.5c-.222.322-.443.7-.5 1.156-.057.456.133.996.594 1.343.52.394 1.18.348 1.593.11.414-.238.683-.58.875-.797.24-.268.668-.875 1.141-1.516.473-.64.965-1.305 1.156-1.547.311-.39.493-.748.625-1.078.07-.175.401-1.054.688-1.797.397.622.503.785.953 1.485.625.972 1.266 1.948 1.781 2.734.515.787.89 1.349 1.078 1.594.319.414.642.775 1.094.969.452.194 1.007.141 1.516-.14.5-.279.752-.801.765-1.282.013-.481-.158-.95-.39-1.344-.415-.703-4.657-7.603-4.844-7.906l.453-2.016c.074.109.116.163.172.25.184.286.437.458.797.656.333.184.902.364 1.547.594.644.231 1.319.478 1.578.594.324.145.691.26 1.078.25.387-.01.846-.2 1.078-.61.225-.396.188-.845.031-1.187a1.526 1.526 0 0 0-.75-.765 92.77 92.77 0 0 0-1.906-.797c-.71-.292-1.225-.502-1.375-.563a265.254 265.254 0 0 1-1.562-3.422c-.008-.022-.023-.04-.032-.062a.5.5 0 0 0-.015-.032 2.706 2.706 0 0 0-.641-.968c-.359-.34-.825-.594-1.36-.594h-1.124zm0 1h1.125c.201 0 .45.118.672.328a1.754 1.754 0 0 1 .453.719l.015.047c.127.482.072.655-.031 1.125-.035.16-.236 1.068-.437 1.969-.004.015-.013.016-.016.03a.5.5 0 0 0-.016.063.5.5 0 0 0-.015.094l-.735 3.281a.5.5 0 0 0 .063.375s4.587 7.469 4.937 8.063c.155.262.256.573.25.797-.006.223-.054.329-.25.437-.325.18-.464.17-.64.094-.177-.076-.41-.296-.688-.656a35.77 35.77 0 0 1-1.047-1.532c-.512-.782-1.141-1.763-1.765-2.734-.678-1.053-.943-1.459-1.438-2.234a.5.5 0 0 0 0-.016c-.006-.01-.01-.021-.015-.031a.5.5 0 0 0-.063-.078c-.375-.588-1.04-1.638-1.125-1.766-.381-.574-.76-1.153-.61-1.922.11-.563.454-2.228.782-3.75a.5.5 0 0 0-.797-.515l-2 1.546a.5.5 0 0 0-.187.282s-.736 3.333-.829 3.78c-.019.094-.065.133-.14.173a.433.433 0 0 1-.235.031c-.128-.026-.208-.07-.25-.125-.038-.05-.067-.16-.046-.375v-.016c0-.009-.002-.006 0-.015L7.29 9.89c.078-.242.147-.343.313-.438a.5.5 0 0 0 .078-.047l2.984-2.547c.009-.004.007-.01.016-.015.397-.226.458-.344.922-.344zm3.093 2.89c.336.734.813 1.782.813 1.782a.5.5 0 0 0 .266.25l1.562.64c.805.332 1.691.698 1.875.782a.61.61 0 0 1 .25.265c.054.118.051.207 0 .297-.044.078-.056.09-.219.094a1.736 1.736 0 0 1-.656-.156c-.362-.162-1.015-.395-1.656-.625-.642-.23-1.304-.484-1.39-.531-.357-.197-.377-.193-.454-.313-.25-.388-.595-.89-.703-1.047.14-.626.245-1.134.312-1.437zm-4.796 5.86c.035.055.076.122.109.172h-.016c.06.089.705 1.098 1.032 1.61-.134.348-.904 2.345-.954 2.468a3.019 3.019 0 0 1-.484.813c-.231.29-.7.94-1.172 1.578-.471.638-.964 1.292-1.094 1.437-.208.234-.436.485-.625.594-.189.109-.232.159-.484-.031-.229-.173-.241-.244-.219-.422.023-.178.163-.456.344-.719.534-.778 2.453-3.563 2.453-3.563a.5.5 0 0 0 .078-.156l1.032-3.781z"/>
</svg>
